<?xml version="1.0" encoding="utf-8"?>
<!-- Generator: Adobe Illustrator 26.2.1, SVG Export Plug-In . SVG Version: 6.00 Build 0)  -->
<svg version="1.1" id="Layer_1" xmlns="http://www.w3.org/2000/svg" xmlns:xlink="http://www.w3.org/1999/xlink" x="0px" y="0px"
	 viewBox="0 0 64.3 52.6" style="enable-background:new 0 0 64.3 52.6;" xml:space="preserve">
<style type="text/css">
	.st0{fill:#2AA8AA;}
</style>
<g id="Nerd_-_Dark" transform="translate(0 0)">
	<g>
		<g id="Group_1391">
			<path id="Path_2801" class="st0" d="M58.6,0h-53C2.5,0,0,2.5,0,5.7c0,0,0,0,0,0V47c0,3.1,2.5,5.6,5.7,5.6h53
				c3.1,0,5.7-2.5,5.7-5.7c0,0,0,0,0,0V5.7C64.3,2.5,61.8,0,58.6,0C58.6,0,58.6,0,58.6,0 M59.3,45.6c0,1-0.8,1.7-1.7,1.7H6.7
				c-1,0-1.7-0.8-1.7-1.7V7c0-1,0.8-1.7,1.7-1.7h50.9c1,0,1.7,0.8,1.7,1.7V45.6z"/>
			<path id="Path_2802" class="st0" d="M44.4,23.3c1.5-1.6,2.4-3.6,2.7-5.7c-0.7,0.9-3.5,1.4-4.7,1.6c1.3-2.2,1.4-5,0.2-7.3
				c-1.5,2-7.7,3-10.1,3.2c1-1.4,1.7-2.7,1.7-2.7s-1,0.5-7,1.7s-5.8,5.6-5.8,5.6c-0.5-1.6-0.5-3.3-0.2-5c-3.4,2.7-4,6.4-1.8,10
				c-1.4,0-2.8-0.6-3.9-1.6c0.4,2.2,2,3.9,4.1,4.5c0.6,0.2,1.2,0.4,2,0.7c0.4-0.9,1-1.7,1.7-2.4c0.4,0.4,0.9,0.8,1.3,1.2
				c2.2,1.5,4.9,2.3,7.5,2.1c-1.4-0.7-2.5-1.8-3.3-3.2c4.2,2.8,9.1,3.5,12.9,0.9c0.2,0.4,0.4,0.7,0.5,1.1c2.7-1,4.7-3.2,5.6-6
				C46.8,22.6,45.6,23.1,44.4,23.3"/>
			<path id="Path_2803" class="st0" d="M34.8,30.5c-0.5,0-1,0.4-1,1v1.1c-1.3-0.3-2.6-0.3-3.9,0v-1.1c0-0.5-0.4-1-1-1H17.4l0.2,1.9
				c0,0,1.2,0,1.2,0.8v5.5c0,0.5,0.4,1,1,1h9.2c0.5,0,1-0.4,1-1v-3.9c1.3-0.4,2.6-0.4,3.9,0v3.9c0,0.5,0.4,1,1,1H44c0.5,0,1-0.4,1-1
				v-5.5c0-0.9,1.2-0.8,1.2-0.8l0.2-1.9H34.8z M28.2,37.9c0,0.1-0.1,0.2-0.2,0.2c0,0,0,0,0,0h-7.2c-0.1,0-0.2-0.1-0.2-0.2
				c0,0,0,0,0,0v-5.5c0-0.1,0.1-0.2,0.2-0.2h7.2c0.1,0,0.2,0.1,0.2,0.2V37.9z M43.2,37.9c0,0.1-0.1,0.2-0.2,0.2h-7.2
				c-0.1,0-0.2-0.1-0.2-0.2v0v-5.5c0-0.1,0.1-0.2,0.2-0.3c0,0,0,0,0,0H43c0.1,0,0.2,0.1,0.2,0.2L43.2,37.9z"/>
			<path id="Path_2804" class="st0" d="M27.2,35.1c0,0.9-0.8,1.7-1.7,1.7c-0.9,0-1.7-0.8-1.7-1.7c0-0.9,0.8-1.7,1.7-1.7
				C26.4,33.4,27.2,34.2,27.2,35.1C27.2,35.1,27.2,35.1,27.2,35.1"/>
			<path id="Path_2805" class="st0" d="M39.8,35.1c0,0.9-0.8,1.7-1.7,1.7c-0.9,0-1.7-0.8-1.7-1.7c0-0.9,0.8-1.7,1.7-1.7
				C39,33.4,39.8,34.2,39.8,35.1C39.8,35.1,39.8,35.1,39.8,35.1"/>
		</g>
	</g>
</g>
</svg>
