<?xml version="1.0" encoding="UTF-8"?><svg id="Layer_2" xmlns="http://www.w3.org/2000/svg" viewBox="0 0 441.87 446.97"><defs><style>.cls-1{fill:#326262;}</style></defs><g id="doc"><g id="item-4"><path class="cls-1" d="M414.22,133.39L7.53,242.36c-1.06,.28-2.2-.57-2.56-1.9-.36-1.33,.21-2.64,1.27-2.93l406.69-108.97c1.06-.28,2.2,.57,2.56,1.9,.36,1.33-.21,2.64-1.27,2.93h0Z"/><path class="cls-1" d="M434.93,210.66L28.24,319.63c-1.06,.28-2.2-.57-2.56-1.9-.36-1.33,.21-2.64,1.27-2.93l406.69-108.97c1.06-.28,2.2,.57,2.56,1.9,.36,1.33-.21,2.64-1.27,2.93h0Z"/><path class="cls-1" d="M34.13,221.77c1.09-.29,1.84-1.27,1.87-2.39,1.81-80.04,55.92-152.82,137.06-174.56,81.14-21.74,164.39,14.23,205.98,82.64,.59,.96,1.73,1.43,2.82,1.14h0c1.62-.43,2.39-2.31,1.52-3.74C340.66,54.56,255.13,17.59,171.75,39.92,88.38,62.27,32.79,137.05,30.94,219.29c-.04,1.68,1.57,2.92,3.19,2.48h0Z"/><path class="cls-1" d="M407.74,225.19c-1.09,.29-1.84,1.27-1.87,2.39-1.81,80.04-55.92,152.82-137.06,174.56-81.14,21.74-164.39-14.23-205.98-82.64-.59-.96-1.73-1.43-2.82-1.14h0c-1.62,.43-2.39,2.31-1.52,3.74,42.72,70.3,128.25,107.27,211.63,84.93,83.38-22.34,138.96-97.12,140.81-179.37,.04-1.68-1.57-2.92-3.19-2.48h0Z"/><path class="cls-1" d="M14.15,213.3l-9.23,10.62c-1.94,2.23,.18,5.63,3.04,4.87l15.73-4.22c1.31-.35,2.2-1.53,2.22-2.88,.74-85.44,58-163.37,144.56-186.56,86.56-23.19,175.11,15.66,218.47,89.29,.69,1.17,2.05,1.74,3.36,1.39l12.99-3.48c2.84-.76,3-4.73,.23-5.72l-9.33-3.33c-1.28-.46-2.1-1.73-1.98-3.09l2.14-24.44c.14-1.6-1-3.02-2.59-3.24l-24.32-3.26c-1.35-.18-2.41-1.25-2.58-2.61l-2.99-24.35c-.2-1.59-1.61-2.75-3.2-2.63l-24.47,1.86c-1.36,.1-2.62-.72-3.06-2.01l-7.99-23.2c-.52-1.52-2.14-2.35-3.68-1.9l-23.54,6.91c-1.31,.38-2.71-.16-3.42-1.33l-12.63-21.03c-.83-1.37-2.59-1.86-4-1.1l-21.59,11.65c-1.2,.65-2.69,.4-3.62-.59L235.95,.95c-1.09-1.17-2.92-1.28-4.14-.24l-18.7,15.89c-1.04,.88-2.55,.95-3.66,.17l-20.1-14.07c-1.31-.92-3.12-.64-4.1,.62l-14.99,19.43c-.83,1.08-2.29,1.46-3.55,.93l-22.58-9.59c-1.48-.63-3.18,.02-3.88,1.46l-10.62,22.12c-.59,1.23-1.94,1.91-3.28,1.65l-24.08-4.68c-1.57-.31-3.11,.68-3.49,2.24l-5.79,23.84c-.32,1.33-1.5,2.27-2.86,2.29l-24.53,.43c-1.6,.03-2.9,1.31-2.95,2.91l-.71,24.52c-.04,1.36-.99,2.53-2.32,2.84l-23.91,5.52c-1.56,.36-2.56,1.89-2.28,3.46l4.41,24.14c.25,1.34-.45,2.68-1.68,3.26l-22.24,10.37c-1.45,.68-2.12,2.38-1.51,3.86l9.33,22.69c.52,1.26,.12,2.72-.97,3.54L1.19,185.29c-1.28,.97-1.58,2.76-.67,4.09l13.84,20.26c.77,1.13,.68,2.63-.21,3.66h0Z"/><path class="cls-1" d="M427.72,233.67l9.23-10.62c1.94-2.23-.18-5.63-3.04-4.87l-15.73,4.22c-1.31,.35-2.2,1.53-2.22,2.88-.74,85.44-58,163.37-144.56,186.56-86.56,23.19-175.11-15.66-218.47-89.29-.69-1.17-2.05-1.74-3.36-1.39l-12.99,3.48c-2.84,.76-3,4.74-.23,5.72l9.33,3.33c1.29,.46,2.1,1.73,1.98,3.09l-2.14,24.44c-.14,1.6,1,3.02,2.59,3.24l24.32,3.26c1.35,.18,2.41,1.25,2.58,2.61l2.99,24.35c.19,1.59,1.61,2.75,3.21,2.63l24.46-1.86c1.36-.1,2.62,.72,3.06,2.01l7.99,23.2c.52,1.51,2.14,2.35,3.68,1.9l23.54-6.91c1.31-.39,2.71,.16,3.42,1.33l12.63,21.03c.83,1.37,2.59,1.86,4,1.1l21.59-11.65c1.2-.65,2.69-.4,3.62,.59l16.73,17.94c1.09,1.17,2.92,1.28,4.14,.24l18.7-15.89c1.04-.88,2.55-.95,3.66-.17l20.1,14.07c1.31,.92,3.12,.65,4.1-.62l14.99-19.43c.83-1.08,2.29-1.46,3.55-.93l22.58,9.59c1.48,.63,3.18-.02,3.88-1.46l10.62-22.12c.59-1.23,1.94-1.91,3.28-1.65l24.08,4.68c1.57,.31,3.11-.68,3.49-2.24l5.79-23.84c.32-1.33,1.5-2.27,2.86-2.29l24.53-.43c1.6-.03,2.9-1.31,2.95-2.91l.71-24.52c.04-1.36,.99-2.53,2.32-2.84l23.91-5.52c1.56-.36,2.57-1.89,2.28-3.46l-4.41-24.14c-.25-1.34,.45-2.68,1.68-3.26l22.24-10.37c1.45-.68,2.12-2.38,1.51-3.86l-9.33-22.69c-.52-1.26-.12-2.71,.97-3.54l19.6-14.76c1.28-.97,1.58-2.77,.67-4.09l-13.84-20.26c-.77-1.13-.68-2.63,.21-3.66h0Z"/><polygon class="cls-1" points="43.51 199.37 50.31 197.32 52.01 190.45 56.04 196.27 63.1 195.79 58.82 201.43 61.47 207.96 54.79 205.64 49.34 210.18 49.52 203.11 43.51 199.37 43.51 199.37"/><path class="cls-1" d="M64.45,160.03l-.95,2.33-6.91-2.82,.95-2.33c.79-1.94,2.9-2.71,4.82-1.93,1.94,.79,2.89,2.81,2.1,4.75h0Zm7.82-3.06l-5.07,.25c-.42-2.02-1.81-3.76-3.78-4.56-3.12-1.28-6.84,.32-8.22,3.43l-2.71,6.7,2.39,.97,.63-1.56,12.59,5.12-.63,1.56,2.39,.97,2.35-5.8-2.39-.97-.64,1.58-3.28-1.34,1.02-2.49-.02-.07c.09-.19,.15-.4,.19-.5l6.85-.65h.06l1.28-3.26-2.39-.97-.65,1.56h.02Z"/><polygon class="cls-1" points="67.8 135.6 65.57 134.45 59.37 146.24 61.62 147.41 62.46 145.83 74.58 152.19 73.71 153.83 75.96 155.02 82.2 143.22 79.9 142.01 75.92 149.61 71.12 147.1 74.24 141.15 71.99 139.98 68.87 145.93 63.81 143.26 67.82 135.62 67.8 135.6 67.8 135.6"/><polygon class="cls-1" points="84.76 110.48 82.64 109 79.02 114.21 81.17 115.71 82.12 114.37 87.46 122.8 87.65 122.53 77.86 120.48 78.97 118.9 76.82 117.4 73.19 122.64 75.34 124.14 76.43 122.56 81.77 131.01 81.96 130.74 72.19 128.68 73.12 127.35 70.97 125.85 67.35 131.05 69.5 132.55 70.42 131.23 84.6 134.34 83.14 136.44 85.32 137.95 89.52 131.89 87.34 130.38 86.05 132.24 80.53 123.67 80.34 123.94 90.3 126.11 88.92 128.11 91.1 129.62 95.31 123.54 93.13 122.03 91.74 124.05 83.89 111.8 84.79 110.49 84.76 110.48 84.76 110.48"/><path class="cls-1" d="M96.26,111.52l-2.78-6.52-.24,.25,6.64,2.33-3.64,3.92v.04h.01Zm10.93-4.52l-14.17-5.1,1.15-1.25-1.84-1.68-5.2,5.6,1.84,1.68,1.21-1.27,6.05,13.78-.98,1.07,1.84,1.7,4.11-4.42-1.84-1.7-.97,1.05-1.02-2.45,5.14-5.53,2.47,.87-.97,1.04,1.84,1.7,4.16-4.48-1.84-1.7-1,1.07h.02Z"/><path class="cls-1" d="M111.05,95.33l-1.93,1.65-4.84-5.67,1.93-1.65c1.57-1.35,3.82-1.08,5.14,.48,1.38,1.6,1.27,3.85-.3,5.19h0Zm8.35,.88l-4.63-2.1c.56-1.98,.11-4.18-1.27-5.8-2.18-2.56-6.2-2.85-8.85-.71l-5.51,4.7,1.67,1.97,1.29-1.11,8.82,10.32-1.29,1.11,1.67,1.97,4.77-4.07-1.67-1.97-1.31,1.12-2.31-2.68,2.06-1.76,.05-.05c.15-.12,.3-.3,.39-.36l6.36,2.56,.07,.04,2.62-2.31-1.69-1.96-1.28,1.09,.03,.03h0Z"/><path class="cls-1" d="M127.66,90.11l-1.73,1.19-7.59-11.05,1.74-1.19c3.06-2.09,7.1-1.22,9.19,1.84,2.1,3.04,1.46,7.12-1.6,9.21h0Zm-9.01-13.35l-5.9,4.06,1.52,2.23,1.62-1.1,7.59,11.05-1.62,1.1,1.52,2.21,5.9-4.06c4.23-2.94,5.37-8.81,2.45-13.04-2.91-4.23-8.81-5.29-13.08-2.45h0Z"/><path class="cls-1" d="M138.32,73.79c-.31,.14-.75,.36-1.18,.48-1.56,.64-2.63,.4-3.34-.9-.69-1.24-.37-2.82,.88-3.56,.12-.07,.19-.11,.31-.18,.82-.4,1.46-.49,2.18-.44l1.01,1.82,2.56-1.41-1.46-2.65c-1.66-.72-3.88-.45-5.52,.45-.12,.07-.22,.14-.31,.19-2.49,1.37-3.43,4.7-2.08,7.12,1.37,2.49,4.42,2.66,7,1.79,.41-.13,.74-.3,1.17-.45,1.85-.7,3.28-.66,4.19,.97,.91,1.65,.4,3.44-1.22,4.37-.15,.1-.33,.19-.63,.35-1.23,.61-2.18,.64-3.03,.49l-.89-1.59-2.59,1.44,1.23,2.21,.09-.04c1.74,.86,4.29,.66,6.31-.44,.4-.23,.1-.07,.65-.37,2.72-1.49,3.88-4.9,2.36-7.66-1.51-2.72-4.66-3.2-7.67-1.97h0Z"/><polygon class="cls-1" points="174.04 50.91 178.53 56.39 185.53 55.32 181.72 61.29 184.88 67.61 178.04 65.82 173.01 70.79 172.59 63.74 166.3 60.47 172.89 57.9 174.04 50.91 174.04 50.91"/><path class="cls-1" d="M218.41,55.04l-2.53,.03-.06-7.45,2.53-.03c2.09-.02,3.6,1.63,3.62,3.68,.02,2.11-1.47,3.76-3.56,3.77h0Zm5.81,6.05l-2.17-4.57c1.68-1.15,2.78-3.14,2.76-5.27-.03-3.35-2.94-6.18-6.32-6.24l-7.25,.07,.02,2.57h1.71l.11,13.56h-1.71l.03,2.6,6.27-.05-.03-2.59h-1.71l-.02-3.52,2.71-.04,.06-.02c.18,.01,.44-.02,.54-.02l3.22,6.06,.02,.07,3.52-.1-.03-2.59h-1.71v.06h0Z"/><polygon class="cls-1" points="242.22 48.73 242.44 46.22 229.16 45.05 228.93 47.59 230.73 47.75 229.53 61.38 227.67 61.21 227.44 63.75 240.75 64.95 240.97 62.38 232.41 61.63 232.9 56.23 239.6 56.81 239.81 54.29 233.11 53.71 233.61 48 242.21 48.76 242.22 48.73 242.22 48.73"/><polygon class="cls-1" points="271.94 54.72 272.48 52.18 266.27 50.87 265.73 53.43 267.33 53.76 261.61 61.94 261.93 62.02 260.05 52.21 261.93 52.61 262.47 50.05 256.26 48.72 255.72 51.28 257.57 51.67 251.85 59.85 252.17 59.92 250.29 50.12 251.89 50.45 252.43 47.89 246.24 46.57 245.7 49.13 247.25 49.46 249.86 63.76 247.36 63.22 246.8 65.81 254 67.34 254.55 64.76 252.34 64.3 258.15 55.86 257.83 55.79 259.64 65.85 257.27 65.36 256.72 67.94 263.94 69.49 264.49 66.91 262.1 66.38 270.39 54.42 271.94 54.74 271.94 54.72 271.94 54.72"/><path class="cls-1" d="M275.42,65.72l4.94-5.07-.31-.12,.43,7.01-5.03-1.85-.03,.03h0Zm8.37,8.33l-.77-15.03,1.61,.6,.84-2.34-7.17-2.65-.84,2.34,1.65,.6-10.38,10.92-1.38-.5-.86,2.34,5.68,2.1,.86-2.35-1.33-.51,1.85-1.9,7.08,2.61,.17,2.65-1.34-.49-.86,2.35,5.71,2.09,.86-2.34-1.38-.5h0Z"/><path class="cls-1" d="M296.05,73.11l-2.25-1.13,3.35-6.64,2.26,1.13c1.86,.95,2.46,3.11,1.54,4.94-.94,1.88-3.03,2.65-4.9,1.7h0Zm2.38,8.06l.15-5.07c2.07-.25,3.92-1.51,4.89-3.4,1.51-3,.22-6.84-2.75-8.44l-6.45-3.26-1.17,2.31,1.49,.77-6.12,12.11-1.49-.77-1.17,2.31,5.57,2.82,1.17-2.31-1.51-.76,1.59-3.16,2.4,1.21,.09,.02c.17,.1,.39,.2,.48,.23l.09,6.86-.02,.07,3.15,1.53,1.17-2.31-1.51-.76-.03,.03h0Z"/><path class="cls-1" d="M307.29,86.45l-1.77-1.14,7.25-11.26,1.77,1.14c3.12,2.02,3.86,6.07,1.84,9.19-1.99,3.11-5.97,4.09-9.09,2.07h0Zm8.82-13.46l-6.03-3.88-1.47,2.27,1.66,1.07-7.25,11.26-1.66-1.07-1.47,2.26,6.03,3.88c4.33,2.72,10.18,1.54,12.96-2.79,2.79-4.31,1.48-10.16-2.78-13.01h0Z"/><path class="cls-1" d="M326.44,90c-.24-.22-.62-.58-.91-.91-1.19-1.19-1.37-2.27-.45-3.42,.89-1.12,2.47-1.47,3.63-.57,.12,.09,.19,.13,.3,.22,.66,.59,1,1.16,1.23,1.82l-1.29,1.65,2.31,1.84,1.88-2.38c0-1.81-1.11-3.75-2.56-4.91-.11-.09-.23-.16-.3-.22-2.23-1.78-5.64-1.37-7.37,.81-1.76,2.22-.74,5.11,1.06,7.17,.3,.3,.59,.57,.88,.89,1.33,1.43,1.85,2.78,.69,4.24-1.16,1.46-3.01,1.69-4.5,.56-.15-.1-.3-.22-.56-.45-1.03-.91-1.42-1.77-1.62-2.59l1.15-1.43-2.33-1.85-1.57,1.97,.08,.06c-.1,1.94,1.05,4.23,2.85,5.66,.36,.29,.1,.05,.58,.45,2.43,1.93,6.02,1.67,7.96-.78,1.95-2.43,1.16-5.52-1.13-7.83h0Z"/><polygon class="cls-1" points="361.32 114.11 357.99 120.38 361.69 126.43 354.7 125.22 350.09 130.57 349.1 123.56 342.59 120.84 348.93 117.73 349.51 110.67 354.44 115.75 361.32 114.11 361.32 114.11"/><polygon class="cls-1" points="396.92 246.7 390.13 248.72 388.43 255.6 384.38 249.78 377.32 250.27 381.61 244.65 378.97 238.09 385.63 240.41 391.08 235.87 390.92 242.94 396.92 246.7 396.92 246.7"/><path class="cls-1" d="M375.99,286.03l.95-2.33,6.91,2.8-.95,2.33c-.79,1.94-2.89,2.73-4.81,1.95-1.94-.79-2.89-2.81-2.1-4.75h0Zm-7.82,3.06l5.09-.26c.42,2,1.81,3.76,3.76,4.57,3.12,1.26,6.85-.35,8.22-3.45l2.71-6.71-2.39-.97-.63,1.56-12.58-5.1,.63-1.56-2.39-.97-2.35,5.8,2.4,.97,.64-1.58,3.28,1.34-1.02,2.51v.06c-.06,.18-.14,.4-.17,.49l-6.85,.65h-.06l-1.27,3.28,2.39,.97,.64-1.58h-.02Z"/><polygon class="cls-1" points="372.65 310.46 374.87 311.63 381.07 299.83 378.85 298.65 378 300.23 365.86 293.86 366.73 292.21 364.48 291.04 358.24 302.84 360.54 304.04 364.52 296.43 369.33 298.97 366.21 304.92 368.45 306.09 371.57 300.14 376.65 302.8 372.65 310.46 372.65 310.46"/><polygon class="cls-1" points="355.68 335.57 357.83 337.07 361.45 331.85 359.28 330.36 358.35 331.71 353.01 323.26 352.82 323.53 362.59 325.58 361.48 327.17 363.65 328.66 367.28 323.42 365.11 321.93 364.02 323.51 358.7 315.07 358.52 315.34 368.26 317.38 367.34 318.74 369.51 320.23 373.12 315.01 370.95 313.52 370.03 314.83 355.85 311.73 357.31 309.63 355.13 308.12 350.95 314.17 353.13 315.68 354.4 313.83 359.94 322.41 360.13 322.14 350.15 319.96 351.53 317.96 349.35 316.45 345.16 322.52 347.33 324.03 348.72 322.01 356.58 334.26 355.66 335.57 355.68 335.57 355.68 335.57"/><path class="cls-1" d="M344.2,334.57l2.77,6.5,.24-.24-6.64-2.33,3.64-3.92v-.02h0Zm-10.93,4.5l14.2,5.07-1.17,1.26,1.83,1.7,5.2-5.6-1.83-1.71-1.18,1.28-6.09-13.77,.98-1.07-1.84-1.7-4.11,4.42,1.84,1.7,.97-1.03,1.03,2.42-5.12,5.52-2.51-.86,.97-1.02-1.84-1.7-4.14,4.45,1.84,1.7,.98-1.07h-.03Z"/><path class="cls-1" d="M329.42,350.74l1.93-1.65,4.84,5.67-1.93,1.65c-1.57,1.35-3.8,1.08-5.15-.49-1.37-1.59-1.27-3.83,.3-5.18h0Zm-8.35-.88l4.65,2.1c-.58,1.99-.12,4.2,1.25,5.8,2.2,2.57,6.2,2.85,8.87,.73l5.5-4.72-1.69-1.96-1.29,1.11-8.82-10.32,1.29-1.11-1.68-1.97-4.76,4.08,1.67,1.97,1.31-1.12,2.31,2.68-2.06,1.76-.03,.05c-.14,.14-.32,.31-.4,.37l-6.36-2.54-.08-.06-2.62,2.33,1.69,1.96,1.27-1.11-.03-.03h0Z"/><path class="cls-1" d="M312.81,355.97l1.73-1.19,7.59,11.03-1.74,1.19c-3.06,2.11-7.08,1.23-9.18-1.83-2.1-3.04-1.46-7.1,1.6-9.2h0Zm9.03,13.32l5.9-4.06-1.54-2.22-1.62,1.1-7.58-11.03,1.62-1.1-1.52-2.21-5.9,4.06c-4.22,2.94-5.36,8.82-2.44,13.06,2.91,4.23,8.8,5.27,13.09,2.41h0Z"/><path class="cls-1" d="M302.15,372.3c.3-.14,.77-.35,1.18-.48,1.57-.62,2.63-.4,3.35,.87,.7,1.26,.38,2.84-.89,3.58-.12,.07-.19,.11-.31,.19-.8,.39-1.43,.5-2.18,.44l-1.01-1.82-2.56,1.43,1.47,2.65c1.64,.71,3.87,.41,5.51-.49,.12-.07,.25-.13,.31-.19,2.49-1.37,3.42-4.68,2.08-7.12-1.39-2.47-4.43-2.64-7.02-1.76-.4,.15-.74,.3-1.17,.45-1.85,.7-3.27,.65-4.18-.97-.91-1.65-.38-3.44,1.22-4.37,.16-.08,.33-.19,.63-.35,1.23-.61,2.18-.65,3.03-.49l.89,1.59,2.59-1.44-1.24-2.21-.09,.05c-1.74-.86-4.28-.66-6.3,.46-.41,.21-.11,.05-.65,.35-2.72,1.49-3.88,4.92-2.35,7.68,1.51,2.72,4.66,3.18,7.67,1.95h0Z"/><polygon class="cls-1" points="266.46 395.19 261.95 389.71 254.95 390.8 258.77 384.81 255.61 378.51 262.44 380.28 267.47 375.31 267.89 382.36 274.18 385.63 267.59 388.2 266.46 395.19 266.46 395.19"/><path class="cls-1" d="M222.08,391.08l2.53-.03,.08,7.45-2.53,.03c-2.09,.02-3.62-1.63-3.64-3.67-.02-2.11,1.47-3.76,3.56-3.77h0Zm-5.83-6.05l2.21,4.58c-1.7,1.16-2.8,3.15-2.79,5.28,.03,3.35,2.96,6.15,6.36,6.23l7.25-.07-.03-2.59h-1.71l-.13-13.56h1.71l-.03-2.6-6.26,.07,.03,2.59,1.7-.03,.02,3.54-2.71,.04h-.06c-.18,.02-.44,.03-.54,.04l-3.23-6.06-.02-.08-3.5,.09,.03,2.59h1.69v-.05h0Z"/><polygon class="cls-1" points="198.28 397.39 198.05 399.9 211.33 401.08 211.56 398.56 209.77 398.4 210.96 384.75 212.82 384.92 213.04 382.38 199.74 381.17 199.52 383.75 208.07 384.5 207.59 389.9 200.89 389.32 200.68 391.83 207.38 392.41 206.88 398.14 198.28 397.39 198.28 397.39"/><polygon class="cls-1" points="168.55 391.41 168 393.97 174.2 395.31 174.74 392.73 173.15 392.37 178.89 384.19 178.57 384.13 180.44 393.94 178.54 393.54 178 396.12 184.23 397.43 184.77 394.85 182.89 394.47 188.65 386.28 188.31 386.21 190.19 396.02 188.59 395.68 188.06 398.26 194.25 399.58 194.79 397 193.23 396.67 190.63 382.37 193.12 382.91 193.68 380.32 186.48 378.79 185.93 381.38 188.15 381.85 182.35 390.27 182.67 390.34 180.84 380.28 183.22 380.79 183.77 378.21 176.53 376.67 175.98 379.25 178.39 379.75 170.1 391.74 168.54 391.39 168.55 391.41 168.55 391.41"/><path class="cls-1" d="M165.04,380.43l-4.94,5.07,.31,.12-.41-7,5.02,1.84v-.02h.01Zm-8.36-8.31l.8,15.01-1.6-.58-.86,2.34,7.17,2.63,.86-2.34-1.65-.6,10.36-10.91,1.38,.49,.86-2.34-5.69-2.08-.86,2.35,1.34,.49-1.85,1.9-7.08-2.61-.16-2.64,1.34,.49,.86-2.35-5.72-2.11-.86,2.34,1.37,.52h0Z"/><path class="cls-1" d="M144.42,373.04l2.26,1.13-3.36,6.64-2.26-1.13c-1.86-.95-2.46-3.1-1.55-4.94,.95-1.86,3.04-2.65,4.9-1.7h0Zm-2.38-8.06l-.16,5.1c-2.05,.25-3.93,1.5-4.89,3.38-1.51,3-.2,6.84,2.77,8.46l6.45,3.26,1.17-2.33-1.49-.77,6.12-12.11,1.49,.77,1.17-2.31-5.58-2.81-1.17,2.31,1.53,.76-1.59,3.16-2.42-1.21h-.06c-.17-.1-.4-.22-.49-.25l-.09-6.86,.02-.07-3.15-1.53-1.17,2.31,1.51,.76,.03-.03h0Z"/><path class="cls-1" d="M133.21,359.71l1.77,1.13-7.27,11.27-1.77-1.14c-3.12-2.02-3.86-6.07-1.84-9.19,1.99-3.11,5.99-4.1,9.11-2.08h0Zm-8.83,13.46l6.01,3.88,1.47-2.26-1.64-1.07,7.27-11.27,1.64,1.07,1.45-2.26-6.01-3.88c-4.33-2.73-10.19-1.53-12.98,2.79-2.79,4.31-1.47,10.16,2.8,13h0Z"/><path class="cls-1" d="M114.03,356.17c.24,.24,.62,.58,.89,.91,1.2,1.19,1.39,2.26,.47,3.42-.89,1.12-2.47,1.47-3.63,.57-.1-.09-.18-.13-.28-.23-.68-.58-1.01-1.14-1.25-1.82l1.31-1.66-2.3-1.82-1.9,2.38c0,1.79,1.1,3.75,2.56,4.91,.11,.09,.21,.17,.28,.23,2.25,1.77,5.65,1.34,7.39-.83,1.76-2.22,.74-5.11-1.07-7.14-.29-.33-.57-.57-.87-.92-1.33-1.43-1.87-2.78-.71-4.24,1.16-1.46,3.03-1.7,4.52-.57,.15,.1,.3,.22,.56,.45,1.03,.91,1.42,1.77,1.62,2.61l-1.14,1.45,2.32,1.83,1.56-1.99-.08-.06c.1-1.94-1.05-4.23-2.84-5.64-.36-.31-.1-.07-.59-.47-2.43-1.92-6.02-1.67-7.96,.79-1.93,2.43-1.16,5.52,1.13,7.83h0Z"/><polygon class="cls-1" points="79.14 332.07 82.45 325.81 78.77 319.75 85.76 320.97 90.35 315.62 91.34 322.62 97.87 325.34 91.53 328.45 90.95 335.51 86.02 330.43 79.14 332.07 79.14 332.07"/><path class="cls-1" d="M96.64,257.41l-6.22,1.67-4.64-17.32,6.22-1.66c4.77-1.28,9.71,1.52,10.99,6.31,1.29,4.83-1.58,9.72-6.35,11h0Zm16.74,10.55l-7.85-9.31c3.38-3.78,4.58-8.92,3.27-13.8-2.08-7.78-10.1-12.59-18.03-10.71l-16.32,4.37,1.57,5.86,3.91-1.05,8.43,31.46-3.91,1.05,1.57,5.86,13.73-3.68-1.57-5.86-3.96,1.06-2.22-8.28,6.44-1.73,.1-.09c.64-.17,1.19-.38,1.7-.57l11.1,12.18,.09,.1,7.46-2.06-1.57-5.86-3.93,1.05h0Z"/><polygon class="cls-1" points="143.17 226.14 141.63 220.39 111.61 228.43 113.15 234.18 117.29 233.07 125.79 264.82 121.49 265.97 123.03 271.72 153.16 263.71 151.6 257.9 131.71 263.23 128.32 250.57 143.91 246.39 142.37 240.65 126.78 244.82 123.2 231.49 143.17 226.14 143.17 226.14"/><polygon class="cls-1" points="208.7 208.96 207.11 203.03 193.19 206.76 194.78 212.69 198.63 211.66 195.31 235.4 180.58 216.5 185.07 215.29 183.48 209.36 169.56 213.09 171.15 219.02 175.56 217.84 172.26 241.57 157.51 222.68 161.36 221.65 159.77 215.71 145.87 219.43 147.46 225.37 151.14 224.38 172.36 252.1 166.39 253.7 167.99 259.67 184.25 255.31 182.65 249.34 177.36 250.76 180.57 226.4 195.48 245.9 189.79 247.43 191.39 253.4 207.72 249.03 206.11 243.05 200.42 244.58 205.02 209.95 208.7 208.96 208.7 208.96"/><path class="cls-1" d="M224.93,226.17l2.68-16.74,10.56,13.2-13.24,3.55h0Zm27.9,4.72l-22.39-28.33,4.02-1.08-1.51-5.63-16.89,4.52,1.51,5.63,4.08-1.09-5.23,35.73-3.32,.89,1.52,5.69,13.22-3.54-1.52-5.69-3.34,.9,1.01-6.37,18.16-4.87,4.06,5.01-3.35,.9,1.53,5.69,13.28-3.56-1.52-5.69-3.32,.89h0Z"/><path class="cls-1" d="M272.92,210.17l-6.22,1.67-4.64-17.32,6.22-1.66c4.77-1.28,9.71,1.52,10.99,6.31,1.29,4.83-1.58,9.72-6.35,11h0Zm16.74,10.55l-7.85-9.31c3.38-3.78,4.58-8.92,3.27-13.8-2.08-7.78-10.1-12.59-18.03-10.71l-16.32,4.37,1.57,5.86,3.91-1.05,8.43,31.46-3.91,1.05,1.57,5.86,13.73-3.68-1.57-5.86-3.96,1.06-2.22-8.28,6.44-1.73,.1-.09c.64-.17,1.19-.38,1.7-.58l11.1,12.18,.09,.1,7.46-2.06-1.57-5.86-3.93,1.05h0Z"/><path class="cls-1" d="M313.07,214.39l-5.18,1.39-8.32-31.05,5.18-1.39c8.56-2.3,17.38,2.79,19.67,11.36,2.3,8.57-2.79,17.4-11.35,19.69h0Zm-9.69-37.28l-16.15,4.33,1.65,6.16,4.55-1.22,8.32,31.05-4.55,1.22,1.63,6.09,16.15-4.33c11.82-3.29,18.79-15.44,15.6-27.35-3.17-11.83-15.3-18.95-27.2-15.94h0Z"/><path class="cls-1" d="M347.22,184.71c-.82,.16-1.98,.41-3.02,.45-3.98,.56-6.67-.55-7.58-3.95-.89-3.34,1.02-6.94,4.39-7.96,.34-.09,.52-.14,.86-.23,2.1-.44,3.91-.36,5.73,.2l1.28,4.77,6.03-1.62-1.89-7.06c-3.31-2.45-8.35-3.14-12.67-1.98-.34,.09-.64,.17-.86,.23-6.56,1.76-10.28,8.74-8.56,15.18,1.76,6.55,8.3,8.75,14.81,8.17,1.02-.09,1.96-.28,2.98-.38,4.67-.51,8.41,.34,9.56,4.66,1.15,4.3-1.43,8.4-5.74,9.61-.4,.11-.86,.23-1.67,.45-3.21,.66-5.65,.26-7.69-.66l-1.09-4.08-6.1,1.64,1.53,5.69,.13-.03c3.56,2.97,9.29,4.1,14.57,2.68,1.09-.29,.3-.08,1.73-.46,7.2-1.93,11.52-9.01,9.58-16.24-1.93-7.19-8.64-10.15-16.3-9.08h0Z"/></g></g></svg>