<svg id="LOGO" xmlns="http://www.w3.org/2000/svg" xmlns:xlink="http://www.w3.org/1999/xlink" width="120" height="40.728" viewBox="0 0 120 40.728">
  <defs>
    <clipPath id="clip-path">
      <rect id="Rectangle_501" data-name="Rectangle 501" width="120" height="40.728"/>
    </clipPath>
  </defs>
  <g id="LOGO-2" data-name="LOGO" clip-path="url(#clip-path)">
    <path id="Path_2797" d="M77.021,34.257A1.561,1.561,0,0,1,75.3,32.941V19.081c0-1.161.548-1.7,1.643-1.7s1.643.542,1.643,1.7V20.32a5.451,5.451,0,0,1,2.347-2.245,7.064,7.064,0,0,1,3.286-.774c3.911,0,5.867,2.168,5.867,6.581v8.672a1.721,1.721,0,0,1-3.442,0v-8.44a4.92,4.92,0,0,0-.86-3.1A3.323,3.323,0,0,0,83.2,20.01a4.069,4.069,0,0,0-3.286,1.316,4.63,4.63,0,0,0-1.252,3.407v7.82a1.458,1.458,0,0,1-1.33,1.7.24.24,0,0,1-.313,0" transform="translate(-16.395 -3.905)" fill="#474949"/>
    <path id="Path_2798" d="M105.156,34.333a8.825,8.825,0,0,1-6.415-2.245,8.046,8.046,0,0,1-2.347-6.194A9.939,9.939,0,0,1,97.412,21.4a7.208,7.208,0,0,1,2.894-3.02,8.782,8.782,0,0,1,4.224-1.084,7.066,7.066,0,0,1,5.4,2.168,8.35,8.35,0,0,1,1.956,5.962c0,.774-.469,1.161-1.33,1.161H99.68c.235,3.407,2.112,5.11,5.476,5.11a9.806,9.806,0,0,0,2.112-.232,6.035,6.035,0,0,0,2.19-.929,2.314,2.314,0,0,1,1.252-.31,1.434,1.434,0,0,1,.782.542,1.5,1.5,0,0,1,.078,1.007,1.555,1.555,0,0,1-.782.929,8.581,8.581,0,0,1-2.738,1.161,8.72,8.72,0,0,1-2.894.465M104.687,19.7a4.5,4.5,0,0,0-3.442,1.316A6.466,6.466,0,0,0,99.68,24.5h9.309a5.366,5.366,0,0,0-1.252-3.562,3.774,3.774,0,0,0-3.051-1.239" transform="translate(-20.984 -3.903)" fill="#474949"/>
    <path id="Path_2799" d="M120.821,34.255a1.467,1.467,0,0,1-1.721-1.316V19.078c0-1.161.548-1.7,1.643-1.7s1.643.542,1.643,1.7V20.55a4.944,4.944,0,0,1,2.034-2.323,7.3,7.3,0,0,1,3.364-.929c.86-.077,1.33.387,1.33,1.316.078,1.007-.391,1.549-1.486,1.626l-.626.077c-3.051.31-4.537,1.858-4.537,4.646v7.588a1.458,1.458,0,0,1-1.33,1.7.24.24,0,0,1-.313,0" transform="translate(-25.932 -3.902)" fill="#474949"/>
    <path id="Path_2800" d="M139.851,32.664a7.469,7.469,0,0,1-3.833-1.007,7.248,7.248,0,0,1-2.581-2.942,11.376,11.376,0,0,1-.939-4.568,10.412,10.412,0,0,1,.939-4.568,6.324,6.324,0,0,1,2.581-2.942,7.55,7.55,0,0,1,3.833-1.084,7.156,7.156,0,0,1,3.364.774,4.918,4.918,0,0,1,2.19,2.168V11.6a1.721,1.721,0,0,1,3.442,0h0v19.28a1.682,1.682,0,0,1-3.364.077V29.567a5.522,5.522,0,0,1-2.19,2.245,6.873,6.873,0,0,1-3.442.852m.939-2.633a4.242,4.242,0,0,0,3.442-1.549,6.728,6.728,0,0,0,1.33-4.413,6.239,6.239,0,0,0-1.33-4.336,4.711,4.711,0,0,0-6.571-.31l-.313.31a6.649,6.649,0,0,0-1.33,4.336,6.556,6.556,0,0,0,1.33,4.413,4.028,4.028,0,0,0,3.442,1.549" transform="translate(-28.847 -2.235)" fill="#474949"/>
    <path id="Path_2801" d="M45.841,0H4.381A4.368,4.368,0,0,0,0,4.413H0V36.392a4.37,4.37,0,0,0,4.459,4.336h41.46a4.434,4.434,0,0,0,4.459-4.413h0V4.413A4.5,4.5,0,0,0,45.841,0h0m.548,35.308a1.312,1.312,0,0,1-1.33,1.316H5.241a1.312,1.312,0,0,1-1.33-1.316V5.42A1.312,1.312,0,0,1,5.241,4.1H45.059a1.312,1.312,0,0,1,1.33,1.316V35.308Z" fill="#326260"/>
    <path id="Path_2802" d="M38.108,20.727a8.06,8.06,0,0,0,2.112-4.413c-.548.7-2.738,1.084-3.677,1.239A5.813,5.813,0,0,0,36.7,11.9c-1.173,1.549-6.023,2.323-7.9,2.478a21.912,21.912,0,0,0,1.33-2.091A32.563,32.563,0,0,1,24.653,13.6c-4.694.929-4.537,4.336-4.537,4.336a8.08,8.08,0,0,1-.156-3.871,5.487,5.487,0,0,0-1.408,7.743A4.636,4.636,0,0,1,15.5,20.572a4.454,4.454,0,0,0,3.207,3.484c.469.155.939.31,1.565.542A6.248,6.248,0,0,1,21.6,22.74c.313.31.7.619,1.017.929A9.391,9.391,0,0,0,28.486,25.3,6.094,6.094,0,0,1,25.9,22.817c3.286,2.168,7.119,2.71,10.091.7a4.129,4.129,0,0,1,.391.852,7.233,7.233,0,0,0,4.381-4.646,7.877,7.877,0,0,1-2.66,1.007" transform="translate(-3.375 -2.686)" fill="#326260"/>
    <path id="Path_2803" d="M31.011,30.5a.78.78,0,0,0-.782.774v.852a6.765,6.765,0,0,0-3.051,0v-.852A.78.78,0,0,0,26.4,30.5h-9l.156,1.471s.939,0,.939.619v4.259a.78.78,0,0,0,.782.774h7.2a.78.78,0,0,0,.782-.774v-3.02a5.125,5.125,0,0,1,3.051,0v3.02a.78.78,0,0,0,.782.774h7.119a.78.78,0,0,0,.782-.774V32.591c0-.7.939-.619.939-.619l.156-1.471H31.011Zm-5.163,5.73a.167.167,0,0,1-.156.155H20.06a.167.167,0,0,1-.156-.155h0V31.971a.167.167,0,0,1,.156-.155h5.632a.167.167,0,0,1,.156.155Zm11.734,0a.167.167,0,0,1-.156.155H31.794a.167.167,0,0,1-.156-.155h0V31.971c0-.077.078-.155.156-.232h5.632a.167.167,0,0,1,.156.155Z" transform="translate(-3.789 -6.884)" fill="#326260"/>
    <path id="Path_2804" d="M26.46,34.716A1.33,1.33,0,1,1,25.13,33.4a1.364,1.364,0,0,1,1.33,1.316h0" transform="translate(-5.182 -7.539)" fill="#326260"/>
    <path id="Path_2805" d="M39.06,34.716A1.33,1.33,0,1,1,37.73,33.4a1.364,1.364,0,0,1,1.33,1.316h0" transform="translate(-7.925 -7.539)" fill="#326260"/>
  </g>
</svg>
