<svg xmlns="http://www.w3.org/2000/svg" viewBox="0 0 459.55 429.03"><defs><style>.cls-1{fill:#e0e0e0;}.cls-2{fill:#fff;}.cls-3{fill:none;stroke:#e0e0e0;stroke-miterlimit:10;}.cls-4{fill:#263238;}.cls-5{fill:#326260;}.cls-6{fill:#b56760;}.cls-7{fill:#8a4a43;}.cls-8{fill:#c17560;}.cls-9{fill:#7c4236;}.cls-10{fill:#fafafa;}.cls-11{opacity:0.3;}.cls-12{fill:#ffbf9d;}.cls-13{fill:#ff9a6c;}</style></defs><g id="Layer_2" data-name="Layer 2"><g id="Character_4" data-name="Character 4"><path class="cls-1" d="M397.35,391.17h3.41l7.45-10.38V374s5.28-.33,4.65,8.59.06,6.65.06,6.65,11.2,0,12.13,1c.67.71,1,11.83,1.1,17.87a6.54,6.54,0,0,1-4.63,6.58,5,5,0,0,1-1.21.16c-2.79,0-17.07-2.27-17.07-2.27h-5.89Z"/><polygon class="cls-1" points="387.58 389.3 389.68 412.64 395.52 412.64 395.52 389.77 387.58 389.3"/><path class="cls-1" d="M222.84,40.19l14.7,21a4,4,0,0,0,6.57-.11l14.23-21.86Z"/><rect class="cls-1" x="207.29" y="4.99" width="64.39" height="46.83" rx="11.56"/><path class="cls-2" d="M252.09,24.1c-2.06-3.77-5.48-4.36-7.78-3.5a8,8,0,0,0-3.8,3.5,8,8,0,0,0-3.8-3.5c-2.3-.86-5.72-.27-7.79,3.5-4.3,7.87,11.59,18.12,11.59,18.12S256.4,32,252.09,24.1Z"/><path class="cls-1" d="M61.43,367.86H95.34A13.65,13.65,0,0,1,109,381.51v17.21a13.65,13.65,0,0,1-13.65,13.65H86.48l-6.24,8.93a3.77,3.77,0,0,1-6.25-.11l-5.74-8.82H61.43a13.65,13.65,0,0,1-13.65-13.65V381.51A13.65,13.65,0,0,1,61.43,367.86Z"/><polygon class="cls-2" points="77.18 381.53 77.18 399.09 64.61 390.31 77.18 381.53"/><path class="cls-2" d="M94,400.48S93.17,388,83.18,387.81H76.81v5.36l6.28.1S89.67,393.11,94,400.48Z"/><circle class="cls-1" cx="73.12" cy="181.96" r="8.99" transform="translate(-120.8 211.15) rotate(-76.67)"/><path class="cls-1" d="M73.12,189.86a15.37,15.37,0,0,0-15.37,15.37H88.49A15.37,15.37,0,0,0,73.12,189.86Z"/><path class="cls-1" d="M324.88,13.07a6.25,6.25,0,1,1-6.25-6.26A6.25,6.25,0,0,1,324.88,13.07Z"/><path class="cls-1" d="M342.22,27.69A6.25,6.25,0,1,1,336,21.44,6.25,6.25,0,0,1,342.22,27.69Z"/><path class="cls-1" d="M325,42.61a6.26,6.26,0,1,1-6.25-6.25A6.25,6.25,0,0,1,325,42.61Z"/><polyline class="cls-3" points="318.63 13.07 335.97 27.69 318.73 42.61"/><path class="cls-1" d="M432.73,159.69c-2.7-4.93-7.18-5.7-10.19-4.58a10.43,10.43,0,0,0-5,4.58,10.38,10.38,0,0,0-5-4.58c-3-1.12-7.49-.35-10.19,4.58-5.63,10.3,15.15,23.7,15.15,23.7S438.36,170,432.73,159.69Z"/><path class="cls-1" d="M408.14,207.69c-1.92-3.51-5.11-4.06-7.25-3.26a7.39,7.39,0,0,0-3.54,3.26,7.39,7.39,0,0,0-3.54-3.26c-2.14-.8-5.33-.25-7.25,3.26-4,7.34,10.79,16.88,10.79,16.88S412.16,215,408.14,207.69Z"/><path class="cls-2" d="M424.38,37.29H357.69a14.81,14.81,0,0,0-14.8,14.81V92.51a14.81,14.81,0,0,0,14.8,14.81H378.3l11.56,16.52a3.88,3.88,0,0,0,6.44-.11L407,107.32h17.39a14.81,14.81,0,0,0,14.8-14.81V52.1A14.81,14.81,0,0,0,424.38,37.29Z"/><path class="cls-4" d="M424.38,37.29h.5a10.44,10.44,0,0,1,1.47.1,13.84,13.84,0,0,1,5.41,1.78,14.83,14.83,0,0,1,7.52,12.32c.07,2.06,0,4.24.05,6.54,0,9.22,0,20.35.06,33a20.37,20.37,0,0,1-.39,4.83,14.32,14.32,0,0,1-1.91,4.62,15,15,0,0,1-8,6.32,16.83,16.83,0,0,1-5.34.75H407l.2-.11-6.11,9.41-3.16,4.84c-.54.82-1,1.63-1.63,2.47a4.09,4.09,0,0,1-2.65,1.54,4.14,4.14,0,0,1-3-.74,4.37,4.37,0,0,1-1.09-1.14l-.86-1.23-3.49-5q-3.51-5-7.1-10.15l.21.11H358.65a18.5,18.5,0,0,1-4.19-.36,16.07,16.07,0,0,1-3.92-1.45,15.14,15.14,0,0,1-7.91-13.51c0-10.61,0-20.84,0-30.59q0-3.64,0-7.22c0-1.18,0-2.35.06-3.55,0-.59.16-1.18.23-1.76s.27-1.15.46-1.7A15.35,15.35,0,0,1,347,41.57a15,15,0,0,1,5.6-3.58,9.75,9.75,0,0,1,1.57-.47,12.52,12.52,0,0,1,1.6-.3,24.48,24.48,0,0,1,3.18-.14h6.16l11.57,0,34.91.08,9.5.05,2.47,0,.84,0-.84,0-2.47,0-9.5,0-34.91.09H358.93a23.35,23.35,0,0,0-3.13.14,14.06,14.06,0,0,0-1.55.29,11.56,11.56,0,0,0-1.52.46,14.75,14.75,0,0,0-5.44,3.49,15.16,15.16,0,0,0-3.45,5.7c-.17.54-.3,1.1-.43,1.65s-.21,1.13-.23,1.71c-.08,1.14-.05,2.33-.06,3.51q0,3.57,0,7.22c0,9.75,0,20,0,30.59a14.67,14.67,0,0,0,7.65,13.06,15.31,15.31,0,0,0,3.78,1.39,17.86,17.86,0,0,0,4.08.35h19.79l.08.11,7.1,10.15q1.74,2.5,3.48,5l.86,1.24a3.77,3.77,0,0,0,1,1,3.62,3.62,0,0,0,5-.7c.54-.77,1.07-1.63,1.6-2.43l3.16-4.85,6.12-9.39.07-.12H423.7a16.39,16.39,0,0,0,5.2-.72,14.6,14.6,0,0,0,7.83-6.12,13.7,13.7,0,0,0,1.86-4.48A19.89,19.89,0,0,0,439,91c0-12.64,0-23.77,0-33,0-2.3,0-4.49,0-6.53a14.69,14.69,0,0,0-7.34-12.19,13.91,13.91,0,0,0-5.34-1.84,11.77,11.77,0,0,0-1.47-.14Z"/><polygon class="cls-5" points="392.94 58.8 392.94 86.43 412.71 72.61 392.94 58.8"/><path class="cls-5" d="M366.47,88.61s1.31-19.63,17-19.92h10v8.43l-9.89.15S373.28,77,366.47,88.61Z"/><rect class="cls-2" x="15.86" y="0.21" width="165.59" height="134.44" rx="14.01" transform="translate(197.3 134.87) rotate(180)"/><path class="cls-5" d="M92,130.54c-1.7,4.12-34.55,35-34.55,35v-35Z"/><path class="cls-4" d="M132.16,59.21c.09-7,1.19-14,.92-21s-2.11-14.3-7-19.33S112.7,11.92,107,16l-1.17,6,6.75,81.12c.3,3.55.62,7.21,2.24,10.39s4.85,5.8,8.41,5.58c4.66-.29,7.71-5,9.16-9.44C137.62,93.53,132,76.12,132.16,59.21Z"/><path class="cls-5" d="M115.3,22.85A19.58,19.58,0,0,0,111.73,18a6.66,6.66,0,0,0-5.52-1.84,2.76,2.76,0,0,0-2.19,1.6c-.31.89.36,2.08,1.3,2l.2.18c2.1,1.85,4.24,3.67,6.41,5.44a5.58,5.58,0,0,0,1.79,1.11,1.89,1.89,0,0,0,2-.42C116.46,25.22,115.89,23.86,115.3,22.85Z"/><path class="cls-4" d="M119.26,29.74c-7-8.54-16.37-13.46-27.41-13.64-6.23-.11-8.8,1.19-13.29,2.4a19.62,19.62,0,0,0-11.2,7.41c-3.18,4.51-5.85,9.56-6.45,15s-1.23,11.3-.81,16.95,2,11.34,5.29,15.93l14.38,2.5c7.94.27,16,.53,23.72-1.28s15.25-6,19.39-12.76C128.64,52.88,126.25,38.28,119.26,29.74Z"/><path class="cls-6" d="M79.71,101.85c.1-5,.27-11.37.27-11.35S68.25,89.21,65,74.18c-1.62-7.47-1.92-19.85-1.83-30C63.26,35.07,71,22.65,82.3,22.61l5-.58,19.17,7.61a5.33,5.33,0,0,1,5.06,5.15l.73,66.07L100,121.37l-22-17Z"/><path class="cls-7" d="M87.55,70.67a3.17,3.17,0,0,0-1.1-2,3.26,3.26,0,0,0-4-.23,4.37,4.37,0,0,0-1.66,4.11h0a4,4,0,0,0,2.85,1.65,4.61,4.61,0,0,0,.53,0,3.55,3.55,0,0,0,2.41-1A3.16,3.16,0,0,0,87.55,70.67Z"/><path class="cls-4" d="M69.23,55.91a2,2,0,0,0,2,1.86,1.86,1.86,0,0,0,1.91-1.87,1.94,1.94,0,0,0-2-1.85A1.86,1.86,0,0,0,69.23,55.91Z"/><path class="cls-4" d="M66.62,49.26c.26.24,1.67-.93,3.76-1s3.68.86,3.9.59-.17-.56-.86-1A5.49,5.49,0,0,0,70.28,47a5.15,5.15,0,0,0-3,1.15C66.69,48.69,66.5,49.16,66.62,49.26Z"/><path class="cls-4" d="M80.06,65.67a14,14,0,0,0-3.43-.43c-.54,0-1-.1-1.16-.46a2.81,2.81,0,0,1,.27-1.6c.43-1.32.89-2.71,1.36-4.16,1.87-5.91,3.2-10.76,3-10.83s-2,4.66-3.83,10.57c-.45,1.46-.88,2.84-1.28,4.17A3.13,3.13,0,0,0,74.78,65a1.37,1.37,0,0,0,.93.74,3.73,3.73,0,0,0,.91.07A13.53,13.53,0,0,0,80.06,65.67Z"/><path class="cls-7" d="M80,90.5A38.59,38.59,0,0,0,100,84S95.15,94.77,79.9,94.19Z"/><path class="cls-4" d="M86.3,66.78c-.34,0-.22,2.27-2.08,4s-4.28,1.6-4.28,1.91c0,.15.56.42,1.58.39a5.63,5.63,0,0,0,3.59-1.48,4.89,4.89,0,0,0,1.59-3.33C86.74,67.3,86.45,66.76,86.3,66.78Z"/><path class="cls-4" d="M67.33,41.94c.38.49,2,.06,3.85.11s3.45.46,3.84,0c.17-.23-.06-.72-.74-1.2a5.67,5.67,0,0,0-3.09-.9,5.55,5.55,0,0,0-3.1.83C67.4,41.22,67.17,41.7,67.33,41.94Z"/><path class="cls-4" d="M93,55.4a2,2,0,0,1-1.85,2,1.86,1.86,0,0,1-2-1.72,2,2,0,0,1,1.84-2A1.86,1.86,0,0,1,93,55.4Z"/><path class="cls-4" d="M94.93,48.45c-.24.26-1.73-.8-3.83-.76s-3.61,1.12-3.84.86c-.11-.11.13-.57.79-1.07a5.32,5.32,0,0,1,3.07-1,5.19,5.19,0,0,1,3,.93C94.82,47.88,95.05,48.34,94.93,48.45Z"/><path class="cls-4" d="M93.67,41.75c-.4.49-2,0-4,0s-3.58.38-4-.11c-.17-.24.08-.72.79-1.18a6.32,6.32,0,0,1,6.4.06C93.61,41,93.85,41.52,93.67,41.75Z"/><path class="cls-6" d="M108.93,60.26c-.06-1.13,1.1-3.86,2.21-4.1,3-.62,8.33-.68,8.79,6.88.64,10.33-9.87,8.83-9.9,8.54S109.14,64.16,108.93,60.26Z"/><path class="cls-7" d="M112.64,67.63s.19.11.5.24a1.83,1.83,0,0,0,1.35-.06c1.07-.47,1.88-2.26,1.82-4.12a5.94,5.94,0,0,0-.67-2.55,2.11,2.11,0,0,0-1.43-1.3.93.93,0,0,0-1,.56c-.12.3,0,.5-.09.52s-.23-.16-.18-.59a1.14,1.14,0,0,1,.37-.67,1.34,1.34,0,0,1,1-.32,2.52,2.52,0,0,1,2,1.48,6.19,6.19,0,0,1,.8,2.84c.06,2.09-.89,4.1-2.35,4.63a1.94,1.94,0,0,1-1.67-.18C112.68,67.88,112.61,67.65,112.64,67.63Z"/><path class="cls-4" d="M111.56,56.19l-2.63,2.72C97.6,48.07,75.45,20.9,76.68,22.52a33.09,33.09,0,0,1,16.2-1.76c8.42,1.44,24.41,5.66,24.16,15.6S111.56,56.19,111.56,56.19Z"/><path class="cls-5" d="M126.57,53.91a2.79,2.79,0,0,0-.16-.6,11.51,11.51,0,0,0-.7-1.63,15,15,0,0,0-4.32-4.85,28.25,28.25,0,0,0-8.69-4.18c-3.46-1.13-7.35-2-11.18-3.65a50.27,50.27,0,0,1-10.2-5.71A52.65,52.65,0,0,1,84.11,27,55.75,55.75,0,0,1,80,22.05c-.43-.58-.77-1.05-1-1.43a2.64,2.64,0,0,0-.39-.48,3.06,3.06,0,0,0,.3.54c.22.34.52.86,1,1.49a47.28,47.28,0,0,0,4.06,5.08A50.8,50.8,0,0,0,91,33.68a49.32,49.32,0,0,0,10.29,5.81c3.87,1.67,7.79,2.53,11.23,3.62a28.68,28.68,0,0,1,8.62,4,15.64,15.64,0,0,1,4.36,4.66C126.28,53.11,126.51,53.93,126.57,53.91Z"/><path class="cls-5" d="M123.56,55.54a5.33,5.33,0,0,0-.4-2.26,10.52,10.52,0,0,0-3.88-4.86c-2.16-1.61-5.24-2.61-8.62-3.38A50.85,50.85,0,0,1,100,41.64a45.38,45.38,0,0,1-9.55-5.9,46.67,46.67,0,0,1-6.55-6.43,48.27,48.27,0,0,1-3.65-5l-.88-1.45a4.28,4.28,0,0,0-.33-.49,1.84,1.84,0,0,0,.24.54L80,24.4a43.49,43.49,0,0,0,3.54,5.14,44.2,44.2,0,0,0,6.53,6.58,44.53,44.53,0,0,0,9.64,6,49.7,49.7,0,0,0,10.82,3.39c3.38.75,6.39,1.69,8.51,3.21A10.68,10.68,0,0,1,123,53.35,12.37,12.37,0,0,1,123.56,55.54Z"/><path class="cls-5" d="M111.22,73.68c0-.07.87-.18,2.4-.58a15,15,0,0,0,5.78-3.23,20.7,20.7,0,0,0,5.37-8.22A36,36,0,0,0,127,49.73a29.86,29.86,0,0,0-.5-6.26,28.87,28.87,0,0,0-7.06-13.94,48.15,48.15,0,0,0-6.94-6,2.09,2.09,0,0,1,.58.3c.35.22.91.52,1.56,1a31.54,31.54,0,0,1,5.15,4.43,29.35,29.35,0,0,1,5.58,8.41,30.84,30.84,0,0,1,1.79,5.72,30.56,30.56,0,0,1,.52,6.41,35.9,35.9,0,0,1-2.33,12.13,20.82,20.82,0,0,1-5.64,8.35,14.29,14.29,0,0,1-6,3.12,12.7,12.7,0,0,1-1.83.3A2.07,2.07,0,0,1,111.22,73.68Z"/><path class="cls-5" d="M46.77,118.43l.25-.33C58.41,106.05,79.35,102,79.35,102s1.28,7.89,13,8.77,20.37-11.08,20.37-11.08l15.66,2.19s7.89.93,12.8,3.82c11.06,6.5,16.93,28.94,16.93,28.94l-120.82.48Z"/><path class="cls-4" d="M35.72.21l-.85.07-1,.06c-.41,0-.89.13-1.43.21a19.69,19.69,0,0,0-8.77,3.88,20.32,20.32,0,0,0-4.7,5.24,19.78,19.78,0,0,0-2.79,7.92A35.32,35.32,0,0,0,16,22.35v5.1c0,3.51,0,7.24,0,11.18,0,15.74,0,34.79.05,56.51q0,8.14,0,16.79c0,1.44,0,2.89.07,4.33a20.2,20.2,0,0,0,.79,4.27,19.79,19.79,0,0,0,4.41,7.62,21,21,0,0,0,3.42,2.95,20.77,20.77,0,0,0,4.07,2.07l1.08.39,1.12.29a19.09,19.09,0,0,0,2.28.42c.77.12,1.55.1,2.33.16h22v.24c0,9.75,0,20.18,0,30.87l-.42-.18q7.66-7.23,15.58-14.93c5.23-5.14,10.6-10.36,15.71-15.93l.08-.09h70.72c1.3,0,2.59,0,3.86-.08a19.81,19.81,0,0,0,7.27-2.08,19.61,19.61,0,0,0,9.61-11.09,21.44,21.44,0,0,0,1.08-7.33v-7.48c0-19.84,0-39,0-57.2q0-13.68,0-26.64a31.9,31.9,0,0,0-.39-6.36,20.27,20.27,0,0,0-2.22-5.83,18.78,18.78,0,0,0-3.85-4.78,18.62,18.62,0,0,0-5-3.32A19.28,19.28,0,0,0,164,.59a55.17,55.17,0,0,0-5.89-.17H125L59.66.31,41.91.27l-4.62,0-1.57,0s.53,0,1.57,0l4.62,0,17.75,0L125,0l21.64,0h11.51a54,54,0,0,1,5.94.17,19.84,19.84,0,0,1,5.84,1.65,19.15,19.15,0,0,1,5.15,3.39A19.42,19.42,0,0,1,179,10.09a20.77,20.77,0,0,1,2.27,6,31.61,31.61,0,0,1,.41,6.45q0,12.95,0,26.64c0,18.23,0,37.36,0,57.2v7.48a22,22,0,0,1-1.1,7.49,20.1,20.1,0,0,1-17.33,13.52c-1.31.09-2.6.1-3.9.09H88.76l.19-.08c-5.13,5.59-10.5,10.81-15.74,16s-10.47,10.1-15.59,14.92l-.41.39v-.57c0-10.69,0-21.12,0-30.87l.23.23H35.63c-.79-.06-1.59,0-2.38-.16a18.4,18.4,0,0,1-2.33-.44L29.78,134l-1.11-.4a21.2,21.2,0,0,1-4.16-2.13,21,21,0,0,1-3.49-3,20.07,20.07,0,0,1-4.5-7.79,20.61,20.61,0,0,1-.8-4.37c-.11-1.48-.07-2.92-.07-4.36q0-8.64,0-16.79c0-21.72,0-40.77.05-56.51q0-5.91,0-11.18c0-1.76,0-3.46,0-5.1a37.35,37.35,0,0,1,.18-4.78A20,20,0,0,1,23.54,4.31,19.43,19.43,0,0,1,32.38.48c.55-.08,1-.17,1.44-.2l1,0C35.43.21,35.72.21,35.72.21Z"/><path class="cls-4" d="M290.64,429,165.87,429c-15,0-27.17-11.6-27.16-25.9L138.77,105c0-14.31,12.18-25.91,27.19-25.9l124.77.07c15,0,27.17,11.61,27.16,25.91l-.06,298.08C317.83,417.45,305.65,429,290.64,429Z"/><path class="cls-2" d="M290.6,89.7l-24.19,0a5.87,5.87,0,0,0-5.88,5.85v4.18a5.86,5.86,0,0,1-5.87,5.85l-47.15,0a5.86,5.86,0,0,1-5.88-5.85V95.5a5.87,5.87,0,0,0-5.87-5.86H166.08c-10.52,0-19,8.11-19.05,18.13l-.06,291c0,10,8.52,18.14,19,18.14l124.52.07c10.51,0,19-8.11,19-18.13l.06-291C309.62,97.82,301.11,89.7,290.6,89.7Z"/><path class="cls-4" d="M224.15,162.22a7.1,7.1,0,0,0,.36-14.12,7.39,7.39,0,0,0-8.67-11,8.83,8.83,0,0,0-14.45-4.6,9.93,9.93,0,0,0-12.07,2.06,7.07,7.07,0,0,0-3.88,12.95"/><path class="cls-8" d="M225.35,163a30.12,30.12,0,0,0-34.68-21.6l-1.53.29c-16.35,4.11-22,20.29-17.42,36.51l11.43,58.9h0l33.67,26,8.72-21.7-3.43-19.6s15.41-5.5,12.59-21.42C233.33,192.69,229.23,177.09,225.35,163Z"/><path class="cls-9" d="M222.23,221.75a39.22,39.22,0,0,1-22-2.13s6.88,10.85,22.46,6.4Z"/><path class="cls-4" d="M223.94,178.25a2.31,2.31,0,0,1-1.75,2.7,2.2,2.2,0,0,1-2.73-1.6,2.3,2.3,0,0,1,1.75-2.7A2.21,2.21,0,0,1,223.94,178.25Z"/><path class="cls-4" d="M223.42,171.43c-.23.35-2.19-.6-4.63-.13s-4,2-4.31,1.79c-.16-.11,0-.7.7-1.41a6.25,6.25,0,0,1,3.38-1.8,6.14,6.14,0,0,1,3.76.47C223.18,170.78,223.53,171.27,223.42,171.43Z"/><path class="cls-4" d="M201.79,182.93a2.31,2.31,0,0,1-1.75,2.71,2.21,2.21,0,0,1-2.73-1.6,2.32,2.32,0,0,1,1.75-2.71A2.21,2.21,0,0,1,201.79,182.93Z"/><path class="cls-4" d="M199.51,176.45c-.22.35-2.19-.59-4.62-.12s-4,2-4.32,1.78c-.16-.11,0-.69.7-1.41a6.38,6.38,0,0,1,3.39-1.8,6.12,6.12,0,0,1,3.75.47C199.27,175.81,199.62,176.29,199.51,176.45Z"/><path class="cls-4" d="M211.82,192.87c0-.14,1.43-.69,3.82-1.47.62-.18,1.18-.42,1.21-.87a3.25,3.25,0,0,0-.77-1.77l-2.75-4.39c-3.85-6.27-6.76-11.47-6.5-11.63s3.58,4.81,7.42,11.08c.94,1.55,1.83,3,2.68,4.44a3.67,3.67,0,0,1,.79,2.38,1.6,1.6,0,0,1-.86,1.11,4.18,4.18,0,0,1-1,.35A16.86,16.86,0,0,1,211.82,192.87Z"/><path class="cls-4" d="M198.67,168c-.2.68-2.42.41-5,.82s-4.67,1.24-5,.64c-.16-.28.19-.93,1-1.6a8,8,0,0,1,3.71-1.55,7.66,7.66,0,0,1,4,.44C198.26,167.16,198.76,167.68,198.67,168Z"/><path class="cls-4" d="M222.07,162.73c-.41.65-2.53.46-5,.9s-4.4,1.22-5,.73c-.26-.24,0-.86.76-1.55a7.88,7.88,0,0,1,3.85-1.68,8,8,0,0,1,4.16.36C221.86,161.9,222.25,162.42,222.07,162.73Z"/><path class="cls-8" d="M177.21,193.18a4.39,4.39,0,0,0-5.44-3.27c-2.91.85-5.89,3.16-4.53,9.24,2.42,10.8,12.76,6.15,12.7,5.83S178.26,197.69,177.21,193.18Z"/><path class="cls-9" d="M176.69,201.45c-.06,0-.16.17-.45.39a1.9,1.9,0,0,1-1.4.34c-1.23-.16-2.59-1.76-3.08-3.69a6.4,6.4,0,0,1-.08-2.81,2.25,2.25,0,0,1,1.09-1.76,1,1,0,0,1,1.23.27c.21.27.19.5.25.5s.19-.23,0-.66a1.29,1.29,0,0,0-.58-.58,1.48,1.48,0,0,0-1.1,0,2.7,2.7,0,0,0-1.59,2.11,6.5,6.5,0,0,0,0,3.16c.56,2.16,2.13,3.94,3.79,4a2,2,0,0,0,1.65-.67C176.73,201.71,176.73,201.46,176.69,201.45Z"/><path class="cls-4" d="M212,142.13a4,4,0,0,0-.53-.7,7.14,7.14,0,0,0-6-2.05,28.59,28.59,0,0,0-4.11-.87,9.63,9.63,0,0,0-16.19,2.38l-1.29.47A9.84,9.84,0,0,0,170,148.31a7.14,7.14,0,0,0-6,11.7c-1.74,1.49-3,3.75-2.65,6s2.7,3.83,4.69,3.2c.6,5.27,2.33,11.29,3.63,16.65.92,3.76,6.19,5.1,7,7.62,4.2,12.85,7.13,4.75,3.59-22.84.23-.26.46-.54.7-.85a16,16,0,0,0,.87-2c.46-.81,1.59-.8,2.52-.88a7,7,0,0,0,6.25-6.34c1,1.06,2.9.65,4-.37a15.94,15.94,0,0,0,2.36-3.73c.74-1.27,1.9-2.5,3.37-2.57a11.32,11.32,0,0,0,2.46.07c1.4-.4,1.78-2.2,1.73-3.66a6.67,6.67,0,0,1,.45-3.61,8.34,8.34,0,0,1,2.61-1.32c.55,0,1.12,0,1.66-.06a4.27,4.27,0,0,0,.78-.1,9.43,9.43,0,0,1,1.06.21c5.24,1.41,11.32,10.56,11.32,10.56C221.57,149.65,217.15,145.05,212,142.13Z"/><path class="cls-5" d="M162.76,160.85s0-.06.07-.17.14-.29.27-.49a6.23,6.23,0,0,1,1.46-1.56,7,7,0,0,1,3.08-1.3,6.4,6.4,0,0,1,4.32.74l-.27.14a8.75,8.75,0,0,1,3.45-6.29,11.29,11.29,0,0,1,3.67-1.93,13.7,13.7,0,0,1,4.35-.51,22.06,22.06,0,0,1,7.92,2l-.3.15a9.87,9.87,0,0,1,3.92-6.06,9.48,9.48,0,0,1,5.45-1.74,9.36,9.36,0,0,1,3.68.73,5.26,5.26,0,0,1,.9.45c.2.11.3.18.29.19s-.43-.21-1.24-.51a9.87,9.87,0,0,0-3.63-.59,9.23,9.23,0,0,0-5.23,1.77,9.51,9.51,0,0,0-3.71,5.84l-.05.27-.25-.11a22,22,0,0,0-7.77-2,13,13,0,0,0-4.2.48,11,11,0,0,0-3.53,1.84,8.44,8.44,0,0,0-3.36,6v.3l-.27-.15a6.18,6.18,0,0,0-4.08-.76,6.93,6.93,0,0,0-3,1.18A7.8,7.8,0,0,0,162.76,160.85Z"/><path class="cls-5" d="M205,146s0,.16-.11.45a9,9,0,0,0-.17,1.33c0,.59,0,1.31-.07,2.16a6.77,6.77,0,0,1-.56,2.88,2.25,2.25,0,0,1-1.37,1.1,7.72,7.72,0,0,1-1.87.23,3.76,3.76,0,0,0-1.82.49,5,5,0,0,0-1.34,1.52c-.39.61-.73,1.28-1.1,2a7.75,7.75,0,0,1-1.29,2,5.09,5.09,0,0,1-2.23,1.25,4.19,4.19,0,0,1-1.33.17,1.91,1.91,0,0,1-1.32-.57l.39-.14a6.8,6.8,0,0,1-.38,2,6.5,6.5,0,0,1-1,1.78,7.53,7.53,0,0,1-3.5,2.33,9.3,9.3,0,0,1-1.72.39,3.81,3.81,0,0,0-1.58.3,2.29,2.29,0,0,0-1,1.15,12.17,12.17,0,0,1-.88,1.43,8.67,8.67,0,0,1-5.09,3.68,8,8,0,0,1-5.51-1.21A8.28,8.28,0,0,1,167,169l.21.08a4.36,4.36,0,0,1-3.7-.18,4.2,4.2,0,0,1-2.18-3.8,3.36,3.36,0,0,1,.05-.46,1,1,0,0,1,0-.15,4.86,4.86,0,0,0,.39,2.27,3.92,3.92,0,0,0,1.82,1.92,4.08,4.08,0,0,0,3.45.11l.14-.06.07.14a7.88,7.88,0,0,0,3.07,3.49,7.58,7.58,0,0,0,5.23,1.12,8.25,8.25,0,0,0,4.81-3.53,10.57,10.57,0,0,0,.84-1.38,2.71,2.71,0,0,1,1.17-1.34,2.8,2.8,0,0,1,.89-.28l.85-.07a8.46,8.46,0,0,0,1.64-.37,7.29,7.29,0,0,0,3.3-2.18,6.26,6.26,0,0,0,.95-1.66,6.39,6.39,0,0,0,.36-1.82l0-.53.35.39a2.23,2.23,0,0,0,2.2.28,4.76,4.76,0,0,0,2.05-1.14,7.42,7.42,0,0,0,1.24-1.93c.38-.67.72-1.34,1.13-2a5.19,5.19,0,0,1,1.47-1.62,4,4,0,0,1,2-.52,7.75,7.75,0,0,0,1.8-.2,2,2,0,0,0,1.22-.94,6.74,6.74,0,0,0,.58-2.75c.05-.84.08-1.57.14-2.16a7.49,7.49,0,0,1,.24-1.34C204.91,146.14,205,146,205,146Z"/><path class="cls-9" d="M205,198.58c-.45,3,.84,5.88,3.66,6.9a4,4,0,0,0,3.06-.17,4,4,0,0,0,2.41-2.72,7.81,7.81,0,0,0,.06-3.75C211.63,198.69,207.61,198.73,205,198.58Z"/><path class="cls-4" d="M213.63,203.8s0,.08-.1.21a3.79,3.79,0,0,1-.44.52,4.11,4.11,0,0,1-2.24,1.11,5.36,5.36,0,0,1-3.63-.74,5.62,5.62,0,0,1-2.45-3.81,5,5,0,0,1-.06-1.22,2.62,2.62,0,0,1,.31-1.21,1,1,0,0,1,.56-.44,2,2,0,0,1,.61-.08l1.07,0c1.37.07,2.6.21,3.63.31,2.05.23,3.32.29,3.32.36a14.27,14.27,0,0,1-3.35,0c-1-.06-2.26-.16-3.62-.2h-1c-.36,0-.61.06-.75.29a2.17,2.17,0,0,0-.23,1,5.91,5.91,0,0,0,.06,1.11,5.26,5.26,0,0,0,2.2,3.49,5.13,5.13,0,0,0,3.32.77,4.31,4.31,0,0,0,2.16-.89C213.4,204,213.59,203.76,213.63,203.8Z"/><path class="cls-5" d="M274,169.29s12.67-1.58,31.72-16.73,29.35-36.67,31.48-36.36,11.87-3.15,26,37.14,6.28,48.6,2.75,48.2-26.88-9.35-42-9.06-35.14,6.28-35.14,6.28Z"/><polygon class="cls-5" points="251.23 199.38 258 197.93 254.34 189.03 248.62 191.88 251.23 199.38"/><path class="cls-4" d="M252,188.78l2.5,7.52,1.56,3.79A10.55,10.55,0,0,0,269.34,206l27.48-7.72L285,163.52,257.72,175A10.55,10.55,0,0,0,252,188.78Z"/><path class="cls-4" d="M261.87,200.34l9.21,16.32,4.2-1.36L304,236.74l7.13-15.52s-16.71-6.39-20-12.12.18-7.2.18-7.2l-8.1-8.46Z"/><path class="cls-4" d="M361.7,153.91c7.48,21.81,9.66,40.82,4.86,42.47s-14.73-14.71-22.21-36.52S334.7,119,339.49,117.4,354.23,132.1,361.7,153.91Z"/><path class="cls-10" d="M342.88,147.44s11.42-5.67,15.95,9.46-7.05,16.46-7.05,16.46A97.43,97.43,0,0,1,342.88,147.44Z"/><path class="cls-4" d="M333,129a17,17,0,0,0,.17,2.82c.17,1.81.41,4.44.8,7.68q.47,2.42,1,5.24c.18.94.37,1.92.57,2.92q.15.75.3,1.53c.11.51.28,1,.42,1.54.59,2.08,1.2,4.26,1.84,6.52.16.56.32,1.13.49,1.71s.4,1.13.6,1.7c.43,1.13.86,2.29,1.29,3.45s.88,2.32,1.3,3.46c.23.56.4,1.14.66,1.68s.51,1.08.76,1.61l2.89,6.13c.24.48.45,1,.7,1.44s.52.9.77,1.35c.52.88,1,1.75,1.49,2.58l2.69,4.62c1.82,2.69,3.37,4.83,4.43,6.31a16,16,0,0,0,1.73,2.23,16.36,16.36,0,0,0-1.43-2.44l-4.19-6.47L349.77,182c-.47-.84-.94-1.7-1.44-2.58q-.37-.66-.75-1.35c-.24-.46-.45-.95-.68-1.44l-2.82-6.11c-.24-.53-.49-1.06-.74-1.6s-.43-1.11-.65-1.67l-1.28-3.43c-.44-1.16-.87-2.3-1.29-3.43-.2-.57-.45-1.12-.61-1.69s-.33-1.13-.49-1.69l-1.88-6.46c-.15-.52-.32-1-.44-1.53s-.21-1-.31-1.51c-.21-1-.42-2-.62-2.89l-1.11-5.19c-.46-3.18-.83-5.77-1.09-7.62A15.49,15.49,0,0,0,333,129Z"/><path class="cls-5" d="M296.82,198.31a7.45,7.45,0,0,1-1.24.39l-3.41.89c-2.88.75-6.85,1.8-11.22,3s-8.33,2.31-11.23,3c-1.44.36-2.61.63-3.43.8a6.53,6.53,0,0,1-1.28.21,5.71,5.71,0,0,1,1.23-.41l3.39-1,11.18-3.17c4.38-1.21,8.37-2.2,11.28-2.86,1.45-.32,2.63-.57,3.44-.73A5.5,5.5,0,0,1,296.82,198.31Z"/><path class="cls-5" d="M280.67,192.63a15.85,15.85,0,0,1-2.68,1.14c-1.69.63-4,1.44-6.68,2.22s-5,1.4-6.8,1.8a15.57,15.57,0,0,1-2.87.52,17.15,17.15,0,0,1,2.78-.88c1.73-.48,4.12-1.15,6.75-1.94s5-1.53,6.7-2.07A17,17,0,0,1,280.67,192.63Z"/><path class="cls-5" d="M276.31,184.68a76.75,76.75,0,0,1-8.48,2.84,77.44,77.44,0,0,1-8.62,2.33,75,75,0,0,1,8.47-2.83A75.52,75.52,0,0,1,276.31,184.68Z"/><path class="cls-5" d="M272.05,177a63.57,63.57,0,0,1-7.22,3.44,61.79,61.79,0,0,1-7.43,3,63.57,63.57,0,0,1,7.22-3.44A61.79,61.79,0,0,1,272.05,177Z"/><path class="cls-5" d="M241.14,263.1,224.45,235l-43.12-1.79,0,3.93S169.52,249,165.71,265.24c-2.89,12.29,9.26,59.19,12.69,75.45,4.2,20,10,45.29,10,45.29-.86,4.47-6.61,8.1-6.22,14.08L278.08,399l-4.93-19.43Z"/><path class="cls-2" d="M274.39,387c0,.14-19.07.26-42.6.26s-42.6-.12-42.6-.26,19.07-.26,42.6-.26S274.39,386.88,274.39,387Z"/><path class="cls-2" d="M267.77,363c0,.14-18.9.26-42.22.26s-42.22-.12-42.22-.26,18.9-.26,42.22-.26S267.77,362.83,267.77,363Z"/><path class="cls-2" d="M261.26,336.83c0,.14-18.5.26-41.31.26s-41.32-.12-41.32-.26,18.5-.26,41.32-.26S261.26,336.69,261.26,336.83Z"/><path class="cls-2" d="M256.71,310.52c0,.14-19,.26-42.55.26s-42.56-.12-42.56-.26,19.05-.26,42.56-.26S256.71,310.38,256.71,310.52Z"/><path class="cls-2" d="M246.65,277.88c0,.14-18,.26-40.27.26s-40.27-.12-40.27-.26,18-.26,40.27-.26S246.65,277.73,246.65,277.88Z"/><path class="cls-2" d="M232.92,248c0,.15-13.32.26-29.74.26s-29.75-.11-29.75-.26,13.32-.26,29.75-.26S232.92,247.84,232.92,248Z"/><path class="cls-11" d="M177.93,280.45a76.78,76.78,0,0,0,15.74,18.76c9.63,8,38.93,22.33,38.93,22.33l2.44-5.06,21.87,5.11-4.06-13.46Z"/><path class="cls-8" d="M280.77,245l-7.62,41.43-65.36-31.07-10.54,36.86c25.69,12.56,77.7,33.47,84.39,32.87,9.52-.86,16.09-6.54,19.06-20.49,1.83-8.63,1-66.5,1-66.5Z"/><path class="cls-5" d="M212.06,249.74s-24.45-15.1-35.11,3.93c-7.62,18.56.82,33.38,19.63,42.59,9.08,4.43,21.44,9.91,33.92,15.12L248.69,271Z"/><path class="cls-4" d="M212.06,249.74l.67.36,1.94,1.09,7.38,4.22,26.74,15.43.16.09-.07.17-18.15,40.38-.1.23-.23-.1c-6.4-2.66-13-5.49-19.71-8.5-3-1.33-5.91-2.67-8.79-4s-5.72-2.71-8.46-4.2c-1.34-.77-2.67-1.57-3.94-2.41a45.07,45.07,0,0,1-3.66-2.72,37,37,0,0,1-6.18-6.33l-1.25-1.77a17.15,17.15,0,0,1-1.08-1.85,27,27,0,0,1-1.78-3.82c-.24-.65-.4-1.32-.6-2l-.29-1c-.08-.33-.13-.67-.19-1-.11-.67-.23-1.33-.34-2s-.09-1.33-.13-2a28,28,0,0,1,.08-3.89c.1-1.27.37-2.51.54-3.73s.61-2.38.94-3.53.81-2.22,1.21-3.3h0v0a19.88,19.88,0,0,1,5.78-6.54,17.75,17.75,0,0,1,7.27-2.87,28.73,28.73,0,0,1,12.43,1.22,45.23,45.23,0,0,1,7.38,3c.81.42,1.42.76,1.82,1s.6.38.6.38l-.63-.33c-.41-.22-1-.54-1.84-.94a48.19,48.19,0,0,0-7.39-2.88,28.94,28.94,0,0,0-12.32-1.11,17.38,17.38,0,0,0-7.11,2.85,19.57,19.57,0,0,0-5.64,6.44v0c-.39,1.07-.78,2.17-1.18,3.28s-.61,2.31-.92,3.49c-.16,1.21-.43,2.43-.52,3.68a27.13,27.13,0,0,0-.07,3.83c.05.65.07,1.3.13,2s.23,1.3.34,2c.07.32.11.66.19,1l.29,1c.2.64.36,1.3.59,1.94a27.73,27.73,0,0,0,1.76,3.75,18.3,18.3,0,0,0,1.07,1.81l1.23,1.75a36.69,36.69,0,0,0,6.11,6.23c1.12,1,2.39,1.8,3.62,2.69s2.58,1.62,3.91,2.39c2.71,1.47,5.55,2.82,8.43,4.17s5.81,2.69,8.78,4c6.71,3,13.31,5.83,19.7,8.5l-.33.13,18.23-40.34.08.26-26.65-15.58-7.32-4.32-1.91-1.14C212.27,249.89,212.06,249.74,212.06,249.74Z"/><path class="cls-8" d="M279.8,252l1.47-15.44s-5.9-11.88-5.79-13.07.47-7.74.47-7.74l14.75-13.27s4.77,0,4.89,4.72c0,0,4.6-1,4.66,4.54,0,0,5,.18,5.11,4.21h0s3-.4,2.89,3.81c-.07,3-1.39,14.61-1.39,14.61l-6.17,10.73-.51,10.73Z"/><path class="cls-9" d="M281.32,301.53c-.17.06-1.25-3.69-3.49-7.9s-4.82-7.14-4.68-7.25a10,10,0,0,1,1.75,1.86,33.26,33.26,0,0,1,3.39,5.15,36.62,36.62,0,0,1,2.41,5.67A9.87,9.87,0,0,1,281.32,301.53Z"/><path class="cls-2" d="M197.25,244.62a8.21,8.21,0,0,1-.65,1.4c-.44.89-1.11,2.16-2,3.72-1.68,3.13-4.09,7.41-6.79,12.11l-6.92,12c-.85,1.48-1.56,2.7-2.11,3.64a8.93,8.93,0,0,1-.82,1.31,7.46,7.46,0,0,1,.65-1.4c.44-.89,1.11-2.16,2-3.73,1.68-3.13,4.09-7.4,6.79-12.11l6.92-12,2.11-3.64A9.1,9.1,0,0,1,197.25,244.62Z"/><path class="cls-2" d="M217.18,253.35a1.65,1.65,0,0,1-.16.45l-.54,1.25c-.49,1.08-1.22,2.63-2.14,4.54-1.84,3.82-4.48,9.05-7.55,14.74s-6,10.76-8.21,14.39c-1.09,1.82-2,3.28-2.63,4.28l-.75,1.14c-.17.26-.27.39-.29.38a2.43,2.43,0,0,1,.2-.44l.67-1.19,2.49-4.35c2.1-3.68,5-8.77,8.06-14.46s5.76-10.88,7.68-14.65c.94-1.83,1.71-3.34,2.28-4.47.26-.48.47-.88.64-1.21A1.89,1.89,0,0,1,217.18,253.35Z"/><path class="cls-2" d="M239.48,265.82a9.74,9.74,0,0,1-.6,1.66c-.41,1-1,2.56-1.88,4.41-1.64,3.7-4.08,8.73-7.09,14.13s-6,10.13-8.3,13.47c-1.14,1.67-2.08,3-2.76,3.92a11.73,11.73,0,0,1-1.09,1.38,10.9,10.9,0,0,1,.92-1.5c.67-1,1.55-2.37,2.63-4,2.2-3.39,5.14-8.14,8.15-13.52s5.48-10.38,7.21-14l2-4.33A12.8,12.8,0,0,1,239.48,265.82Z"/><polygon class="cls-4" points="181.37 418.56 183.46 400.05 274.9 399.05 277.24 418.56 181.37 418.56"/><path class="cls-5" d="M294.63,416.92c0,.15-28.18.26-62.92.26s-62.92-.11-62.92-.26,28.16-.26,62.92-.26S294.63,416.78,294.63,416.92Z"/><rect class="cls-5" x="207.61" y="93.96" width="38.09" height="5.55" rx="2.04"/><path class="cls-5" d="M254.93,96.73A2.78,2.78,0,1,1,252.16,94,2.78,2.78,0,0,1,254.93,96.73Z"/><path class="cls-4" d="M139.7,137H142a0,0,0,0,1,0,0v46.4a0,0,0,0,1,0,0H139.7a6.2,6.2,0,0,1-6.2-6.2v-34A6.2,6.2,0,0,1,139.7,137Z"/><path class="cls-4" d="M139.15,204.46h2.25a0,0,0,0,1,0,0v46.4a0,0,0,0,1,0,0h-2.25a6.2,6.2,0,0,1-6.2-6.2v-34A6.2,6.2,0,0,1,139.15,204.46Z"/><path class="cls-5" d="M139.3,273.23c-.14,0-.26-33.69-.26-75.22s.12-75.23.26-75.23.26,33.67.26,75.23S139.45,273.23,139.3,273.23Z"/><rect class="cls-2" x="0.26" y="230.47" width="119.2" height="96.78" rx="11.41"/><path class="cls-5" d="M64.65,324.29c1.22,3,24.86,25.18,24.86,25.18V324.29Z"/><path class="cls-4" d="M81.26,252a14.94,14.94,0,0,0-7.41-8.84A18.77,18.77,0,0,0,61.16,242a39.73,39.73,0,0,0-11.82,5.29,19.29,19.29,0,0,0-5.6,4.62c-2.66,3.55-5.23,9.34-5.37,13.78-.11,3.59,1.52,12.52,3.13,15.73a8,8,0,0,0,3.52,3,30.76,30.76,0,0,0,6.74,8.4L54,285.5Z"/><path class="cls-4" d="M79.07,247.6,72,246.54c4.12,9.08,5.77,30.08,8.25,39.74,2.5-3.85,8.22-15.53,7.76-20.1S87.44,246.58,79.07,247.6Z"/><path class="cls-12" d="M46,263.86a12.07,12.07,0,0,1,8.76-11.37l16.14-4.61c7-1,12,7.55,12.61,14.59.74,7.83,1.29,16.09.54,22C82.56,296.25,73.6,298,73.6,298s.15,5.59.25,9l-2.64,15.39L49.92,304.28,46,264C46,263.8,46,264.13,46,263.86Z"/><path class="cls-4" d="M80,272.26a1.51,1.51,0,0,1-1.41,1.57A1.44,1.44,0,0,1,77,272.51a1.49,1.49,0,0,1,1.4-1.56A1.44,1.44,0,0,1,80,272.26Z"/><path class="cls-4" d="M81.9,267.13c-.18.2-1.35-.61-3-.55s-2.79.9-3,.71.09-.45.59-.84a4.11,4.11,0,0,1,2.37-.81,4,4,0,0,1,2.38.68C81.81,266.69,82,267,81.9,267.13Z"/><path class="cls-4" d="M65.36,272.26A1.51,1.51,0,0,1,64,273.83a1.44,1.44,0,0,1-1.59-1.32,1.49,1.49,0,0,1,1.4-1.56A1.44,1.44,0,0,1,65.36,272.26Z"/><path class="cls-4" d="M66.48,267.57c-.18.2-1.35-.61-3-.55s-2.79.9-3,.71.09-.45.6-.84a4.11,4.11,0,0,1,2.37-.81,4,4,0,0,1,2.37.68C66.39,267.13,66.57,267.48,66.48,267.57Z"/><path class="cls-4" d="M71.92,280.18a10.2,10.2,0,0,1,2.62-.56c.42-.06.81-.15.87-.44a2.09,2.09,0,0,0-.32-1.22l-1.32-3.11c-1.84-4.45-3.19-8.1-3-8.17s1.82,3.46,3.66,7.9c.44,1.1.87,2.14,1.27,3.14a2.44,2.44,0,0,1,.27,1.62,1,1,0,0,1-.67.63,2.78,2.78,0,0,1-.7.12A10.78,10.78,0,0,1,71.92,280.18Z"/><path class="cls-13" d="M57.88,294.29s4,8,15.79,6.51L73.6,298A29.64,29.64,0,0,1,57.88,294.29Z"/><path class="cls-4" d="M65.81,261.72c-.15.45-1.78.29-3.67.58s-3.43.85-3.69.46c-.12-.18.14-.61.74-1.05a6.3,6.3,0,0,1,2.71-1,6.21,6.21,0,0,1,2.9.25C65.51,261.17,65.87,261.51,65.81,261.72Z"/><path class="cls-4" d="M81.23,262.18c-.28.38-1.41,0-2.75.05s-2.48.33-2.75-.05c-.12-.18,0-.56.53-.92a4,4,0,0,1,4.43,0C81.18,261.62,81.35,262,81.23,262.18Z"/><path class="cls-4" d="M80,251.82a5.19,5.19,0,0,0-4.65-2.8A10.08,10.08,0,0,0,70,250.76c-6.89,4.25-10.21,14.13-17,18.52-1.68,1.08-3.92.2-5.33,1.6s-2.28,3.62-1.43,5.41a16.19,16.19,0,0,1-2.52-4,5.56,5.56,0,0,1,.06-4.59c.57-1,1.61-1.87,1.87-3s-.21-2.08-.2-3.14a7,7,0,0,1,1-3,30.62,30.62,0,0,1,10.91-12.15,19.94,19.94,0,0,1,10.25-3A15.22,15.22,0,0,1,77.52,247c1.59,1.39,3.26,2.84,2.51,4.82"/><path class="cls-12" d="M47.87,272.34c-.13-.34-6.33-2.38-6.23,4.15.11,6.33,6.46,4.9,6.47,4.72S47.87,272.34,47.87,272.34Z"/><path class="cls-13" d="M46.11,278.85s-.11.08-.29.17a1.14,1.14,0,0,1-.83,0,2.73,2.73,0,0,1-1.31-2.43A3.54,3.54,0,0,1,44,275a1.29,1.29,0,0,1,.81-.87.57.57,0,0,1,.66.29c.09.18,0,.31.08.32s.14-.11.08-.37a.66.66,0,0,0-.25-.39.81.81,0,0,0-.62-.15,1.53,1.53,0,0,0-1.13,1,3.79,3.79,0,0,0-.35,1.77,2.86,2.86,0,0,0,1.66,2.71,1.16,1.16,0,0,0,1-.19C46.1,279,46.13,278.86,46.11,278.85Z"/><path class="cls-2" d="M45.26,269.15a3.11,3.11,0,0,0,.37-.22c.24-.16.61-.38,1-.71A21.43,21.43,0,0,0,50,265a61.88,61.88,0,0,0,4-5.55,49.26,49.26,0,0,1,5-6.66,19.73,19.73,0,0,1,3.3-2.76A16.11,16.11,0,0,1,66,248.28a18.13,18.13,0,0,1,6.69-1,17.35,17.35,0,0,1,4.52.76,11.42,11.42,0,0,1,1.19.4,2.68,2.68,0,0,0,.42.13,4.14,4.14,0,0,0-.4-.19,11,11,0,0,0-1.17-.45,16.14,16.14,0,0,0-4.55-.85,17.66,17.66,0,0,0-6.78,1,16.25,16.25,0,0,0-3.67,1.77,19.91,19.91,0,0,0-3.35,2.8,47.68,47.68,0,0,0-5,6.71,65,65,0,0,1-4,5.57,23.34,23.34,0,0,1-3.24,3.25c-.42.34-.78.57-1,.75A2,2,0,0,0,45.26,269.15Z"/><path class="cls-4" d="M46.9,270.9a9.82,9.82,0,0,0,.77,5.08c.84,1.51,2.89,2.5,4.37,1.6,1.21-.74,1.53-2.32,1.7-3.73.48-4.05.64-8.14,1.16-12.18Z"/><path class="cls-5" d="M78.38,248.85s-.56-.09-1.57-.09a10.86,10.86,0,0,0-4.18.89,13.88,13.88,0,0,0-2.58,1.42,29.08,29.08,0,0,0-2.65,2.15,32.79,32.79,0,0,0-5.15,5.87c-.77,1.15-1.45,2.34-2.19,3.43a16.11,16.11,0,0,1-2.46,2.93,28.42,28.42,0,0,1-5.25,3.74c-1.6.9-2.93,1.54-3.86,2l-1.07.49a1.8,1.8,0,0,1-.38.15,2.05,2.05,0,0,1,.35-.21l1-.55c.9-.48,2.22-1.16,3.79-2.08a29.37,29.37,0,0,0,5.16-3.76,15.91,15.91,0,0,0,2.39-2.88c.73-1.09,1.41-2.27,2.19-3.44A31.65,31.65,0,0,1,67.18,253a26.44,26.44,0,0,1,2.7-2.15,14.1,14.1,0,0,1,2.66-1.42,10.52,10.52,0,0,1,4.27-.79,7.86,7.86,0,0,1,1.17.13A2.15,2.15,0,0,1,78.38,248.85Z"/><path class="cls-2" d="M46.62,267a2.77,2.77,0,0,1-.55.39l-1.58,1-.53.33a1.83,1.83,0,0,1-.69.25.69.69,0,0,1-.43-.09.58.58,0,0,1-.25-.41,1.38,1.38,0,0,1,.28-.81l1.77-3,.26.23a6.66,6.66,0,0,1-4.27,1.4,1.91,1.91,0,0,1-.57-.08.79.79,0,0,1-.51-.41.7.7,0,0,1,.09-.65,3.57,3.57,0,0,1,.35-.4,13.19,13.19,0,0,0,2.08-2.78,23.26,23.26,0,0,0,1.29-3,3.09,3.09,0,0,1-.18.86,11.2,11.2,0,0,1-.89,2.21,12.83,12.83,0,0,1-2.06,2.9c-.23.23-.46.49-.36.69s.44.28.77.28a6.52,6.52,0,0,0,4-1.34l.74-.57-.49.8c-.64,1.08-1.25,2.09-1.81,3a1.18,1.18,0,0,0-.25.63c0,.18.17.28.37.26a3.14,3.14,0,0,0,1.12-.5l1.63-.9A2.54,2.54,0,0,1,46.62,267Z"/><path class="cls-13" d="M65.83,283.34A2.13,2.13,0,0,1,68,281.67a2.23,2.23,0,0,1,1.73,1.17,2.72,2.72,0,0,1,.16,2.11l0,.16a2.41,2.41,0,0,1-2.7.65A2.27,2.27,0,0,1,65.83,283.34Z"/><path class="cls-4" d="M71,285.11c0-.25-1.65-.13-2.92-1.44s-1.23-3.07-1.46-3.06-.29.41-.25,1.15a4.1,4.1,0,0,0,1.13,2.57A3.53,3.53,0,0,0,70,285.42C70.64,285.43,71,285.22,71,285.11Z"/><path class="cls-5" d="M97.21,315.57l-.19-.24c-8.19-8.67-23.27-11.57-23.27-11.57s-.92,5.68-9.38,6.31-14.66-8-14.66-8l-11.28,1.58s-5.68.67-9.21,2.75C21.26,311.1,17,327.25,17,327.25l87,.35Z"/><path class="cls-4" d="M105.16,230.47h.61a10.08,10.08,0,0,1,1.79.17,13.9,13.9,0,0,1,6.38,2.76,14.3,14.3,0,0,1,5.5,9.55,25.82,25.82,0,0,1,.14,3.44c0,1.19,0,2.41,0,3.68,0,2.53,0,5.21,0,8,0,11.34,0,25.05.06,40.69q0,5.87,0,12.08c0,1,0,2.07,0,3.14a15.55,15.55,0,0,1-.58,3.16,14.56,14.56,0,0,1-3.25,5.64,14.18,14.18,0,0,1-5.53,3.71l-.8.29-.83.22a13.59,13.59,0,0,1-1.69.31,26.22,26.22,0,0,1-3.43.12h-14l.24-.24c0,7,0,14.53,0,22.22v.58l-.42-.4q-5.52-5.19-11.22-10.74c-3.77-3.7-7.63-7.45-11.33-11.48l.19.08H16.14c-.93,0-1.86,0-2.81-.06A14.51,14.51,0,0,1,.8,317.67a15.71,15.71,0,0,1-.8-5.42v-5.38c0-14.28,0-28.06,0-41.18q0-9.84,0-19.18a23.54,23.54,0,0,1,.29-4.66A15.15,15.15,0,0,1,2,237.55,14,14,0,0,1,4.82,234a14,14,0,0,1,3.72-2.45,14.39,14.39,0,0,1,4.22-1.19,41.36,41.36,0,0,1,4.29-.12h8.28l15.58,0,47,.08,12.79,0,3.32,0,1.13,0-1.13,0-3.32,0-12.79,0-47,.08-15.58,0H17.05a39.69,39.69,0,0,0-4.23.12A13.81,13.81,0,0,0,8.72,232a14.27,14.27,0,0,0-6.37,5.81,14.6,14.6,0,0,0-1.58,4.17,22.33,22.33,0,0,0-.28,4.57q0,9.33,0,19.18c0,13.12,0,26.9,0,41.18v5.38a15.55,15.55,0,0,0,.77,5.25,14,14,0,0,0,12.1,9.43c.9.07,1.83.07,2.76.06h51l.08.08c3.67,4,7.54,7.77,11.31,11.47s7.53,7.28,11.2,10.74l-.41.18c0-7.69,0-15.2,0-22.22V327h14.23a27,27,0,0,0,3.38-.11,12.65,12.65,0,0,0,1.63-.3l.8-.21.78-.28a13.78,13.78,0,0,0,5.36-3.59,14.22,14.22,0,0,0,3.17-5.46,14.68,14.68,0,0,0,.56-3.07c.08-1,0-2.07.06-3.11q0-6.21,0-12.08c0-15.64,0-29.35.06-40.69,0-2.83,0-5.51,0-8,0-1.27,0-2.49,0-3.68a25.25,25.25,0,0,0-.12-3.41,14.14,14.14,0,0,0-2-5.7,14.53,14.53,0,0,0-3.37-3.77,14.2,14.2,0,0,0-6.3-2.8,12,12,0,0,0-1.78-.2Z"/><rect class="cls-2" x="322.78" y="240.95" width="136.51" height="110.84" rx="11.46" transform="translate(782.07 592.74) rotate(180)"/><path class="cls-5" d="M385.55,348.39c-1.4,3.4-28.48,28.84-28.48,28.84V348.39Z"/><path class="cls-12" d="M375.07,325.19c0-3.5,0-6.42,0-6.78,0,0-11.84-1.12-12.69-12.84-.41-5.66-.3-17.39-.08-28a21.88,21.88,0,0,1,20.57-21.38l1.13-.07c12.24,0,19.1,10.37,18.78,22.61l-.43,45.94-19.81,15.9-1.43-.13Z"/><path class="cls-13" d="M375.05,318.41a28.39,28.39,0,0,0,15-5.43s-3.21,8.79-15,8.43Z"/><path class="cls-4" d="M382.22,282.62c.23.24,1.6-.83,3.56-.86s3.41.95,3.62.71-.13-.55-.76-1a5,5,0,0,0-2.91-.86,4.67,4.67,0,0,0-2.82,1C382.31,282.07,382.11,282.51,382.22,282.62Z"/><path class="cls-4" d="M383.67,288a1.6,1.6,0,0,0,1.63,1.51,1.52,1.52,0,0,0,1.54-1.53,1.59,1.59,0,0,0-1.62-1.51A1.53,1.53,0,0,0,383.67,288Z"/><path class="cls-4" d="M377.14,296.2a11.71,11.71,0,0,0-3-.36c-.47,0-.91-.08-1-.39a2.32,2.32,0,0,1,.22-1.38c.37-1.14.75-2.34,1.15-3.59,1.59-5.1,2.71-9.28,2.51-9.35s-1.66,4-3.25,9.13c-.38,1.26-.75,2.45-1.1,3.6a2.72,2.72,0,0,0-.13,1.82,1.16,1.16,0,0,0,.8.63,3.24,3.24,0,0,0,.79.06A12,12,0,0,0,377.14,296.2Z"/><path class="cls-4" d="M383.2,276.33c.18.43,1.76.13,3.64.25s3.42.55,3.64.14c.1-.2-.19-.61-.82-1a5.89,5.89,0,0,0-2.75-.81,5.82,5.82,0,0,0-2.8.51C383.44,275.75,383.12,276.12,383.2,276.33Z"/><path class="cls-4" d="M364.81,277.44c.2.36,1.73,0,3.59-.05s3.39.23,3.59-.14c.09-.18-.22-.5-.86-.79a6.41,6.41,0,0,0-2.73-.49,6.58,6.58,0,0,0-2.74.64C365,276.93,364.72,277.27,364.81,277.44Z"/><path class="cls-12" d="M402.32,287.46c.2-.1,7.92-2.87,8.14,5.16s-7.88,6.61-7.9,6.38S402.32,287.46,402.32,287.46Z"/><path class="cls-13" d="M404.93,295.88s.14.1.38.2a1.37,1.37,0,0,0,1,0c.84-.33,1.52-1.7,1.52-3.15a4.55,4.55,0,0,0-.45-2,1.63,1.63,0,0,0-1.08-1.05.73.73,0,0,0-.82.41c-.1.23,0,.39-.08.4s-.18-.13-.12-.46a.82.82,0,0,1,.3-.51,1,1,0,0,1,.77-.23,2,2,0,0,1,1.49,1.2,4.75,4.75,0,0,1,.55,2.23c0,1.62-.79,3.16-1.94,3.53a1.53,1.53,0,0,1-1.29-.18C405,296.08,404.9,295.9,404.93,295.88Z"/><path class="cls-4" d="M379.63,303c-.09-.2,1.49-.65,2.61-2.11a8.6,8.6,0,0,0,1.14-2.08c.24-.58.43-.95.51-.92s.06.42-.08,1a6,6,0,0,1-1.06,2.34,4.84,4.84,0,0,1-2.07,1.54C380.06,303.08,379.65,303.09,379.63,303Z"/><path class="cls-4" d="M413.17,274.6c-1.64-2.85-2-6.24-2.86-9.41s-2.59-6.46-5.67-7.61l-.07,0c-2.77-1.15-6.2-1.21-8.51.69-.51-4.18-4.13-7.53-8.18-8.65s-10.6-.57-14.53.95c-3,1.18-6,3.63-9.58,7.24a38.17,38.17,0,0,0-4.16,4.91l-3.68,10.89,3,5.78a10.58,10.58,0,0,0,.58,1.17v0l2.58,12.12c.21-3.29.12-14.76.34-18.05a18.37,18.37,0,0,0,13.17-5.88c1.83-2,3.28-4.45,5.7-5.61,3.12-1.5,6.81-.33,10.07.85l-.14-.13a14.84,14.84,0,0,1,4.49,3.33,45.64,45.64,0,0,0,1.73,19.36c.29.94,1.11,2.88,2,3.24,1.79.72,2.3-1.1,3.4-2.07a4.81,4.81,0,0,1,3.29-.76,72.1,72.1,0,0,0,2.31-8.3,7.39,7.39,0,0,0,3.37.27c-.34-.84-.67-1.67-1-2.5a3.79,3.79,0,0,0,1.44.67,1.28,1.28,0,0,0,1.37-.58C413.91,275.91,413.51,275.2,413.17,274.6Z"/><path class="cls-5" d="M392.36,259.6a9.07,9.07,0,0,1,1.16,1.08,8.44,8.44,0,0,1,1.75,3.91,15.38,15.38,0,0,1,.26,3c0,1.08-.11,2.24-.21,3.45a30,30,0,0,0-.14,3.84,12.91,12.91,0,0,0,.24,2,4.17,4.17,0,0,0,.8,2,1.75,1.75,0,0,0,1.65.58,2.57,2.57,0,0,0,1.49-.82,6,6,0,0,0,1.17-3l-.25,0a9.7,9.7,0,0,0,1.4,2.48,3.52,3.52,0,0,0,2.26,1.27,2.27,2.27,0,0,0,1.21-.2,2,2,0,0,0,.83-.8,2,2,0,0,0,.26-1,1.54,1.54,0,0,0-.36-.92l-.13.11a7.55,7.55,0,0,0,2.49,1.92,6.11,6.11,0,0,0,.78.31l.28.08-.27-.12a8.19,8.19,0,0,1-.75-.35,7.72,7.72,0,0,1-2.4-1.94l-.13.1a1.52,1.52,0,0,1,.06,1.75,1.88,1.88,0,0,1-.75.7,2,2,0,0,1-1.1.16,3.28,3.28,0,0,1-2.1-1.2,9.7,9.7,0,0,1-1.34-2.42l-.16-.38-.09.41a5.86,5.86,0,0,1-1.11,2.83,2.34,2.34,0,0,1-1.34.73,1.5,1.5,0,0,1-1.4-.49,4,4,0,0,1-.73-1.84,12.42,12.42,0,0,1-.24-2,31.66,31.66,0,0,1,.12-3.81c.09-1.21.19-2.37.18-3.46a14.81,14.81,0,0,0-.29-3,8.4,8.4,0,0,0-1.86-3.95A4.68,4.68,0,0,0,392.36,259.6Z"/><path class="cls-5" d="M356,270.52l.09.08.29.22a3.36,3.36,0,0,0,.5.32c.2.12.43.26.7.39a10.41,10.41,0,0,0,5,1,13.17,13.17,0,0,0,7.1-2.52,22.93,22.93,0,0,0,6.16-6.91c.87-1.41,1.59-2.86,2.37-4.19a15.71,15.71,0,0,1,2.66-3.53,8.07,8.07,0,0,1,3.4-2,5.48,5.48,0,0,1,1.78-.18,6,6,0,0,1,1.63.33,6.79,6.79,0,0,1,3.72,3.23,7.86,7.86,0,0,1,.58,1.77s0-.05,0-.13,0-.21,0-.36a5.79,5.79,0,0,0-.42-1.32,6.77,6.77,0,0,0-1.29-1.8,6.86,6.86,0,0,0-2.47-1.57,5.91,5.91,0,0,0-3.53-.19,8.14,8.14,0,0,0-3.51,2,15.37,15.37,0,0,0-2.72,3.58c-.79,1.34-1.51,2.78-2.37,4.17a23,23,0,0,1-6.07,6.86,13.22,13.22,0,0,1-7,2.53,10.5,10.5,0,0,1-4.94-.87A15.23,15.23,0,0,1,356,270.52Z"/><path class="cls-4" d="M364.34,283.13c.23.24,1.59-.83,3.55-.86s3.42,1,3.63.7-.14-.54-.77-1a4.9,4.9,0,0,0-2.9-.87,4.75,4.75,0,0,0-2.83,1C364.42,282.58,364.22,283,364.34,283.13Z"/><path class="cls-4" d="M367.34,288.22a1.58,1.58,0,0,0,1.62,1.5,1.52,1.52,0,0,0,1.55-1.52,1.6,1.6,0,0,0-1.63-1.51A1.51,1.51,0,0,0,367.34,288.22Z"/><path class="cls-4" d="M360.61,261.42c-1,1.31-2.53,2.51-4.18,2.33a12.12,12.12,0,0,1-1.74-.51c-.57.35-.44,2.31-.05,2.85a11.3,11.3,0,0,0,1.23,1.28c-1.92,1-3.67.52-5.73-.23a10.06,10.06,0,0,0,6,8.07,3.51,3.51,0,0,0,3.23.06,4,4,0,0,0,1.42-2.52A43.92,43.92,0,0,0,362.22,262Z"/><path class="cls-5" d="M348.26,338.41l.22-.27c9.38-9.93,26.65-13.26,26.65-13.26s1.05,6.5,10.73,7.23,16.8-9.14,16.8-9.14l12.91,1.81s6.5.77,10.55,3.15c9.12,5.36,14,23.86,14,23.86l-99.6.4Z"/><path class="cls-4" d="M339.15,241l-.69.06-.86.05c-.34,0-.73.11-1.18.18a16.13,16.13,0,0,0-7.22,3.2,16.7,16.7,0,0,0-3.87,4.31,16.51,16.51,0,0,0-2.3,6.53,31.37,31.37,0,0,0-.13,3.92c0,1.36,0,2.76,0,4.21,0,2.89,0,6,0,9.21,0,13,0,28.68.06,46.59q0,6.72,0,13.84c0,1.18,0,2.39.06,3.57a17,17,0,0,0,.65,3.51,16.33,16.33,0,0,0,3.63,6.27,15.75,15.75,0,0,0,6.16,4.12l.89.32.92.24a15,15,0,0,0,1.87.35,31,31,0,0,0,3.87.13h16.27v.24c0,8,0,16.63,0,25.44l-.42-.18c4.21-4,8.51-8.07,12.84-12.3s8.74-8.54,12.95-13.13l.08-.09H441.1c1.07,0,2.13,0,3.17-.07a15.91,15.91,0,0,0,6-1.71,16.14,16.14,0,0,0,7.91-9.12,17.55,17.55,0,0,0,.88-6v-6.16c0-16.36,0-32.14,0-47.17q0-11.26,0-22a25.86,25.86,0,0,0-.32-5.23,17.13,17.13,0,0,0-1.82-4.79,15.34,15.34,0,0,0-3.17-3.93,15.52,15.52,0,0,0-4.14-2.74,16,16,0,0,0-4.7-1.33,46.13,46.13,0,0,0-4.85-.14H412.73l-53.84-.09L344.26,241l-3.81,0-1.3,0s.44,0,1.3,0l3.81,0,14.63-.05,53.84-.08,17.84,0h9.49a44.9,44.9,0,0,1,4.9.14,16.21,16.21,0,0,1,4.83,1.36,16.74,16.74,0,0,1,7.51,6.83,17.52,17.52,0,0,1,1.88,4.93,27.09,27.09,0,0,1,.34,5.32q0,10.68,0,22c0,15,0,30.81,0,47.17q0,3.06,0,6.16a18.19,18.19,0,0,1-.91,6.19A16.66,16.66,0,0,1,444.31,352c-1.08.07-2.15.08-3.21.07H382.88l.19-.08c-4.23,4.61-8.65,8.92-13,13.15s-8.63,8.33-12.85,12.3l-.41.4v-.58c0-8.81,0-17.4,0-25.44l.23.23H341a34.32,34.32,0,0,1-3.92-.14,15.62,15.62,0,0,1-1.93-.36l-.94-.25-.92-.33A16.34,16.34,0,0,1,327,346.7a16.86,16.86,0,0,1-3.72-6.44,18,18,0,0,1-.66-3.61c-.09-1.23-.05-2.41-.06-3.6q0-7.12,0-13.84c0-17.91,0-33.61.06-46.59,0-3.24,0-6.32,0-9.21V259.2a29.9,29.9,0,0,1,.16-3.94,16.35,16.35,0,0,1,2.35-6.6,16.72,16.72,0,0,1,3.94-4.34,16.1,16.1,0,0,1,7.3-3.16c.45-.06.84-.13,1.18-.16l.87,0Z"/></g></g></svg>