<?xml version="1.0" encoding="UTF-8"?><svg id="Layer_2" xmlns="http://www.w3.org/2000/svg" viewBox="0 0 413.41 394.18"><defs><style>.cls-1{fill:#ebebeb;}.cls-2{fill:#eb996e;}.cls-3{fill:#f5f5f5;}.cls-4{fill:#fafafa;}.cls-5{fill:#ffbe9d;}.cls-6{fill:#b78876;}.cls-7{fill:#326260;}.cls-8{fill:#e0e0e0;}.cls-9{fill:#a36957;}.cls-10{fill:#455a64;}.cls-11{fill:#263238;}.cls-12{fill:#fff;opacity:.2;}.cls-13{opacity:.3;}.cls-14{opacity:.4;}</style></defs><g id="Character_1"><g><path class="cls-8" d="M244.54,206.68l-16.33-20.29c-.94-1.17-2.8-.88-3.33,.53l-2.64,6.91c-28.71-8.54-44.41,16.44-44.41,16.44l10.96,7.73c11.96-18.48,28.99-12.51,28.99-12.51l-2.31,6.04c-.54,1.4,.66,2.86,2.14,2.61l25.73-4.32c1.47-.25,2.13-1.98,1.19-3.14Z"/><path class="cls-8" d="M234.5,281.77c-11.17,16.13-25.75,12.72-28.79,11.79l3.27-7.82c.27-.64-.26-1.32-.94-1.23l-29.45,4c-.68,.09-1.01,.88-.59,1.42l17.87,23.69c.42,.55,1.27,.44,1.54-.19l3.5-8.37c28.07,8.9,44.32-15.21,44.32-15.21l-10.71-8.07Z"/><g><circle class="cls-8" cx="143.37" cy="63.36" r="35.23" transform="translate(24.53 165.57) rotate(-64.54)"/><circle class="cls-1" cx="140.38" cy="60.3" r="35.23" transform="translate(68.78 195.27) rotate(-85.3)"/><ellipse class="cls-3" cx="140.11" cy="60.01" rx="26.84" ry="26.18" transform="translate(-12.04 50.97) rotate(-19.78)"/><path class="cls-4" d="M148.93,84.54c-13.7,4.93-28.78-1.98-34.05-15.45,.08,.24,.15,.48,.24,.73,5.02,13.94,20.39,21.18,34.33,16.16,13.94-5.02,21.18-20.39,16.16-34.33-.09-.24-.18-.48-.28-.71,4.51,13.75-2.7,28.67-16.41,33.6Z"/><path class="cls-8" d="M131.28,35.48c13.7-4.93,28.77,1.98,34.05,15.45-.08-.24-.15-.48-.24-.73-5.02-13.94-20.39-21.18-34.33-16.16-13.94,5.02-21.18,20.39-16.16,34.33,.09,.24,.18,.48,.28,.71-4.51-13.75,2.7-28.67,16.41-33.6Z"/><g><path class="cls-8" d="M155.85,62.46c-1.28-3.55-3.79-5.24-6.62-5.28,1.39-1.77,1.84-4.27,.83-7.07-1.25-3.49-4.09-5.26-8.06-4.77l-1.55-4.3-3.97,1.43,1.44,4-2.26,.81-1.44-4-3.97,1.43,1.44,4-3.62,1.3-2.52,.91,1.43,3.97,2.52-.91,6.95,19.33-2.79,1,1.43,3.97,2.79-1h0l3.62-1.3,1.67,4.65,3.97-1.43-1.67-4.65,2.26-.81,1.67,4.65,3.97-1.43-1.73-4.8c4.26-2.24,5.66-5.66,4.2-9.7Zm-21.32-10.29l5.38-1.94c2.99-1.07,5.13-.44,6.04,2.1,.9,2.49-.35,4.35-3.33,5.42l-6.1,2.2-2.71-7.52,.72-.26Zm13.2,17.08l-6.51,2.34-.46,.17-2.83-7.87,6.97-2.51c3.25-1.17,5.44-.59,6.43,2.13,.98,2.73-.34,4.57-3.59,5.74Z"/><path class="cls-1" d="M153.92,63.15c-1.28-3.55-3.79-5.24-6.62-5.28,1.39-1.77,1.84-4.27,.83-7.07-1.25-3.49-4.09-5.26-8.06-4.77l-1.55-4.3-3.97,1.43,1.44,4-2.26,.81-1.44-4-3.97,1.43,1.44,4-3.62,1.3-2.52,.91,1.43,3.97,2.52-.91,6.95,19.33-2.79,1,1.43,3.97,2.79-1h0l3.62-1.3,1.67,4.65,3.97-1.43-1.67-4.65,2.26-.81,1.67,4.65,3.97-1.43-1.73-4.8c4.26-2.24,5.66-5.66,4.2-9.7Zm-21.32-10.29l5.38-1.94c2.99-1.07,5.13-.44,6.04,2.1,.9,2.49-.35,4.35-3.33,5.42l-6.1,2.2-2.71-7.52,.72-.26Zm13.2,17.08l-6.51,2.34-.46,.17-2.83-7.87,6.97-2.51c3.25-1.17,5.44-.59,6.43,2.13,.98,2.73-.34,4.57-3.59,5.74Z"/></g><path class="cls-4" d="M132.29,43.97c.09,.25-1.39,1.04-3.76,2.04l.39-.83c.48,1.13,1.01,2.48,1.56,3.96l.27,.72-.74,.27c-.34,.12-.7,.26-1.07,.39-1.88,.68-3.64,1.26-5.12,1.7l.39-.83c.73,2.45,1.07,4.1,.82,4.19-.25,.09-1.04-1.4-2.04-3.76l-.24-.56,.63-.27c1.42-.6,3.15-1.27,5.03-1.95,.37-.13,.73-.26,1.07-.38l-.47,.99c-.52-1.48-.97-2.87-1.32-4.04l-.19-.65,.58-.17c2.46-.73,4.1-1.07,4.19-.82Z"/><path class="cls-4" d="M139.38,41.5c.15,.41-.81,1.12-2.14,1.6-1.33,.48-2.52,.54-2.67,.13-.15-.41,.81-1.12,2.14-1.6,1.33-.48,2.52-.54,2.67-.13Z"/><path class="cls-4" d="M134.21,73.8c-.41,.15-2.26-3.98-4.14-9.21-1.88-5.23-3.08-9.59-2.67-9.74,.41-.15,2.26,3.98,4.14,9.21,1.88,5.23,3.08,9.59,2.67,9.74Z"/><path class="cls-4" d="M142.72,57.76c.15,.41-1.45,1.35-3.57,2.11-2.12,.76-3.95,1.05-4.1,.64-.15-.41,1.45-1.35,3.57-2.11,2.12-.76,3.95-1.05,4.1-.64Z"/><path class="cls-4" d="M147.11,69.51c.15,.41-1.45,1.35-3.57,2.11-2.12,.76-3.95,1.05-4.1,.64-.15-.41,1.45-1.35,3.57-2.11,2.12-.76,3.95-1.05,4.1-.64Z"/></g><g><circle class="cls-8" cx="291.33" cy="65.24" r="32.31" transform="translate(-6.83 50.03) rotate(-9.7)"/><circle class="cls-1" cx="288.59" cy="62.43" r="32.31" transform="translate(12.85 168.01) rotate(-33.16)"/><ellipse class="cls-3" cx="288.34" cy="62.16" rx="24.62" ry="24.01" transform="translate(-4.02 101.28) rotate(-19.79)"/><path class="cls-4" d="M296.43,84.66c-12.57,4.52-26.39-1.82-31.24-14.17,.07,.22,.14,.44,.22,.67,4.6,12.79,18.7,19.43,31.49,14.83,12.79-4.6,19.43-18.7,14.83-31.49-.08-.22-.17-.44-.25-.65,4.14,12.61-2.48,26.3-15.05,30.82Z"/><path class="cls-8" d="M280.25,39.66c12.57-4.52,26.39,1.82,31.24,14.17-.07-.22-.14-.44-.22-.67-4.6-12.79-18.7-19.43-31.49-14.83-12.79,4.6-19.43,18.7-14.83,31.49,.08,.22,.17,.44,.25,.65-4.14-12.61,2.48-26.3,15.05-30.82Z"/><g><path class="cls-8" d="M302.78,64.41c-1.17-3.25-3.48-4.8-6.07-4.84,1.27-1.63,1.68-3.92,.76-6.49-1.15-3.2-3.75-4.83-7.39-4.37l-1.42-3.95-3.65,1.31,1.32,3.67-2.07,.74-1.32-3.67-3.65,1.31,1.32,3.67-3.32,1.19-2.31,.83,1.31,3.65,2.31-.83,6.38,17.73-2.56,.92,1.31,3.65,2.56-.92h0l3.32-1.19,1.54,4.27,3.65-1.31-1.54-4.27,2.07-.74,1.54,4.27,3.65-1.31-1.59-4.41c3.9-2.06,5.19-5.19,3.86-8.9Zm-19.55-9.43l4.93-1.78c2.74-.99,4.7-.4,5.54,1.92,.82,2.29-.32,3.99-3.06,4.97l-5.6,2.01-2.48-6.9,.66-.24Zm12.1,15.67l-5.97,2.15-.42,.15-2.6-7.22,6.39-2.3c2.98-1.07,4.99-.55,5.89,1.96,.9,2.5-.31,4.19-3.3,5.26Z"/><path class="cls-1" d="M301.01,65.04c-1.17-3.25-3.48-4.8-6.07-4.84,1.27-1.63,1.68-3.92,.76-6.49-1.15-3.2-3.75-4.83-7.39-4.37l-1.42-3.95-3.65,1.31,1.32,3.67-2.07,.74-1.32-3.67-3.65,1.31,1.32,3.67-3.32,1.19-2.31,.83,1.31,3.65,2.31-.83,6.38,17.73-2.56,.92,1.31,3.65,2.56-.92h0l3.32-1.19,1.54,4.27,3.65-1.31-1.54-4.27,2.07-.74,1.54,4.27,3.65-1.31-1.59-4.41c3.9-2.06,5.19-5.19,3.86-8.9Zm-19.55-9.43l4.93-1.78c2.74-.99,4.7-.4,5.54,1.92,.82,2.29-.32,3.99-3.06,4.97l-5.6,2.01-2.48-6.9,.66-.24Zm12.1,15.67l-5.97,2.15-.42,.15-2.6-7.22,6.39-2.3c2.98-1.07,4.99-.55,5.89,1.96s-.31,4.19-3.3,5.26Z"/></g><path class="cls-4" d="M281.17,47.45c.09,.25-1.27,.99-3.43,1.92l.39-.83c.44,1.03,.94,2.27,1.44,3.62l.27,.72-.74,.27-.98,.36c-1.72,.62-3.34,1.15-4.7,1.55l.39-.83c.66,2.25,.96,3.77,.7,3.86-.25,.09-1-1.27-1.92-3.43l-.24-.56,.63-.27c1.3-.56,2.88-1.18,4.61-1.8,.34-.12,.67-.24,.98-.35l-.47,.99c-.47-1.36-.88-2.63-1.2-3.71l-.19-.66,.58-.17c2.26-.66,3.77-.96,3.86-.7Z"/><path class="cls-4" d="M287.68,45.18c.15,.41-.72,1.09-1.94,1.53-1.22,.44-2.32,.46-2.47,.06-.15-.41,.72-1.09,1.94-1.53,1.22-.44,2.32-.46,2.47-.06Z"/><path class="cls-4" d="M282.93,74.81c-.41,.15-2.13-3.63-3.86-8.42-1.73-4.8-2.8-8.81-2.39-8.95,.41-.15,2.13,3.63,3.86,8.43,1.73,4.8,2.8,8.81,2.39,8.95Z"/><path class="cls-4" d="M290.73,60.1c.15,.41-1.31,1.3-3.25,2-1.94,.7-3.64,.94-3.78,.53-.15-.41,1.31-1.3,3.25-2,1.94-.7,3.63-.94,3.78-.53Z"/><path class="cls-4" d="M294.76,70.87c.15,.41-1.31,1.3-3.25,2-1.94,.7-3.64,.94-3.78,.53-.15-.41,1.31-1.3,3.25-2,1.94-.7,3.63-.94,3.78-.53Z"/></g><g><circle class="cls-8" cx="215.93" cy="31.83" r="28.37"/><circle class="cls-1" cx="215.89" cy="28.38" r="28.37" transform="translate(-1.86 27.73) rotate(-7.32)"/><ellipse class="cls-3" cx="215.89" cy="28.06" rx="21.08" ry="21.62" transform="translate(103.04 214.23) rotate(-66.18)"/><path class="cls-4" d="M207.41,47.26c-10.73-4.74-15.68-17.14-11.28-27.93-.09,.19-.18,.37-.26,.56-4.82,10.92,.12,23.68,11.04,28.5,10.92,4.82,23.68-.12,28.5-11.04,.08-.19,.16-.38,.23-.57-5,10.52-17.5,15.22-28.23,10.48Z"/><path class="cls-8" d="M224.37,8.85c10.73,4.74,15.68,17.14,11.28,27.93,.09-.19,.18-.37,.26-.56,4.82-10.92-.12-23.68-11.04-28.5-10.92-4.82-23.68,.12-28.5,11.04-.08,.19-.16,.38-.23,.57,5-10.52,17.5-15.22,28.23-10.48Z"/><g><path class="cls-8" d="M223.71,38.23c1.23-2.78,.7-5.16-.93-6.75,1.79-.27,3.44-1.47,4.41-3.67,1.21-2.73,.54-5.34-2.05-7.26l1.49-3.37-3.11-1.37-1.38,3.13-1.77-.78,1.38-3.13-3.11-1.37-1.38,3.13-2.83-1.25-1.97-.87-1.37,3.11,1.97,.87-6.68,15.13-2.18-.96-1.37,3.11,2.18,.96h0l2.83,1.25-1.61,3.64,3.11,1.37,1.61-3.64,1.77,.78-1.61,3.64,3.11,1.37,1.66-3.76c3.73,1.06,6.44-.16,7.84-3.32Zm-6.72-17.84l4.21,1.86c2.34,1.03,3.23,2.59,2.36,4.58-.86,1.95-2.62,2.34-4.96,1.31l-4.78-2.11,2.6-5.89,.57,.25Zm-1.79,17.29l-5.1-2.25-.36-.16,2.72-6.16,5.46,2.41c2.55,1.12,3.51,2.68,2.56,4.81s-2.74,2.47-5.28,1.35Z"/><path class="cls-1" d="M222.2,37.57c1.23-2.78,.7-5.16-.93-6.75,1.79-.27,3.44-1.47,4.41-3.67,1.21-2.73,.54-5.34-2.05-7.26l1.49-3.37-3.11-1.37-1.38,3.13-1.77-.78,1.38-3.13-3.11-1.37-1.38,3.13-2.83-1.25-1.97-.87-1.37,3.11,1.97,.87-6.68,15.13-2.18-.96-1.37,3.11,2.18,.96h0l2.83,1.25-1.61,3.64,3.11,1.37,1.61-3.64,1.77,.78-1.61,3.64,3.11,1.37,1.66-3.76c3.73,1.06,6.44-.16,7.84-3.32Zm-6.72-17.84l4.21,1.86c2.34,1.03,3.23,2.59,2.36,4.58-.86,1.95-2.62,2.34-4.96,1.31l-4.78-2.11,2.6-5.89,.57,.25Zm-1.79,17.29l-5.1-2.25-.36-.16,2.72-6.16,5.46,2.41c2.55,1.12,3.51,2.68,2.56,4.81-.94,2.14-2.74,2.47-5.28,1.35Z"/></g><path class="cls-4" d="M220.24,14.37c-.11,.25-1.43-.08-3.37-.78l.85-.33c-.33,.93-.77,2.02-1.26,3.18l-.3,.71-.72-.31c-.27-.12-.55-.24-.84-.36-1.47-.65-2.82-1.3-3.92-1.88l.85-.33c-.96,1.82-1.72,2.96-1.97,2.85-.25-.11,.08-1.44,.78-3.37l.2-.57,.65,.23c1.17,.42,2.55,.98,4.03,1.63,.29,.13,.57,.25,.84,.38l-1.02,.4c.53-1.15,1.04-2.21,1.5-3.08l.32-.61,.53,.28c1.83,.96,2.96,1.72,2.85,1.96Z"/><path class="cls-4" d="M225.75,16.86c-.17,.39-1.16,.34-2.2-.12-1.04-.46-1.74-1.15-1.57-1.55,.17-.39,1.16-.34,2.2,.12,1.04,.46,1.74,1.15,1.57,1.55Z"/><path class="cls-4" d="M204.79,32.83c-.39-.17,.75-3.64,2.56-7.73,1.81-4.1,3.59-7.28,3.99-7.1,.39,.17-.75,3.64-2.56,7.73-1.81,4.1-3.59,7.28-3.99,7.1Z"/><path class="cls-4" d="M218.66,28.2c-.17,.39-1.66,.12-3.32-.61-1.66-.73-2.86-1.65-2.69-2.04,.17-.39,1.66-.12,3.32,.61,1.66,.73,2.86,1.65,2.69,2.04Z"/><path class="cls-4" d="M214.7,37.49c-.17,.39-1.66,.12-3.32-.61-1.66-.73-2.86-1.65-2.69-2.04,.17-.39,1.66-.12,3.32,.61,1.66,.73,2.86,1.65,2.69,2.04Z"/></g><g><path class="cls-10" d="M211.1,329.2c2.64-1.46,5.91-1.51,8.78-.59,2.87,.92,5.38,2.74,7.55,4.83,4.19,4.06,6.82,10.24,8.33,15.87-6.35,1.27-12.93-2.37-16.15-4.43-5.09-3.25-12.31-12.22-8.51-15.69"/><path class="cls-10" d="M246.81,350.65c-3.07-1.38-5.09-4.65-5.33-8.01-.24-3.36,1.15-6.72,3.4-9.23,1.04-1.16,2.42-2.21,3.98-2.14,1.45,.07,2.72,1.16,3.33,2.48,.61,1.32,.66,2.84,.52,4.28-.48,4.97-1.85,9.69-5.9,12.61"/><path class="cls-11" d="M257.08,366.45s-.32-.29-.84-.86c-.57-.63-1.31-1.45-2.19-2.43-1.8-2.07-4.43-4.97-6.12-8.91-1.7-3.91-2.12-7.87-1.71-10.63,.18-1.38,.5-2.47,.78-3.2,.13-.37,.27-.63,.35-.82,.09-.18,.14-.28,.15-.27,.1,.03-.71,1.59-.99,4.32-.32,2.72,.14,6.59,1.81,10.43,1.65,3.86,4.22,6.76,5.96,8.88,.89,1.06,1.61,1.91,2.09,2.52,.48,.61,.73,.95,.71,.97Z"/><path class="cls-11" d="M217.21,335.54s.16,.08,.45,.27c.32,.22,.73,.5,1.24,.84,1.07,.74,2.61,1.82,4.49,3.18,3.77,2.71,8.93,6.54,14.54,10.88,5.6,4.35,10.59,8.4,14.15,11.39,1.78,1.49,3.21,2.71,4.19,3.56,.46,.41,.83,.74,1.12,.99,.25,.23,.38,.36,.37,.37,0,.01-.16-.09-.43-.3-.3-.24-.69-.55-1.17-.93-1.05-.85-2.5-2.02-4.28-3.46-3.61-2.92-8.62-6.94-14.22-11.28-5.6-4.35-10.73-8.2-14.45-10.98-1.83-1.36-3.33-2.48-4.41-3.29-.49-.37-.88-.67-1.19-.91-.27-.21-.41-.33-.4-.34Z"/><path class="cls-10" d="M244.45,359.5c-6.24-3.4-14.15-3.52-20.48-.31-1.61,.82-3.32,2.19-3.17,4,.14,1.81,2.06,2.9,3.8,3.41,7.23,2.12,15.64-.68,20.17-6.71"/><path class="cls-11" d="M228.81,361.91s.34-.22,.99-.55c.32-.17,.72-.37,1.21-.55,.48-.18,1.02-.44,1.65-.61,.62-.19,1.3-.42,2.06-.57,.74-.19,1.56-.31,2.41-.43,1.72-.2,3.63-.25,5.61-.03,1.98,.24,3.83,.73,5.45,1.33,.8,.32,1.57,.63,2.24,1,.7,.33,1.3,.71,1.85,1.06,.57,.32,1.02,.71,1.44,1.01,.42,.3,.76,.59,1.03,.84,.54,.49,.83,.76,.81,.78-.06,.07-1.23-1.04-3.44-2.38-.56-.32-1.16-.69-1.85-1-.67-.35-1.43-.64-2.22-.95-1.6-.57-3.42-1.04-5.37-1.28-1.95-.22-3.83-.17-5.52,0-.84,.11-1.65,.21-2.38,.39-.75,.13-1.42,.34-2.04,.51-2.47,.75-3.9,1.5-3.94,1.42Z"/></g><g><path class="cls-7" d="M174.14,137.36c2.94,.85,5.38,2.91,7.23,5.34,.99,1.31,1.89,2.82,1.85,4.46-.03,1.64-1.35,3.34-2.99,3.23-.97-.06-1.8-.72-2.51-1.4-1.7-1.64-3.31-3.74-5.66-4-1.34-.15-2.78,.34-3.99-.26-1.18-.58-1.7-2.09-1.41-3.38,.29-1.28,1.25-2.33,2.36-3.05,0,0,2.15-1.8,5.11-.95Z"/><path class="cls-7" d="M177.86,124.36c-.42,2.86,2.46,4.51,4.55,4.48,2.08-.03,3.98-1.12,5.77-2.18,4.09-2.42,8.35-5,10.83-9.05,.74-1.21,1.32-2.58,1.31-4,0-1.42-.67-2.9-1.92-3.58-1.48-.8-3.31-.34-4.88,.26-4.62,1.76-8.84,4.57-12.24,8.16-1.59,1.67-3.06,3.62-3.42,5.9"/><path class="cls-7" d="M172.21,123.71c2.78-.32,5.17-2.35,6.43-4.85,1.26-2.5,1.5-5.4,1.26-8.19-.28-3.27-1.21-6.48-2.71-9.39-.59-1.15-1.29-2.27-2.31-3.07-1.02-.79-2.41-1.2-3.63-.78-1.8,.62-2.59,2.69-3.07,4.54-.85,3.25-1.43,6.57-1.76,9.92-.26,2.69-.33,5.53,.85,7.96,1.17,2.44,3.16,4.16,5.34,3.8"/><path class="cls-11" d="M153.23,150.29s.32-.22,.85-.68c.59-.52,1.34-1.17,2.23-1.94,.95-.81,2.09-1.75,3.44-2.68,1.35-.93,2.93-1.82,4.63-2.62,1.72-.78,3.44-1.34,5.05-1.56,1.61-.23,3.1-.1,4.26,.27,1.17,.36,2.04,.88,2.6,1.27,.55,.42,.87,.65,.89,.62,.02-.02-.26-.29-.78-.76-.54-.45-1.41-1.02-2.61-1.43-1.2-.42-2.75-.6-4.41-.38-1.67,.21-3.44,.77-5.18,1.57-1.74,.82-3.32,1.73-4.68,2.69-1.36,.96-2.49,1.94-3.41,2.78-.92,.84-1.64,1.55-2.14,2.05-.49,.5-.75,.78-.73,.81Z"/><path class="cls-11" d="M154.93,148.78s.14-.11,.36-.34c.26-.27,.58-.62,.98-1.04,.85-.9,2.08-2.21,3.65-3.78,3.12-3.15,6.68-6.36,11.83-10.74,4.85-4.12,10.59-8.83,14.59-11.63,.9-.65,1.73-1.21,2.46-1.7,.73-.49,1.36-.92,1.88-1.25,.49-.32,.88-.58,1.2-.78,.27-.18,.41-.29,.4-.3,0-.01-.16,.06-.45,.22-.33,.19-.74,.42-1.24,.71-.54,.31-1.18,.71-1.93,1.19-.75,.47-1.59,1.02-2.51,1.65-3.69,2.48-8.6,6.18-13.77,10.57-5.16,4.39-9.62,8.63-12.69,11.84-1.54,1.6-2.75,2.94-3.56,3.88-.37,.45-.68,.81-.92,1.1-.21,.25-.31,.39-.3,.4Z"/><path class="cls-11" d="M163.08,140.19s.38-.37,1.02-1.09c.62-.74,1.47-1.83,2.44-3.26,.96-1.43,2.05-3.17,3.09-5.19,.49-.91,1.67-3.1,3-6.76,1.84-4.93,2.55-9.72,2.47-13.16,.04-.86-.1-1.64-.15-2.32-.04-.34-.06-.66-.11-.95-.06-.28-.12-.54-.17-.78-.2-.94-.33-1.46-.36-1.45-.12,.02,.48,2.09,.47,5.5-.01,3.4-.75,8.12-2.58,13.01-.97,2.67-1.99,4.91-2.94,6.73-1.02,2.02-2.07,3.76-2.99,5.2-.93,1.43-1.74,2.56-2.32,3.32-.59,.75-.91,1.18-.88,1.2Z"/></g><g><path class="cls-11" d="M387.82,394.18l-111.52-.52c-13.41-.06-24.24-10.98-24.18-24.4l1.18-279.59c.06-13.42,10.98-24.25,24.41-24.19l111.52,.52c13.41,.06,24.24,10.98,24.18,24.4l-1.18,279.59c-.06,13.42-10.98,24.25-24.41,24.19Z"/><path class="cls-4" d="M389.07,76.09l-21.62-.1c-2.9-.01-5.26,2.43-5.27,5.46l-.02,3.92c-.01,3.03-2.37,5.48-5.27,5.46l-42.15-.19c-2.9-.01-5.24-2.48-5.23-5.51l.02-3.92c.01-3.03-2.33-5.5-5.23-5.51l-7.6-.04-18.92-.09c-9.4-.04-17.05,7.54-17.09,16.94l-1.15,272.9c-.04,9.39,7.54,17.04,16.93,17.09l111.3,.51c9.4,.04,17.05-7.54,17.09-16.94l1.15-272.9c.04-9.39-7.54-17.04-16.93-17.09Z"/></g><g><circle class="cls-8" cx="311.46" cy="144.67" r="39.05" transform="translate(-16.63 43.2) rotate(-7.73)"/><circle class="cls-1" cx="314.73" cy="141.24" r="39.05" transform="translate(-16.92 46.32) rotate(-8.2)"/><ellipse class="cls-3" cx="315.05" cy="140.92" rx="29.02" ry="29.76" transform="translate(-29.81 127.32) rotate(-21.84)"/><path class="cls-4" d="M288.22,151.67c-6.01-14.98,1.05-31.96,15.76-38.34-.27,.1-.53,.19-.8,.3-15.25,6.11-22.65,23.43-16.54,38.68,6.11,15.25,23.43,22.65,38.67,16.54,.26-.11,.52-.22,.78-.34-15.05,5.55-31.87-1.85-37.88-16.84Z"/><path class="cls-8" d="M341.87,130.17c6.01,14.98-1.05,31.96-15.76,38.34,.27-.1,.53-.19,.8-.3,15.25-6.11,22.65-23.43,16.54-38.68s-23.43-22.65-38.67-16.54c-.26,.11-.52,.22-.78,.34,15.05-5.55,31.87,1.85,37.88,16.84Z"/><g><path class="cls-8" d="M312.96,158.47c3.88-1.55,5.65-4.41,5.58-7.54,2.02,1.46,4.8,1.87,7.87,.64,3.81-1.53,5.67-4.74,4.96-9.12l4.71-1.89-1.74-4.35-4.37,1.75-.99-2.47,4.37-1.75-1.74-4.35-4.37,1.75-1.59-3.96-1.11-2.76-4.35,1.74,1.11,2.76-21.13,8.47-1.22-3.05-4.35,1.74,1.22,3.05h0l1.59,3.96-5.09,2.04,1.74,4.35,5.09-2.04,.99,2.47-5.09,2.04,1.74,4.35,5.25-2.11c2.65,4.63,6.5,6.04,10.92,4.27Zm10.55-24.03l2.36,5.88c1.31,3.27,.69,5.66-2.08,6.77-2.73,1.09-4.83-.21-6.14-3.48l-2.68-6.68,8.22-3.3,.32,.79Zm-18.4,15.3l-2.85-7.12-.2-.5,8.61-3.45,3.05,7.62c1.43,3.56,.87,6.01-2.11,7.2-2.98,1.2-5.07-.2-6.5-3.75Z"/><path class="cls-1" d="M312.11,156.36c3.88-1.55,5.65-4.41,5.58-7.54,2.02,1.46,4.8,1.87,7.87,.64,3.81-1.53,5.67-4.74,4.96-9.12l4.71-1.89-1.74-4.35-4.37,1.75-.99-2.47,4.37-1.75-1.74-4.35-4.37,1.75-1.59-3.96-1.11-2.76-4.35,1.74,1.11,2.76-21.13,8.47-1.22-3.05-4.35,1.74,1.22,3.05h0l1.59,3.96-5.09,2.04,1.74,4.35,5.09-2.04,.99,2.47-5.09,2.04,1.74,4.35,5.25-2.11c2.65,4.63,6.5,6.04,10.92,4.27Zm10.55-24.03l2.36,5.88c1.31,3.27,.69,5.66-2.08,6.77-2.73,1.09-4.83-.21-6.14-3.48l-2.68-6.68,8.22-3.3,.32,.79Zm-18.4,15.3l-2.85-7.12-.2-.5,8.61-3.45,3.05,7.62c1.43,3.56,.88,6.01-2.11,7.2s-5.07-.2-6.5-3.75Z"/></g><path class="cls-4" d="M332.5,131.63c-.25,.1-1.15-1.52-2.34-4.11l.84,.36c-1.23,.57-2.71,1.21-4.33,1.87l-.71,.29-.29-.73c-.15-.37-.31-.77-.47-1.17-.82-2.06-1.54-3.98-2.1-5.6l.84,.36c-2.68,.92-4.49,1.39-4.59,1.14-.1-.25,1.53-1.16,4.11-2.34l.56-.26,.28,.62c.71,1.55,1.52,3.44,2.35,5.5,.16,.4,.32,.8,.46,1.17l-1.01-.43c1.62-.63,3.14-1.19,4.42-1.63l.64-.22,.2,.58c.93,2.69,1.39,4.49,1.14,4.59Z"/><path class="cls-4" d="M335.52,139.39c-.4,.16-1.2-.89-1.78-2.34-.58-1.45-.73-2.76-.33-2.92,.4-.16,1.2,.89,1.78,2.34,.58,1.45,.73,2.76,.33,2.92Z"/><path class="cls-4" d="M299.53,134.94c-.16-.4,4.35-2.58,10.07-4.88,5.72-2.29,10.49-3.83,10.65-3.43,.16,.4-4.35,2.58-10.07,4.88-5.72,2.29-10.49,3.83-10.65,3.43Z"/><path class="cls-4" d="M317.64,143.73c-.4,.16-1.48-1.59-2.41-3.9-.93-2.32-1.36-4.32-.96-4.48,.4-.16,1.48,1.59,2.41,3.9,.93,2.32,1.36,4.32,.96,4.48Z"/><path class="cls-4" d="M304.8,149.06c-.4,.16-1.48-1.59-2.41-3.9-.93-2.32-1.36-4.32-.96-4.48,.4-.16,1.48,1.59,2.41,3.9,.93,2.31,1.36,4.32,.96,4.48Z"/></g><g><g><path class="cls-10" d="M135.7,394.18l-111.52-.52C10.77,393.6-.06,382.68,0,369.27L1.18,89.68c.06-13.42,10.98-24.25,24.41-24.19l111.52,.52c13.41,.06,24.24,10.98,24.18,24.4l-1.18,279.59c-.06,13.42-10.98,24.25-24.41,24.19Z"/><path class="cls-4" d="M138.26,75.65l-21.62-.1c-2.9-.01-5.26,2.43-5.27,5.46l-.02,3.92c-.01,3.03-2.37,5.48-5.27,5.46l-42.15-.19c-2.9-.01-5.24-2.48-5.23-5.51l.02-3.92c.01-3.03-2.33-5.5-5.23-5.51l-7.6-.04-18.92-.09c-9.4-.04-17.05,7.54-17.09,16.94l-1.15,272.9c-.04,9.39,7.54,17.04,16.93,17.09l111.3,.51c9.4,.04,17.05-7.54,17.09-16.94l1.15-272.9c.04-9.39-7.54-17.04-16.93-17.09Z"/></g><g><circle class="cls-8" cx="108.79" cy="147.97" r="38.91"/><circle class="cls-1" cx="105.49" cy="144.59" r="38.91" transform="translate(-71.34 116.94) rotate(-45)"/><ellipse class="cls-3" cx="105.19" cy="144.27" rx="29.65" ry="28.91" transform="translate(-42.62 44.12) rotate(-19.79)"/><path class="cls-4" d="M114.93,171.36c-15.14,5.45-31.78-2.19-37.62-17.07,.09,.27,.17,.54,.27,.8,5.54,15.4,22.52,23.4,37.92,17.86,15.4-5.54,23.4-22.52,17.86-37.92-.1-.27-.2-.53-.31-.79,4.99,15.19-2.99,31.67-18.12,37.12Z"/><path class="cls-8" d="M95.44,117.17c15.14-5.45,31.78,2.19,37.62,17.07-.09-.27-.17-.54-.27-.8-5.54-15.4-22.52-23.4-37.92-17.86-15.4,5.54-23.4,22.52-17.86,37.92,.1,.27,.2,.53,.31,.79-4.99-15.19,2.99-31.67,18.12-37.12Z"/><g><path class="cls-8" d="M122.58,146.97c-1.41-3.92-4.19-5.78-7.31-5.83,1.53-1.96,2.03-4.72,.91-7.81-1.39-3.85-4.51-5.81-8.9-5.27l-1.71-4.75-4.39,1.58,1.59,4.42-2.49,.9-1.59-4.42-4.39,1.58,1.59,4.42-4,1.44-2.79,1,1.58,4.39,2.79-1,7.68,21.35-3.08,1.11,1.58,4.39,3.08-1.11h0l4-1.44,1.85,5.14,4.39-1.58-1.85-5.14,2.49-.9,1.85,5.14,4.39-1.58-1.91-5.31c4.7-2.48,6.25-6.26,4.64-10.72Zm-23.55-11.36l5.94-2.14c3.3-1.19,5.66-.48,6.67,2.32,.99,2.75-.38,4.8-3.68,5.99l-6.74,2.43-2.99-8.31,.8-.29Zm14.58,18.87l-7.19,2.59-.51,.18-3.13-8.69,7.7-2.77c3.59-1.29,6.01-.66,7.1,2.36,1.08,3.01-.38,5.05-3.97,6.34Z"/><path class="cls-1" d="M120.45,147.74c-1.41-3.92-4.19-5.78-7.31-5.83,1.53-1.96,2.03-4.72,.91-7.81-1.39-3.85-4.51-5.81-8.9-5.27l-1.71-4.75-4.39,1.58,1.59,4.42-2.49,.9-1.59-4.42-4.39,1.58,1.59,4.42-4,1.44-2.79,1,1.58,4.39,2.79-1,7.68,21.35-3.08,1.11,1.58,4.39,3.08-1.11h0l4-1.44,1.85,5.14,4.39-1.58-1.85-5.14,2.49-.9,1.85,5.14,4.39-1.58-1.91-5.31c4.7-2.48,6.25-6.26,4.64-10.72Zm-23.55-11.36l5.94-2.14c3.3-1.19,5.66-.48,6.67,2.32,.99,2.75-.38,4.8-3.68,5.99l-6.74,2.43-2.99-8.31,.8-.29Zm14.58,18.87l-7.19,2.59-.51,.18-3.13-8.69,7.7-2.77c3.59-1.29,6.01-.66,7.1,2.36s-.38,5.05-3.97,6.34Z"/></g><path class="cls-4" d="M96.56,126.56c.09,.25-1.56,1.1-4.17,2.19l.39-.83c.52,1.25,1.11,2.75,1.71,4.37l.27,.72-.74,.27c-.38,.14-.78,.28-1.18,.43-2.08,.75-4.02,1.39-5.65,1.89l.39-.83c.82,2.7,1.22,4.52,.97,4.61-.25,.09-1.1-1.57-2.19-4.17l-.24-.57,.63-.26c1.57-.65,3.48-1.39,5.56-2.14,.41-.14,.81-.29,1.18-.42l-.47,.99c-.57-1.64-1.07-3.17-1.47-4.46l-.2-.65,.59-.18c2.71-.82,4.52-1.22,4.61-.97Z"/><path class="cls-4" d="M104.39,123.83c.15,.41-.92,1.16-2.39,1.69-1.47,.53-2.77,.63-2.92,.22-.15-.41,.92-1.16,2.39-1.69,1.47-.53,2.77-.63,2.92-.22Z"/><path class="cls-4" d="M98.68,159.5c-.41,.15-2.42-4.42-4.5-10.2-2.08-5.78-3.44-10.58-3.03-10.73,.41-.15,2.42,4.42,4.5,10.2,2.08,5.78,3.44,10.58,3.03,10.73Z"/><path class="cls-4" d="M108.07,141.79c.15,.41-1.63,1.42-3.97,2.26-2.34,.84-4.35,1.19-4.5,.79-.15-.41,1.63-1.42,3.97-2.26,2.34-.84,4.35-1.19,4.5-.79Z"/><path class="cls-4" d="M112.92,154.76c.15,.41-1.63,1.42-3.97,2.26-2.34,.84-4.35,1.19-4.5,.79-.15-.41,1.63-1.42,3.97-2.26,2.34-.84,4.35-1.19,4.5-.79Z"/></g></g><g><g><path class="cls-5" d="M295.25,214.55s0,22.73-5.69,24.88c-15.47,5.86-33.98,4.51-40.49,3.89-.78-.54-1.68-1.21-2.71-2.04-.88-.71-1.63-1.58-2.23-2.56-.72-1.18-1.62-2.79-1.85-3.83-.28-1.28-1.94-1.55-2.4-.46-.46,1.09-.31,5.06,2.19,8.43,0,0,.85,1.55-.94,2.42-2.6,1.27-11.82,5.17-13.28,6.05-1.3,.79-2.51,2.08-1.05,2.17,1.46,.09,9.21-1.82,9.21-1.82,0,0-10.2,2.3-9.8,3.77,.28,1.01,3.11,1.23,9.71-.96,0,0-8.39,1.96-9.19,2.94-1.81,2.21,8.31-.05,8.31-.05-7.07,1.65-7.04,1.26-7.02,2.25,.02,.74,1.67,.88,5.61,.53,3.2-.28,6.56,.07,11.46-.09h0s63.19,11.26,68.94-16.63c3.1-15.03,2.58-20.58,3.2-30.3"/><path class="cls-2" d="M239.32,256.49c.05,.18-2.1,.77-4.8,1.33-2.7,.56-4.91,.86-4.94,.68-.03-.18,2.12-.78,4.8-1.33,2.68-.55,4.89-.86,4.94-.68Z"/><path class="cls-2" d="M238.98,253.7c.05,.18-2.21,.94-5.04,1.7-2.83,.76-5.16,1.24-5.21,1.07-.05-.18,2.21-.94,5.04-1.7,2.83-.76,5.16-1.24,5.21-1.07Z"/><path class="cls-2" d="M238.6,250.82c.05,.18-2.07,.93-4.74,1.69-2.67,.76-4.87,1.23-4.92,1.06-.05-.18,2.07-.93,4.74-1.69,2.67-.76,4.87-1.23,4.92-1.06Z"/></g><g><g><path class="cls-7" d="M378.76,218.8s-.35-3.39-2.7-22.37c-1.02-8.26-7.47-12.99-13.49-16.13v-.11l-.52-.15c-7.66-3.85-15.77-4.59-15.77-4.59l-21.29-.35s-14.76-1.12-25.53,8.86c-3.53,3.28-7.15,32.58-7.15,32.58l10.65,3.79-.09-4.32s-.44,8.77,2.46,13.88c2.9,5.11,6.85,12.07,6.85,12.07l-4.54,21.29c-2.82,8.11-12.1,37.75-8.46,67.12,4.51,36.37,5.89,52.25,5.89,52.25l61.5,.28s12.23-54.37,5.53-102.43c-2.98-21.36-11.28-23.7-12.46-28.26l1.34-32.73,17.79-.7Z"/><path class="cls-4" d="M374.82,192.85c0,.14-17.52,.28-39.12,.29-21.61,.02-39.13-.08-39.13-.23s17.51-.28,39.12-.29c21.6-.02,39.12,.08,39.12,.23Z"/><g><path class="cls-4" d="M297,203.23c0,.14-.56,.26-1.25,.26-.69,0-1.25-.12-1.25-.26s.56-.26,1.25-.26c.69,0,1.25,.12,1.25,.26Z"/><path class="cls-4" d="M307.31,203.22c0,.14-1.15,.26-2.58,.26-1.42,0-2.58-.11-2.58-.26,0-.14,1.15-.26,2.58-.26,1.42,0,2.58,.11,2.58,.26Z"/><path class="cls-4" d="M317.63,203.21c0,.14-1.15,.26-2.58,.26-1.42,0-2.58-.11-2.58-.26,0-.14,1.15-.26,2.58-.26,1.42,0,2.58,.11,2.58,.26Z"/><path class="cls-4" d="M327.95,203.2c0,.14-1.15,.26-2.58,.26-1.42,0-2.58-.11-2.58-.26s1.15-.26,2.58-.26c1.42,0,2.58,.11,2.58,.26Z"/><path class="cls-4" d="M338.27,203.19c0,.14-1.15,.26-2.58,.26-1.42,0-2.58-.11-2.58-.26s1.15-.26,2.58-.26c1.42,0,2.58,.11,2.58,.26Z"/><path class="cls-4" d="M348.59,203.19c0,.14-1.15,.26-2.58,.26-1.42,0-2.58-.11-2.58-.26,0-.14,1.15-.26,2.58-.26,1.42,0,2.58,.11,2.58,.26Z"/><path class="cls-4" d="M358.9,203.18c0,.14-1.15,.26-2.58,.26-1.42,0-2.58-.11-2.58-.26,0-.14,1.15-.26,2.58-.26,1.42,0,2.58,.11,2.58,.26Z"/><path class="cls-4" d="M369.22,203.17c0,.14-1.15,.26-2.58,.26-1.42,0-2.58-.11-2.58-.26,0-.14,1.15-.26,2.58-.26,1.42,0,2.58,.11,2.58,.26Z"/><path class="cls-4" d="M376.89,203.16c0,.14-.56,.26-1.25,.26-.69,0-1.25-.12-1.25-.26,0-.14,.56-.26,1.25-.26,.69,0,1.25,.12,1.25,.26Z"/></g><path class="cls-4" d="M352.87,211.81c0,.14-13.36,.26-29.84,.26s-29.85-.12-29.85-.26,13.36-.26,29.85-.26,29.84,.12,29.84,.26Z"/><path class="cls-4" d="M377.17,212.24c0,.14-5.06,.26-11.3,.26s-11.3-.12-11.3-.26,5.06-.26,11.3-.26,11.3,.12,11.3,.26Z"/><path class="cls-4" d="M353.73,231.54c0,.14-8.88,.06-19.83-.2-10.95-.25-19.83-.58-19.82-.72,0-.14,8.88-.05,19.83,.2,10.95,.25,19.82,.58,19.82,.72Z"/><path class="cls-4" d="M370.57,273.85c0,.14-11.84,.26-26.43,.26s-26.43-.12-26.43-.26,11.83-.26,26.43-.26,26.43,.12,26.43,.26Z"/><path class="cls-4" d="M372.49,297.08c0,.14-16.42,.26-36.66,.26s-36.67-.12-36.67-.26,16.41-.26,36.67-.26,36.66,.12,36.66,.26Z"/><path class="cls-4" d="M373.12,324.16c0,.14-16.61,.26-37.09,.26s-37.09-.12-37.09-.26,16.6-.26,37.09-.26,37.09,.12,37.09,.26Z"/><path class="cls-4" d="M371.8,349.95c0,.14-15.64,.26-34.94,.26s-34.94-.12-34.94-.26,15.64-.26,34.94-.26,34.94,.12,34.94,.26Z"/><path class="cls-4" d="M368.6,372.33c0,.14-14.35,.26-32.06,.26s-32.06-.12-32.06-.26,14.35-.26,32.06-.26,32.06,.12,32.06,.26Z"/><g><path class="cls-4" d="M310.8,223.62c0,.14-.56,.26-1.25,.26s-1.25-.12-1.25-.26,.56-.26,1.25-.26,1.25,.12,1.25,.26Z"/><path class="cls-4" d="M319.94,223.62c0,.14-1.02,.26-2.29,.26s-2.29-.12-2.29-.26,1.02-.26,2.29-.26,2.29,.12,2.29,.26Z"/><path class="cls-4" d="M329.09,223.62c0,.14-1.02,.26-2.29,.26s-2.29-.12-2.29-.26,1.02-.26,2.29-.26,2.29,.12,2.29,.26Z"/><path class="cls-4" d="M338.23,223.62c0,.14-1.02,.26-2.29,.26s-2.29-.12-2.29-.26,1.02-.26,2.29-.26,2.29,.12,2.29,.26Z"/><path class="cls-4" d="M347.38,223.62c0,.14-1.02,.26-2.29,.26s-2.29-.12-2.29-.26,1.02-.26,2.29-.26,2.29,.12,2.29,.26Z"/><path class="cls-4" d="M354.45,223.62c0,.14-.56,.26-1.25,.26s-1.25-.12-1.25-.26,.56-.26,1.25-.26,1.25,.12,1.25,.26Z"/></g><g><path class="cls-4" d="M322.62,241.88c0,.14-.56,.26-1.25,.27-.69,0-1.25-.11-1.25-.26s.56-.26,1.25-.27c.69,0,1.25,.11,1.25,.25Z"/><path class="cls-4" d="M333.55,241.83c0,.14-1.22,.27-2.73,.27-1.51,0-2.73-.1-2.73-.25,0-.14,1.22-.27,2.73-.27,1.51,0,2.73,.1,2.73,.25Z"/><path class="cls-4" d="M344.47,241.78c0,.14-1.22,.27-2.73,.27-1.51,0-2.73-.1-2.73-.25,0-.14,1.22-.27,2.73-.27,1.51,0,2.73,.1,2.73,.25Z"/><path class="cls-4" d="M352.43,241.75c0,.14-.56,.26-1.25,.27-.69,0-1.25-.11-1.25-.25,0-.14,.56-.26,1.25-.27,.69,0,1.25,.11,1.25,.26Z"/></g><g><path class="cls-4" d="M310.51,285.92c0,.14-.56,.26-1.25,.26s-1.25-.12-1.25-.26,.56-.26,1.25-.26,1.25,.12,1.25,.26Z"/><path class="cls-4" d="M321.24,285.92c0,.14-1.2,.26-2.68,.26s-2.68-.12-2.68-.26,1.2-.26,2.68-.26,2.68,.12,2.68,.26Z"/><path class="cls-4" d="M331.98,285.92c0,.14-1.2,.26-2.68,.26s-2.68-.12-2.68-.26,1.2-.26,2.68-.26,2.68,.12,2.68,.26Z"/><path class="cls-4" d="M342.71,285.92c0,.14-1.2,.26-2.68,.26s-2.68-.12-2.68-.26,1.2-.26,2.68-.26,2.68,.12,2.68,.26Z"/><path class="cls-4" d="M353.44,285.92c0,.14-1.2,.26-2.68,.26s-2.68-.12-2.68-.26,1.2-.26,2.68-.26,2.68,.12,2.68,.26Z"/><path class="cls-4" d="M364.17,285.92c0,.14-1.2,.26-2.68,.26s-2.68-.12-2.68-.26,1.2-.26,2.68-.26,2.68,.12,2.68,.26Z"/><path class="cls-4" d="M372.04,285.92c0,.14-.56,.26-1.25,.26s-1.25-.12-1.25-.26,.56-.26,1.25-.26,1.25,.12,1.25,.26Z"/></g><g><path class="cls-4" d="M300.99,311.88c0,.14-.56,.26-1.25,.26s-1.25-.12-1.25-.26,.56-.26,1.25-.26,1.25,.12,1.25,.26Z"/><path class="cls-4" d="M311.72,311.88c0,.14-1.2,.26-2.68,.26s-2.68-.12-2.68-.26,1.2-.26,2.68-.26,2.68,.12,2.68,.26Z"/><path class="cls-4" d="M322.44,311.88c0,.14-1.2,.26-2.68,.26s-2.68-.12-2.68-.26,1.2-.26,2.68-.26,2.68,.12,2.68,.26Z"/><path class="cls-4" d="M333.16,311.88c0,.14-1.2,.26-2.68,.26s-2.68-.12-2.68-.26,1.2-.26,2.68-.26,2.68,.12,2.68,.26Z"/><path class="cls-4" d="M343.89,311.88c0,.14-1.2,.26-2.68,.26s-2.68-.12-2.68-.26,1.2-.26,2.68-.26,2.68,.12,2.68,.26Z"/><path class="cls-4" d="M354.61,311.88c0,.14-1.2,.26-2.68,.26s-2.68-.12-2.68-.26,1.2-.26,2.68-.26,2.68,.12,2.68,.26Z"/><path class="cls-4" d="M365.33,311.88c0,.14-1.2,.26-2.68,.26s-2.68-.12-2.68-.26,1.2-.26,2.68-.26,2.68,.12,2.68,.26Z"/><ellipse class="cls-4" cx="371.94" cy="311.88" rx="1.25" ry=".26"/></g><g><path class="cls-4" d="M302.44,339.28c0,.14-.56,.26-1.25,.26s-1.25-.12-1.25-.26,.56-.26,1.25-.26,1.25,.12,1.25,.26Z"/><path class="cls-4" d="M312.8,339.28c0,.14-1.16,.26-2.59,.26s-2.59-.12-2.59-.26,1.16-.26,2.59-.26,2.59,.12,2.59,.26Z"/><path class="cls-4" d="M323.17,339.28c0,.14-1.16,.26-2.59,.26s-2.59-.12-2.59-.26,1.16-.26,2.59-.26,2.59,.12,2.59,.26Z"/><path class="cls-4" d="M333.54,339.28c0,.14-1.16,.26-2.59,.26s-2.59-.12-2.59-.26,1.16-.26,2.59-.26,2.59,.12,2.59,.26Z"/><path class="cls-4" d="M343.91,339.28c0,.14-1.16,.26-2.59,.26s-2.59-.12-2.59-.26,1.16-.26,2.59-.26,2.59,.12,2.59,.26Z"/><path class="cls-4" d="M354.28,339.28c0,.14-1.16,.26-2.59,.26s-2.59-.12-2.59-.26,1.16-.26,2.59-.26,2.59,.12,2.59,.26Z"/><path class="cls-4" d="M364.64,339.28c0,.14-1.16,.26-2.59,.26s-2.59-.12-2.59-.26,1.16-.26,2.59-.26,2.59,.12,2.59,.26Z"/><path class="cls-4" d="M372.33,339.28c0,.14-.56,.26-1.25,.26s-1.25-.12-1.25-.26,.56-.26,1.25-.26,1.25,.12,1.25,.26Z"/></g><g><path class="cls-4" d="M305.9,362.35c0,.14-.56,.26-1.25,.26s-1.25-.12-1.25-.26,.56-.26,1.25-.26,1.25,.12,1.25,.26Z"/><path class="cls-4" d="M316.37,362.35c0,.14-1.17,.26-2.62,.26s-2.62-.12-2.62-.26,1.17-.26,2.62-.26,2.62,.12,2.62,.26Z"/><path class="cls-4" d="M326.84,362.35c0,.14-1.17,.26-2.62,.26s-2.62-.12-2.62-.26,1.17-.26,2.62-.26,2.62,.12,2.62,.26Z"/><path class="cls-4" d="M337.31,362.35c0,.14-1.17,.26-2.62,.26s-2.62-.12-2.62-.26,1.17-.26,2.62-.26,2.62,.12,2.62,.26Z"/><path class="cls-4" d="M347.78,362.35c0,.14-1.17,.26-2.62,.26s-2.62-.12-2.62-.26,1.17-.26,2.62-.26,2.62,.12,2.62,.26Z"/><path class="cls-4" d="M358.25,362.35c0,.14-1.17,.26-2.62,.26s-2.62-.12-2.62-.26,1.17-.26,2.62-.26,2.62,.12,2.62,.26Z"/><path class="cls-4" d="M365.98,362.35c0,.14-.56,.26-1.25,.26s-1.25-.12-1.25-.26,.56-.26,1.25-.26,1.25,.12,1.25,.26Z"/></g><path class="cls-11" d="M353.02,248.72s-.58,.16-1.64,.33c-1.06,.17-2.6,.37-4.52,.57-3.82,.4-9.14,.72-15.01,.62-5.87-.11-11.17-.62-14.98-1.15-1.9-.27-3.44-.52-4.49-.73-1.06-.21-1.64-.34-1.63-.39,0-.05,.6,0,1.67,.13,1.2,.14,2.71,.31,4.51,.52,3.81,.41,9.09,.84,14.93,.95,5.84,.1,11.13-.14,14.96-.42,1.81-.14,3.33-.26,4.53-.36,1.07-.09,1.66-.12,1.67-.07Z"/><path class="cls-11" d="M355.51,235.81s-.1-.54-.15-1.51c-.06-1.11-.13-2.49-.21-4.12-.18-3.63-.41-8.37-.66-13.61-.25-5.32-.42-10.14-.47-13.63-.02-1.74-.02-3.16,0-4.13,.02-.98,.06-1.52,.1-1.52,.05,0,.1,.54,.15,1.51,.06,1.11,.13,2.49,.21,4.12,.18,3.63,.41,8.37,.66,13.61,.25,5.32,.42,10.13,.47,13.62,.02,1.75,.02,3.16,0,4.13-.02,.98-.06,1.52-.1,1.52Z"/></g><g class="cls-14"><path d="M320.79,249.3c4.87-.44,9.77-.89,14.45-2.31,4.68-1.42,9.17-3.89,12.19-7.73,3.92-4.99,4.64-11.67,5.09-18,.5-6.94,.69-14.17,1.8-21.69l1.29,34.72,.02,15.96-17,7.24-17.83-8.19Z"/></g><g><ellipse class="cls-11" cx="280.7" cy="255.3" rx="41.89" ry="40.97"/><ellipse class="cls-10" cx="278.15" cy="250.99" rx="41.89" ry="40.97"/><ellipse class="cls-12" cx="277.92" cy="250.58" rx="31.92" ry="30.45" transform="translate(-12.53 14.63) rotate(-2.95)"/><path class="cls-4" d="M280.92,280.75c-17.24,1.64-32.59-10.46-34.73-27.16,.02,.3,.04,.59,.07,.89,1.7,17.15,17.31,29.71,34.84,28.04,17.54-1.67,30.37-16.93,28.67-34.08-.03-.3-.07-.59-.11-.88,1.18,16.79-11.5,31.55-28.73,33.19Z"/><path class="cls-13" d="M274.92,220.4c17.24-1.64,32.59,10.46,34.73,27.16-.02-.3-.04-.59-.07-.89-1.7-17.15-17.31-29.71-34.84-28.04-17.54,1.67-30.37,16.93-28.67,34.08,.03,.3,.07,.59,.11,.88-1.18-16.79,11.5-31.55,28.73-33.19Z"/><g><path class="cls-11" d="M295.35,257.85c-.43-4.36-2.84-6.99-6.09-7.84,2.12-1.6,3.37-4.29,3.02-7.74-.43-4.29-3.17-7.1-7.9-7.68l-.53-5.29-5,.48,.49,4.92-2.84,.27-.49-4.92-5,.48,.49,4.92-4.55,.43-3.17,.3,.49,4.89,3.17-.3,2.36,23.77-3.51,.33,.49,4.89,3.51-.33h0l4.55-.43,.57,5.72,5-.48-.57-5.72,2.84-.27,.57,5.72,5-.48-.59-5.91c5.56-1.31,8.18-4.77,7.68-9.74Zm-21.56-17.69l6.77-.64c3.76-.36,6.04,.97,6.35,4.09,.3,3.07-1.67,4.8-5.43,5.16l-7.68,.73-.92-9.25,.91-.09Zm10.22,23.03l-8.19,.78-.58,.05-.96-9.68,8.76-.83c4.09-.39,6.45,.89,6.78,4.24s-1.73,5.05-5.82,5.44Z"/><path class="cls-10" d="M292.93,258.08c-.43-4.36-2.84-6.99-6.09-7.84,2.12-1.6,3.37-4.29,3.02-7.74-.43-4.29-3.17-7.1-7.9-7.68l-.53-5.29-5,.48,.49,4.92-2.84,.27-.49-4.92-5,.48,.49,4.92-4.55,.43-3.17,.3,.49,4.89,3.17-.3,2.36,23.77-3.51,.33,.49,4.89,3.51-.33h0l4.55-.43,.57,5.72,5-.48-.57-5.72,2.84-.27,.57,5.72,5-.48-.59-5.91c5.56-1.31,8.18-4.77,7.68-9.74Zm-21.56-17.69l6.77-.64c3.76-.36,6.04,.97,6.35,4.09,.3,3.07-1.67,4.8-5.43,5.16l-7.68,.73-.92-9.25,.91-.09Zm10.22,23.03l-8.19,.78-.58,.05-.96-9.68,8.76-.83c4.09-.39,6.45,.89,6.78,4.24s-1.73,5.05-5.82,5.44Z"/></g><path class="cls-4" d="M316.01,233.36s-.07-.09-.19-.28c-.13-.22-.29-.5-.5-.85-.22-.39-.49-.85-.8-1.39-.31-.55-.65-1.2-1.15-1.85-.48-.67-1-1.42-1.58-2.23-.57-.82-1.34-1.59-2.09-2.49-.73-.92-1.65-1.75-2.61-2.66-.49-.44-.95-.95-1.5-1.37-.55-.43-1.11-.87-1.69-1.32-2.3-1.82-5.1-3.42-8.2-4.91-.8-.32-1.61-.64-2.44-.97-.41-.16-.83-.34-1.25-.49-.43-.13-.87-.25-1.31-.38-.88-.25-1.77-.54-2.68-.76-.93-.18-1.86-.36-2.81-.54-.94-.23-1.93-.25-2.91-.36-.99-.09-1.98-.23-3-.19-1.01,0-2.04,0-3.07,0-1.03,.1-2.07,.19-3.12,.29-4.17,.56-8.43,1.65-12.49,3.51-4.04,1.9-7.7,4.33-10.85,7.14-3.1,2.86-5.61,6.09-7.63,9.39-.46,.85-.91,1.69-1.36,2.52l-.33,.62-.27,.65c-.18,.43-.36,.85-.54,1.28-.78,1.66-1.22,3.4-1.75,5.03-.25,.82-.37,1.67-.55,2.47-.15,.82-.39,1.6-.43,2.4-.14,1.59-.42,3.11-.36,4.58-.01,1.47-.06,2.86,.12,4.17,.13,1.31,.19,2.56,.47,3.7,.24,1.14,.38,2.22,.66,3.18,.29,.95,.55,1.83,.79,2.62,.21,.8,.51,1.46,.75,2.05,.24,.58,.44,1.07,.6,1.48,.15,.38,.27,.68,.36,.92,.08,.21,.12,.32,.11,.32,0,0-.06-.1-.16-.3-.1-.23-.24-.52-.41-.9-.18-.41-.4-.9-.65-1.47-.26-.58-.57-1.24-.79-2.04-.25-.79-.53-1.66-.83-2.62-.3-.96-.45-2.05-.71-3.19-.29-1.14-.37-2.4-.51-3.72-.19-1.32-.16-2.73-.16-4.21-.07-1.48,.2-3.02,.33-4.63,.04-.81,.28-1.61,.42-2.43,.18-.82,.29-1.67,.55-2.5,.52-1.66,.96-3.41,1.74-5.1,.18-.43,.36-.86,.54-1.29l.27-.65,.34-.63c.45-.84,.91-1.69,1.37-2.56,2.03-3.34,4.56-6.62,7.7-9.52,3.18-2.84,6.88-5.31,10.97-7.23,4.12-1.88,8.43-2.99,12.65-3.54,1.06-.1,2.11-.19,3.15-.29,1.05,0,2.08,0,3.11,0,1.03-.04,2.03,.11,3.03,.2,.99,.12,1.99,.15,2.94,.38,.96,.19,1.91,.38,2.84,.56,.93,.22,1.82,.52,2.71,.78,.44,.13,.88,.26,1.32,.39,.43,.15,.85,.33,1.26,.5,.83,.34,1.65,.67,2.46,.99,3.13,1.52,5.94,3.15,8.25,5.01,.58,.46,1.14,.91,1.7,1.34,.56,.43,1.01,.95,1.5,1.4,.96,.93,1.88,1.77,2.6,2.71,.74,.91,1.5,1.7,2.07,2.53l1.55,2.27c.49,.67,.82,1.32,1.12,1.88,.29,.55,.55,1.02,.75,1.42,.19,.36,.34,.65,.45,.88,.1,.2,.15,.3,.14,.31Z"/><path class="cls-4" d="M273.6,230.27s-.48,.13-1.35,.25c-.87,.12-2.11,.27-3.63,.44l.19-.24c.16,1.46,.34,3.13,.53,4.92l.03,.26-.26,.03c-.43,.04-.89,.09-1.35,.13-2.34,.21-4.51,.4-6.38,.56l.19-.23c.12,1.48,.21,2.71,.26,3.56,.05,.86,.05,1.34,.01,1.35-.04,0-.13-.47-.26-1.32-.12-.85-.27-2.07-.44-3.54l-.02-.21,.22-.02c1.87-.19,4.04-.41,6.37-.65l1.35-.13-.23,.28c-.16-1.79-.31-3.46-.45-4.92l-.02-.22,.21-.02c1.52-.12,2.77-.21,3.64-.25,.87-.05,1.37-.05,1.38,0Z"/><path class="cls-4" d="M282.5,229.51c.01,.14-1.33,.39-3,.55-1.67,.16-3.03,.17-3.05,.03-.01-.14,1.33-.39,3-.55,1.67-.16,3.03-.17,3.05-.03Z"/><path class="cls-4" d="M267.09,264.44c-.14,.01-.78-5.19-1.42-11.63-.64-6.44-1.04-11.67-.9-11.68,.14-.01,.78,5.19,1.42,11.63,.64,6.44,1.04,11.66,.9,11.68Z"/><path class="cls-4" d="M281.58,248.8c.01,.14-2.13,.46-4.8,.72-2.66,.25-4.83,.34-4.85,.2-.01-.14,2.13-.46,4.8-.72,2.66-.25,4.83-.34,4.85-.2Z"/><path class="cls-4" d="M283.21,263.29c.01,.14-2.13,.46-4.8,.72-2.66,.25-4.83,.34-4.85,.2-.01-.14,2.13-.46,4.8-.72,2.66-.25,4.83-.34,4.85-.2Z"/><path class="cls-11" d="M304.72,288.99c-.12,.07-.78-.83-1.48-2.01-.69-1.18-1.15-2.2-1.03-2.28,.12-.07,.78,.83,1.48,2.01,.69,1.18,1.15,2.2,1.03,2.28Z"/></g><g><path class="cls-5" d="M355.25,218.8s.38,24.13-5.31,26.29c-15.47,5.86-33.98,4.51-40.49,3.89-.78-.54-1.68-1.21-2.71-2.04-.88-.71-1.63-1.58-2.23-2.56-.72-1.18-1.62-2.79-1.85-3.83-.28-1.28-1.94-1.55-2.4-.46-.46,1.09-.31,5.06,2.19,8.43,0,0,.85,1.55-.94,2.42-2.6,1.27-11.82,5.17-13.28,6.05-1.3,.79-2.51,2.08-1.05,2.17,1.46,.09,9.21-1.82,9.21-1.82,0,0-10.2,2.3-9.8,3.77,.28,1.01,3.11,1.23,9.71-.96,0,0-8.39,1.96-9.19,2.94-1.81,2.21,8.31-.05,8.31-.05-7.07,1.65-7.04,1.26-7.02,2.25,.02,.74,1.67,.88,5.61,.53,3.2-.28,6.56,.07,11.46-.09h0s63.19,11.26,68.94-16.63c3.1-15.03,2.58-20.58,3.2-30.3"/><path class="cls-2" d="M299.7,262.15c.05,.18-2.1,.77-4.8,1.33-2.7,.56-4.91,.86-4.94,.68-.03-.18,2.12-.78,4.8-1.33,2.68-.55,4.89-.86,4.94-.68Z"/><path class="cls-2" d="M299.35,259.36c.05,.18-2.21,.94-5.04,1.7-2.83,.76-5.16,1.24-5.21,1.07-.05-.18,2.21-.94,5.04-1.7,2.83-.76,5.16-1.24,5.21-1.07Z"/><path class="cls-2" d="M298.98,256.47c.05,.18-2.07,.93-4.74,1.69-2.67,.76-4.87,1.23-4.92,1.06-.05-.18,2.07-.93,4.74-1.69,2.67-.76,4.87-1.23,4.92-1.06Z"/></g><g><path class="cls-11" d="M318.79,121.67c-2.82,1.43-5.75,8.59-5.55,11.74,.2,3.16,1.03,6.39,.13,9.42-.65,2.21-2.18,4.13-2.58,6.4-.37,2.15,.32,4.34,1.14,6.37,.81,2.03,1.76,4.06,1.91,6.24,.16,2.18-.69,4.6-2.63,5.59,8.98,.91,18.09,.49,26.94-1.24"/><g><g><path class="cls-5" d="M324.33,178.42c.56-5.91,1.05-12.15,1.05-12.15,0,0-7.49-2.01-8.09-12.1-.57-9.62,3.14-31.35,3.14-31.35h0c11.4-3.39,24.09,.86,31.04,10.4h0l-5.37,47.95c-.62,5.57-5.91,9.46-11.86,8.75h0c-6.01-.72-10.45-5.87-9.91-11.5Z"/><g><path class="cls-11" d="M319.64,139.96c-.09,.67,.4,1.3,1.1,1.41,.7,.11,1.34-.35,1.43-1.02,.09-.67-.4-1.3-1.1-1.41-.7-.11-1.34,.35-1.43,1.02Z"/><path class="cls-11" d="M319.65,138.56c.14,.18,1.18-.44,2.55-.3,1.37,.12,2.31,.92,2.47,.77,.08-.07-.05-.38-.46-.74-.4-.36-1.11-.74-1.96-.82-.85-.08-1.6,.16-2.05,.45-.45,.28-.63,.57-.56,.65Z"/></g><g><path class="cls-11" d="M333.9,141.81c-.09,.67,.4,1.3,1.1,1.41,.7,.11,1.34-.35,1.43-1.02,.09-.67-.4-1.3-1.1-1.41-.7-.11-1.34,.35-1.43,1.02Z"/><path class="cls-11" d="M333.9,140.47c.14,.18,1.18-.44,2.55-.3,1.37,.12,2.31,.92,2.47,.77,.08-.07-.05-.38-.46-.74-.4-.36-1.1-.74-1.96-.82-.85-.08-1.6,.16-2.05,.45-.45,.28-.63,.57-.56,.65Z"/></g><path class="cls-11" d="M327.93,150.14c.01-.08-.82-.31-2.19-.62-.35-.07-.67-.17-.71-.42-.06-.26,.13-.62,.34-1.01,.41-.81,.84-1.67,1.3-2.56,1.81-3.65,3.16-6.67,3.01-6.74-.15-.07-1.74,2.83-3.55,6.49-.44,.9-.86,1.76-1.26,2.58-.17,.38-.44,.81-.32,1.36,.07,.27,.31,.49,.53,.57,.22,.09,.41,.11,.59,.14,1.38,.21,2.24,.3,2.26,.23Z"/><path class="cls-2" d="M325.38,166.27s6.64,1.09,13.65-2.24c0,0-3.9,6.51-13.75,4.6l.1-2.36Z"/><path class="cls-2" d="M328.18,153.5c.56-.6,1.46-.88,2.3-.7,.59,.12,1.16,.47,1.48,.99,.31,.52,.32,1.22-.05,1.64-.42,.48-1.21,.53-1.84,.28-.64-.25-1.16-.74-1.65-1.22-.14-.13-.28-.27-.35-.44-.08-.17-.08-.39,.05-.51"/><path class="cls-11" d="M331.87,151.49c-.22-.03-.37,1.45-1.75,2.38-1.38,.93-2.95,.61-2.98,.82-.03,.09,.33,.32,.99,.41,.65,.09,1.63-.03,2.48-.6,.84-.57,1.26-1.4,1.37-2.01,.12-.62-.01-1-.11-1Z"/></g><path class="cls-5" d="M346.75,143.82c1.08-.1,2.2,.04,3.18,.52,.97,.48,1.79,1.32,2.13,2.35,.34,1.04,.18,2.19-.29,3.18-.47,.98-1.23,1.81-2.07,2.49-.61,.49-1.29,.93-2.05,1.09-.77,.16-1.63,0-2.18-.56"/><path class="cls-2" d="M346.7,150.32c-.13,.03,.27,.72,1.27,.55,.48-.08,.98-.44,1.3-.93,.33-.49,.57-1.05,.7-1.71,.13-.66,.05-1.38-.27-1.91-.3-.55-.84-.9-1.31-.96-1-.12-1.37,.54-1.26,.57,.07,.09,.49-.23,1.13,0,.62,.18,1.15,1.1,.91,2.16-.23,1.08-.74,2.04-1.35,2.23-.64,.25-1.05-.07-1.12,0Z"/></g><path class="cls-11" d="M364.37,155.5c.4-2.87,.16-5.91-1.24-8.45-1.05-1.91-2.7-3.45-3.58-5.44-1.01-2.26-.93-4.84-1.29-7.29-.87-5.9-4.58-11.32-9.77-14.27-4.89-2.78-12.41-5.3-17.91-1.54-1.05-.63-2.3-.95-3.63-1-2.32-.09-4.59,.81-6.5,2.14-2.38,1.66-4.29,4.03-5.24,6.77-.95,2.74-.89,5.85,.33,8.49,.33,.72,.85,1.48,1.64,1.57,.61,.07,1.18-.27,1.67-.62,3.4-2.41,7.01-5.96,10.01-9.87,3.44,4.58,7.79,8.48,12.76,11.33,1.3,.74,2.71,1.49,3.44,2.79,.72,1.29,.63,2.87,.51,4.35-.55,7.07-1.11,14.14-1.66,21.21,2.41,.87,4.98,1.3,7.55,1.26,.57,0,1.18-.05,1.62-.42,1.06-.9,.44-3.11,1.74-3.63-.05,1.72,.91,3.42,2.4,4.27,1.49,.85,3.45,.81,4.9-.1-.28-.66-.56-1.32-.84-1.98,.31-.35,.5-.81,.67-1.25,1-2.72,2.01-5.46,2.42-8.33Z"/><path class="cls-11" d="M350.83,136.45s-.35,.24-1.05,.55c-.7,.31-1.75,.67-3.1,.91-2.66,.51-6.68,.37-10.4-1.67-3.72-2.05-5.99-5.37-6.98-7.89-.51-1.27-.77-2.35-.89-3.11-.12-.75-.12-1.18-.09-1.18,.11-.02,.23,1.68,1.32,4.14,1.06,2.43,3.3,5.6,6.89,7.58,3.59,1.97,7.47,2.17,10.09,1.76,2.66-.39,4.16-1.2,4.2-1.1Z"/><path class="cls-11" d="M313.09,160.93s-.35-.49-.89-1.42c-.52-.94-1.3-2.31-1.95-4.15-.64-1.82-1.14-4.21-.49-6.78,.16-.63,.41-1.27,.74-1.87,.33-.6,.74-1.15,1.11-1.73,.37-.57,.66-1.18,.79-1.85,.14-.67,.14-1.38,.12-2.11-.15-2.93-.15-5.77,.23-8.31,.36-2.55,1.11-4.78,2.03-6.49,.91-1.72,2.01-2.92,2.89-3.56,.44-.32,.81-.53,1.07-.65,.26-.12,.41-.16,.41-.15,.02,.05-.54,.27-1.36,.95-.82,.68-1.84,1.87-2.69,3.57-.86,1.7-1.56,3.88-1.89,6.39-.34,2.51-.33,5.29-.19,8.23,.03,.74,.02,1.49-.13,2.23-.14,.74-.49,1.43-.87,2.01-.38,.6-.79,1.14-1.1,1.7-.32,.56-.55,1.15-.71,1.75-.64,2.42-.21,4.74,.38,6.54,.6,1.81,1.31,3.2,1.78,4.17,.48,.96,.74,1.5,.71,1.52Z"/><path class="cls-10" d="M353.49,166.18s-.18-.11-.48-.36c-.29-.27-.7-.69-1.1-1.34-.81-1.27-1.51-3.46-1.25-6.16,.21-2.71,1.45-5.7,2.49-9.03,.5-1.67,.9-3.47,.87-5.35,0-1.88-.61-3.78-1.81-5.37-1.19-1.6-2.75-2.83-4.28-3.95-1.54-1.11-3.08-2.16-4.48-3.24-2.81-2.14-5.19-4.25-7.11-6.1-1.92-1.85-3.37-3.45-4.35-4.57-.49-.56-.86-1.01-1.1-1.32-.24-.31-.37-.47-.35-.49s.16,.13,.43,.42c.31,.33,.69,.74,1.17,1.25,1.02,1.08,2.51,2.63,4.45,4.44,1.94,1.81,4.33,3.88,7.14,5.99,1.4,1.06,2.92,2.09,4.49,3.21,1.55,1.13,3.15,2.39,4.4,4.06,1.26,1.66,1.91,3.72,1.9,5.67,.02,1.96-.4,3.81-.92,5.5-1.08,3.36-2.33,6.29-2.59,8.92-.3,2.62,.33,4.76,1.06,6.02,.74,1.28,1.45,1.76,1.4,1.8Z"/><path class="cls-10" d="M356.76,136.17s-.39-.1-1.06-.37c-.67-.26-1.63-.69-2.79-1.26-2.32-1.13-5.44-2.9-8.63-5.22-3.19-2.33-5.83-4.75-7.62-6.61-.9-.93-1.6-1.71-2.05-2.27-.46-.56-.7-.87-.68-.9,.06-.06,1.14,1.12,2.99,2.9,1.85,1.79,4.5,4.14,7.67,6.45,3.17,2.3,6.23,4.11,8.49,5.32,2.27,1.21,3.71,1.88,3.68,1.95Z"/><path class="cls-10" d="M316.12,133.45c-.05-.07,.85-.67,2.2-1.77,1.35-1.09,3.12-2.71,4.79-4.75,1.67-2.04,2.92-4.1,3.73-5.63,.81-1.53,1.22-2.53,1.3-2.5,.06,.02-.24,1.07-.97,2.66-.73,1.59-1.95,3.72-3.66,5.8-1.71,2.08-3.55,3.69-4.97,4.72-1.42,1.03-2.39,1.52-2.42,1.47Z"/></g></g></g><g><g><g><g><path class="cls-11" d="M62.68,134.09c.26,.83-.01,1.81-.67,2.38-.66,.57-1.67,.7-2.45,.31-1.49-.73-1.7-2.77-1.43-4.4,.27-1.63,.8-3.38,.1-4.88-.54-1.15-1.68-1.87-2.58-2.76-1.56-1.56-2.41-3.86-2.06-6.04,.35-2.18,1.96-4.16,4.08-4.78,2.16-.63,4.85,0,6.45-1.59,1.16-1.15,1.21-3.02,2.1-4.39,1.38-2.13,4.35-2.5,6.87-2.19,2.52,.31,5.09,1.09,7.54,.45,2.05-.54,3.72-1.99,5.64-2.9,4.15-1.96,9.5-.99,12.71,2.3,3.2,3.29,4.02,8.67,1.94,12.77-.75,1.47-2.23,5.72-6.95,5.72"/><g><path class="cls-6" d="M61.7,116.46l.07,3.38,.68,50.62c.08,5.88,5.19,10.49,11.48,10.36h0c6.35-.13,11.51-5.05,11.53-10.99,.02-6.23,.15-12.79,.15-12.79,0,0,8.03-1.33,9.69-11.81,.83-5.21,.57-13.75,.13-20.73-.4-6.28-5.94-10.97-12.2-10.31l-21.53,2.28Z"/><g><path class="cls-11" d="M93.29,130.44c.03,.71-.55,1.32-1.3,1.36-.74,.04-1.36-.5-1.38-1.21-.03-.71,.55-1.32,1.29-1.36,.74-.04,1.36,.5,1.39,1.21Z"/><path class="cls-11" d="M93.59,128.94c-.17,.18-1.18-.58-2.63-.57-1.44-.02-2.5,.73-2.66,.55-.08-.08,.09-.39,.55-.73,.45-.34,1.23-.66,2.13-.66,.9,0,1.66,.34,2.09,.68,.44,.34,.6,.66,.51,.74Z"/></g><g><path class="cls-11" d="M78.82,130.44c.03,.71-.55,1.32-1.3,1.36-.74,.04-1.36-.5-1.38-1.21-.03-.71,.55-1.32,1.29-1.36,.74-.04,1.36,.5,1.39,1.21Z"/><path class="cls-11" d="M79.38,129.2c-.17,.18-1.19-.58-2.63-.57-1.44-.02-2.5,.73-2.66,.55-.08-.08,.09-.39,.55-.73,.45-.33,1.23-.66,2.13-.66,.9,0,1.66,.34,2.09,.68,.44,.34,.59,.66,.51,.74Z"/></g><path class="cls-11" d="M84.62,139.92c0-.08,.89-.24,2.35-.42,.37-.04,.72-.11,.78-.36,.09-.27-.07-.66-.25-1.09-.35-.89-.71-1.83-1.09-2.81-1.52-4-2.61-7.29-2.45-7.35,.16-.06,1.52,3.14,3.04,7.14,.36,.99,.71,1.93,1.05,2.83,.14,.42,.38,.9,.19,1.45-.1,.28-.37,.48-.61,.54-.24,.07-.44,.08-.63,.09-1.47,.08-2.37,.09-2.38,0Z"/><path class="cls-9" d="M85.62,157.03s-7.05,.45-14.03-3.74c0,0,3.4,7.2,13.89,6.21l.14-2.47Z"/><path class="cls-11" d="M80.37,140.92c.24-.01,.24,1.56,1.58,2.67,1.34,1.12,3.01,.94,3.03,1.16,.02,.1-.37,.3-1.08,.32-.69,.02-1.7-.2-2.53-.88-.82-.68-1.17-1.59-1.22-2.24-.06-.66,.12-1.04,.22-1.04Z"/></g><path class="cls-11" d="M79.75,123.54c-.14,.39-1.59,.21-3.28,.41-1.7,.17-3.07,.67-3.29,.31-.1-.17,.14-.54,.69-.92,.55-.38,1.42-.74,2.44-.85,1.02-.11,1.95,.05,2.57,.3,.62,.25,.94,.56,.87,.75Z"/><path class="cls-11" d="M93.05,124.75c-.25,.33-1.25-.01-2.45-.03-1.2-.06-2.21,.22-2.44-.12-.1-.17,.06-.5,.5-.81,.44-.31,1.17-.56,1.99-.54,.82,.03,1.54,.32,1.95,.66,.42,.34,.56,.68,.45,.84Z"/><path class="cls-11" d="M95.79,119.85s-5.35,2.8-12.53-.5c-4.71-2.17-10.16-3.13-11.32-2.16-1.16,.97-1.26,5.76-5.81,7.3,0,0,.6,9.11-3.04,8.9-3.65-.21-3.1-18.5-3.1-18.5l10.03-.54,9.65-2.14,9.19,1,7.14,1.71-.21,4.92Z"/><path class="cls-11" d="M59.74,112.28c-.05-.14,.81-.46,1.81-.1,1.01,.36,1.47,1.15,1.34,1.23-.12,.1-.68-.42-1.52-.71-.84-.31-1.6-.27-1.63-.42Z"/><path class="cls-11" d="M62.76,109.2c.17,.01,.11,1.08,.3,2.32,.18,1.24,.72,2.14,.59,2.23-.1,.1-.92-.76-1.13-2.14-.2-1.36,.11-2.43,.24-2.41Z"/></g><g><path class="cls-6" d="M63.75,129.65c-.16-.08-6.5-2.23-6.57,4.34-.07,6.56,6.53,5.28,6.55,5.09,.01-.19,.02-9.42,.02-9.42Z"/><path class="cls-9" d="M61.74,136.57s-.12,.08-.31,.17c-.19,.08-.51,.14-.85,0-.69-.26-1.26-1.37-1.28-2.55-.01-.6,.12-1.16,.34-1.63,.21-.48,.52-.81,.87-.87,.35-.08,.59,.13,.67,.32,.09,.18,.04,.31,.08,.33,.02,.02,.14-.11,.09-.38-.03-.13-.1-.29-.25-.41-.16-.13-.39-.2-.63-.17-.51,.03-.97,.49-1.2,1.01-.27,.52-.43,1.15-.42,1.82,.03,1.32,.69,2.57,1.64,2.85,.46,.13,.85,0,1.05-.16,.2-.16,.24-.31,.22-.32Z"/></g></g><path class="cls-10" d="M92.1,109.06s.19-.17,.66-.3c.46-.12,1.22-.16,2.06,.25,.41,.2,.85,.52,1.15,1.01,.3,.49,.44,1.14,.33,1.8-.1,.66-.43,1.33-.98,1.86-.55,.52-1.29,.88-2.1,1.06-1.62,.37-3.56-.09-5.08-1.3-.76-.6-1.45-1.35-1.95-2.27-.49-.91-.77-2.05-.45-3.16,.33-1.11,1.25-1.97,2.3-2.44,1.05-.48,2.24-.67,3.43-.59,2.37,.18,4.74,1.43,6.22,3.49,.74,1.03,1.19,2.26,1.25,3.5,.08,1.24-.23,2.46-.75,3.53-.54,1.06-1.31,1.98-2.23,2.67-.92,.69-1.95,1.15-2.99,1.44-2.1,.56-4.18,.55-6.07,.12-1.84-.59-3.38-1.4-4.89-1.92-1.49-.55-2.89-.91-4.14-1.08-1.25-.17-2.34-.15-3.22-.07-1.77,.2-2.69,.61-2.71,.53,0-.02,.22-.11,.67-.26,.44-.17,1.13-.33,2.02-.48,.89-.11,2.01-.17,3.28-.02,1.28,.15,2.7,.49,4.23,1.03,1.52,.51,3.12,1.31,4.88,1.85,1.78,.38,3.84,.39,5.83-.17,1.99-.54,3.91-1.85,4.9-3.87,1.02-1.97,.97-4.58-.46-6.49-1.37-1.93-3.61-3.12-5.83-3.29-1.11-.07-2.22,.1-3.19,.54-.96,.43-1.76,1.18-2.05,2.12-.29,.95-.05,1.96,.39,2.81,.45,.85,1.1,1.57,1.81,2.14,1.43,1.15,3.22,1.6,4.73,1.28,.76-.15,1.44-.48,1.95-.94,.5-.46,.82-1.07,.92-1.66,.11-.6,0-1.17-.26-1.62-.26-.45-.65-.76-1.03-.96-.78-.41-1.5-.4-1.95-.32-.46,.09-.67,.22-.68,.19Z"/></g><g><polygon class="cls-11" points="121.63 382.58 113.61 275.55 47.47 273.54 47.47 382.17 83.27 382.33 84.45 301.23 89.11 382.36 121.63 382.58"/><path class="cls-10" d="M87.34,275.58c.09,0,.19,1.49,.29,3.9,.09,2.41,.18,5.74,.23,9.41,.02,1.83,.03,3.57,.04,5.19,0,1.6-.17,3.1-.7,4.25-.53,1.15-1.32,1.86-1.93,2.19-.62,.34-1.02,.35-1.03,.31-.02-.05,.35-.15,.89-.53,.53-.37,1.21-1.08,1.64-2.16,.44-1.08,.57-2.49,.53-4.06-.03-1.61-.06-3.35-.1-5.18-.05-3.68-.06-7-.04-9.41,.02-2.41,.09-3.9,.18-3.9Z"/><path class="cls-10" d="M82.14,278.14c.06,.08-.45,.38-.47,1.16-.01,.37,.12,.84,.49,1.08,.34,.26,.92,.22,1.36-.1,.69-.46,.58-1.31,.07-1.71-.48-.43-1.06-.44-1.37-.33l-.02-.25c.28,.14,.42,.24,.4,.29-.02,.05-.19,.04-.5-.03l-.27-.06,.25-.2c.33-.26,1.14-.38,1.85,.15,.34,.25,.66,.67,.69,1.23,.04,.55-.27,1.11-.73,1.43-.62,.46-1.53,.52-2.1,.05-.57-.46-.66-1.14-.58-1.6,.07-.48,.33-.82,.54-.98,.22-.16,.37-.17,.39-.14Z"/></g><g><g><path class="cls-6" d="M175.34,258.41v-.06c4.88,.32,9.79,.7,12.77,.88,4.93,.3,6.38-.17,6.4-.91,.04-1.6-10.47-1.43-9.65-2.6,0,0,9.39,2.14,9.7,.91,.62-2.51-9.86-3.5-9.86-3.5,6.52,2.41,10.27,2.27,10.12,.59-.1-1.12-10.12-3.4-10.12-3.4,0,0,7.68,2.16,9.14,2.12,1.46-.04,1.75-1.32,.77-2.48-.98-1.16-12.95-5.53-14.82-6.2-1.87-.67-.85-2.79-.85-2.79,1.86-3.98,2.88-6.9,2.45-8.01-.43-1.11-2.09-.89-2.41,.38-.26,1.03-1.21,2.61-1.98,3.77-.63,.95-1.41,1.8-2.31,2.48-1.05,.8-1.97,1.43-2.77,1.95l-7.37,1.29,1.73,13.27,9.07,2.32Z"/><path class="cls-9" d="M179.31,253.89c-.08,.05-.43-.44-1.14-1.07-.7-.64-1.81-1.39-3.23-1.77l-.7-.18,.61-.41c.14-.1,.3-.19,.45-.3,1.31-.92,2.2-2.11,2.72-3.03,.52-.92,.73-1.57,.83-1.54,.08,.02,.03,.72-.41,1.75-.44,1.02-1.33,2.36-2.76,3.36-.16,.12-.33,.22-.49,.32l-.09-.6c1.56,.43,2.72,1.33,3.38,2.09,.67,.76,.89,1.35,.82,1.39Z"/><path class="cls-9" d="M193.16,252.59c-.07,.17-2.15-.56-4.73-1.35-2.58-.8-4.71-1.35-4.67-1.54,.03-.17,2.25,.1,4.87,.91,2.62,.8,4.61,1.83,4.54,1.99Z"/><path class="cls-9" d="M193.06,254.9c-.06,.18-1.95-.34-4.28-.9-2.33-.57-4.24-.96-4.22-1.15,.02-.18,2-.07,4.37,.51,2.37,.57,4.19,1.37,4.12,1.54Z"/></g><g><path class="cls-11" d="M72.07,168.07c-.01,.1-.96-.43-2.23,.29-.62,.33-1.19,.97-1.58,1.84-.2,.43-.36,.91-.5,1.42-.07,.26-.14,.52-.21,.79-.08,.28-.14,.6-.42,.91-.14,.15-.37,.27-.59,.28-.22,.01-.41-.05-.56-.1-.29-.13-.51-.24-.76-.36-.48-.23-.94-.46-1.4-.69-.82-.42-1.6-.82-2.36-1.2-1.33-.7-2.14-1.18-2.1-1.26s.91,.24,2.3,.84c.77,.34,1.57,.7,2.42,1.07,.46,.21,.93,.43,1.42,.65,.24,.11,.48,.22,.73,.34,.23,.09,.32,.08,.43-.03,.23-.25,.31-.92,.48-1.43,.16-.53,.34-1.04,.57-1.51,.45-.94,1.17-1.67,1.92-1.99,.73-.34,1.43-.34,1.85-.22,.43,.13,.61,.31,.59,.34Z"/><path class="cls-11" d="M86.06,169.4c.1,.14-2.16,2.02-5.17,4.29l-.43,.32-.09-.53c-.04-.22-.08-.44-.12-.68-.31-2-.97-3.69-1.94-4.56-.92-.91-1.79-1-1.76-1.11-.02-.07,.95-.15,2.07,.76,.55,.44,1.09,1.11,1.47,1.96,.39,.84,.63,1.82,.81,2.83l.12,.68-.52-.21c3.02-2.25,5.46-3.9,5.56-3.76Z"/><path class="cls-7" d="M167.1,240.64l-2.74-.1c-3.88,.46-14.95-.68-23.74-2.74-8.79-2.05-8.45-3.31-9.58-4.91-1.13-1.6-3.09-10.29-3.09-10.29,0,0-2.34-14.06-7.1-28.86-4.76-14.79-15.73-18.52-15.73-18.52-.9-.47-1.5-.65-1.5-.65-.87-.5-13.16-4.43-17.72-4.68l.04-8.59c-7.65,.75-11.6,9.79-11.6,9.79-3.17-7.65-15.08-8.77-15.08-8.77l.22,7.91c-3.81,.24-9.57,1.23-12.48,2.28-6.64,2.4-9.77,4.73-15.27,9.08-5.54,4.38-7.22,13.75-7.22,21.66l24.28,9.45v.6l-.22,28.16-1.08,32.08,66.31,2.01-3.39-27.35c1.86,3.27,8.46,7.7,21.66,11.05,14.84,3.77,36.87,.64,36.87,.64l-1.83-19.26Z"/><path class="cls-11" d="M80.03,187.24c-.05-.07,.5-.31,1.12,.22,.28,.25,.56,.68,.5,1.25-.05,.58-.57,1.09-1.16,1.21-.59,.15-1.28-.08-1.57-.58-.3-.49-.23-1-.09-1.35,.32-.74,.92-.77,.91-.68,.04,.09-.35,.27-.47,.83-.06,.26-.03,.61,.15,.86,.17,.25,.54,.36,.92,.28,.38-.09,.66-.35,.71-.65,.06-.3-.07-.63-.24-.84-.35-.45-.78-.44-.78-.54Z"/><path class="cls-11" d="M82.47,210.84c-.05-.07,.5-.31,1.12,.22,.28,.25,.56,.68,.5,1.25-.05,.58-.57,1.09-1.16,1.21-.59,.15-1.28-.08-1.57-.58-.3-.49-.23-1-.09-1.35,.32-.74,.92-.77,.91-.68,.04,.09-.35,.27-.47,.83-.06,.26-.03,.61,.15,.86,.17,.25,.54,.36,.92,.28,.38-.09,.66-.35,.71-.65,.06-.3-.07-.63-.24-.84-.35-.45-.78-.44-.78-.54Z"/><path class="cls-11" d="M83.97,233.88c-.05-.07,.5-.31,1.12,.22,.28,.25,.56,.68,.5,1.25-.05,.58-.57,1.09-1.16,1.21-.59,.15-1.28-.08-1.57-.58-.3-.49-.23-1-.09-1.35,.32-.74,.92-.77,.91-.68,.04,.09-.35,.27-.47,.83-.06,.26-.03,.61,.15,.86,.17,.25,.54,.36,.92,.28,.38-.09,.66-.35,.71-.65,.06-.3-.07-.63-.24-.84-.35-.45-.78-.44-.78-.54Z"/><path class="cls-11" d="M85.48,258.95c-.05-.07,.5-.31,1.12,.22,.28,.25,.56,.68,.5,1.25-.05,.58-.57,1.09-1.16,1.21-.59,.15-1.28-.08-1.57-.58-.3-.49-.23-1-.09-1.35,.32-.74,.92-.77,.91-.68,.04,.09-.35,.27-.47,.83-.06,.26-.03,.61,.15,.86,.17,.25,.54,.36,.92,.28,.38-.09,.66-.35,.71-.65,.06-.3-.07-.63-.24-.84-.35-.45-.78-.44-.78-.54Z"/><g class="cls-13"><polygon points="50.15 202.35 56.11 273.83 47.47 273.83 48.4 244.33 48.77 212.7 50.15 202.35"/></g><path class="cls-11" d="M112.92,266.31s-.08-.22-.16-.65c-.09-.5-.2-1.12-.34-1.87-.29-1.63-.66-3.99-1.09-6.91-.87-5.84-1.92-13.94-3.03-22.88-1.1-8.95-2.13-17.04-2.98-22.88-.42-2.85-.77-5.19-1.02-6.92-.11-.76-.2-1.38-.27-1.88-.05-.43-.07-.66-.05-.66,.02,0,.08,.22,.18,.64,.11,.5,.23,1.11,.39,1.86,.32,1.62,.76,3.97,1.23,6.89,.97,5.83,2.07,13.92,3.17,22.87,1.1,8.9,2.1,16.95,2.83,22.9,.36,2.86,.66,5.2,.88,6.94,.09,.76,.16,1.38,.22,1.89,.04,.43,.05,.66,.03,.67Z"/><g class="cls-13"><path d="M105.41,208.14c3.81,13.13,5.06,24.66,12.21,35.5,2.57,3.9,5.99,7.24,9.94,9.75,7.71,4.92,17.04,6.54,26.14,7.39h6.16s-13.85,1.17-25.05-.88c0,0-17.23-3.07-23.97-10.98l-5.44-40.78Z"/></g><path class="cls-11" d="M81.6,271.46s-.06-.35-.1-1.02c-.04-.73-.09-1.71-.16-2.93-.13-2.61-.31-6.27-.54-10.77-.47-9.09-1.24-21.65-2.3-35.5-1.06-13.86-2.17-26.39-2.98-35.46-.39-4.49-.71-8.14-.94-10.74-.09-1.22-.17-2.19-.23-2.92-.04-.67-.06-1.02-.03-1.02,.02,0,.08,.35,.17,1.01,.09,.73,.2,1.7,.35,2.91,.28,2.6,.67,6.25,1.14,10.73,.92,9.06,2.11,21.59,3.17,35.45,1.06,13.86,1.75,26.43,2.1,35.53,.18,4.55,.29,8.24,.33,10.78,.02,1.23,.03,2.2,.04,2.93,0,.67,0,1.02-.03,1.02Z"/></g><g><g><ellipse class="cls-7" cx="146.32" cy="253.42" rx="41.89" ry="40.97"/><ellipse class="cls-14" cx="146.32" cy="253.42" rx="41.89" ry="40.97"/></g><ellipse class="cls-7" cx="143.77" cy="249.12" rx="41.89" ry="40.97"/><ellipse class="cls-12" cx="143.54" cy="248.71" rx="31.92" ry="30.45" transform="translate(-12.61 7.72) rotate(-2.95)"/><path class="cls-4" d="M146.54,278.88c-17.24,1.64-32.59-10.46-34.73-27.16,.02,.3,.04,.59,.07,.89,1.7,17.15,17.31,29.71,34.84,28.04,17.54-1.67,30.37-16.93,28.67-34.08-.03-.3-.07-.59-.11-.88,1.18,16.79-11.5,31.55-28.73,33.19Z"/><path class="cls-13" d="M140.54,218.53c17.24-1.64,32.59,10.46,34.73,27.16-.02-.3-.04-.59-.07-.89-1.7-17.15-17.31-29.71-34.84-28.04-17.54,1.67-30.37,16.93-28.67,34.08,.03,.3,.07,.59,.11,.88-1.18-16.79,11.5-31.55,28.73-33.19Z"/><g><path class="cls-7" d="M160.98,255.97c-.43-4.36-2.84-6.99-6.09-7.84,2.12-1.6,3.37-4.29,3.02-7.74-.43-4.29-3.17-7.1-7.9-7.68l-.53-5.29-5,.48,.49,4.92-2.84,.27-.49-4.92-5,.48,.49,4.92-4.55,.43-3.17,.3,.49,4.89,3.17-.3,2.36,23.77-3.51,.33,.49,4.89,3.51-.33h0l4.55-.43,.57,5.72,5-.48-.57-5.72,2.84-.27,.57,5.72,5-.48-.59-5.91c5.56-1.31,8.18-4.77,7.68-9.74Zm-21.56-17.69l6.77-.64c3.76-.36,6.04,.97,6.35,4.09,.3,3.07-1.67,4.8-5.43,5.16l-7.68,.73-.92-9.25,.91-.09Zm10.22,23.03l-8.19,.78-.58,.05-.96-9.68,8.76-.83c4.09-.39,6.45,.89,6.78,4.24,.33,3.36-1.73,5.05-5.82,5.44Z"/><path class="cls-13" d="M160.98,255.97c-.43-4.36-2.84-6.99-6.09-7.84,2.12-1.6,3.37-4.29,3.02-7.74-.43-4.29-3.17-7.1-7.9-7.68l-.53-5.29-5,.48,.49,4.92-2.84,.27-.49-4.92-5,.48,.49,4.92-4.55,.43-3.17,.3,.49,4.89,3.17-.3,2.36,23.77-3.51,.33,.49,4.89,3.51-.33h0l4.55-.43,.57,5.72,5-.48-.57-5.72,2.84-.27,.57,5.72,5-.48-.59-5.91c5.56-1.31,8.18-4.77,7.68-9.74Zm-21.56-17.69l6.77-.64c3.76-.36,6.04,.97,6.35,4.09,.3,3.07-1.67,4.8-5.43,5.16l-7.68,.73-.92-9.25,.91-.09Zm10.22,23.03l-8.19,.78-.58,.05-.96-9.68,8.76-.83c4.09-.39,6.45,.89,6.78,4.24,.33,3.36-1.73,5.05-5.82,5.44Z"/><path class="cls-7" d="M158.55,256.2c-.43-4.36-2.84-6.99-6.09-7.84,2.12-1.6,3.37-4.29,3.02-7.74-.43-4.29-3.17-7.1-7.9-7.68l-.53-5.29-5,.48,.49,4.92-2.84,.27-.49-4.92-5,.48,.49,4.92-4.55,.43-3.17,.3,.49,4.89,3.17-.3,2.36,23.77-3.51,.33,.49,4.89,3.51-.33h0l4.55-.43,.57,5.72,5-.48-.57-5.72,2.84-.27,.57,5.72,5-.48-.59-5.91c5.56-1.31,8.18-4.77,7.68-9.74Zm-21.56-17.69l6.77-.64c3.76-.36,6.04,.97,6.35,4.09,.3,3.07-1.67,4.8-5.43,5.16l-7.68,.73-.92-9.25,.91-.09Zm10.22,23.03l-8.19,.78-.58,.05-.96-9.68,8.76-.83c4.09-.39,6.45,.89,6.78,4.24s-1.73,5.05-5.82,5.44Z"/></g><path class="cls-4" d="M181.64,231.48s-.07-.09-.19-.28c-.13-.22-.29-.5-.5-.85-.22-.38-.49-.85-.8-1.39-.31-.55-.65-1.2-1.15-1.85-.48-.67-1-1.42-1.58-2.23-.57-.82-1.34-1.59-2.09-2.49-.73-.92-1.65-1.75-2.61-2.66-.49-.44-.95-.95-1.5-1.37-.55-.43-1.11-.87-1.69-1.32-2.3-1.82-5.1-3.42-8.2-4.91-.8-.32-1.61-.64-2.44-.97-.41-.16-.83-.34-1.25-.49-.43-.13-.87-.25-1.31-.38-.88-.25-1.77-.54-2.68-.76-.93-.18-1.86-.36-2.81-.54-.94-.23-1.93-.25-2.91-.36-.99-.09-1.98-.23-3-.19-1.01,0-2.04,0-3.07,0-1.03,.1-2.07,.19-3.12,.29-4.17,.56-8.43,1.65-12.49,3.51-4.04,1.9-7.7,4.33-10.85,7.14-3.1,2.86-5.61,6.09-7.63,9.39-.46,.85-.91,1.69-1.36,2.52l-.33,.62-.27,.65c-.18,.43-.36,.85-.54,1.28-.78,1.66-1.22,3.4-1.75,5.03-.25,.82-.37,1.67-.55,2.47-.15,.82-.39,1.6-.43,2.4-.14,1.59-.42,3.11-.36,4.58-.01,1.46-.06,2.86,.12,4.17,.13,1.31,.19,2.56,.47,3.7,.24,1.14,.38,2.22,.66,3.18,.29,.95,.55,1.83,.79,2.62,.21,.8,.51,1.46,.75,2.05,.24,.58,.44,1.07,.6,1.48,.15,.38,.27,.68,.36,.92,.08,.21,.12,.32,.11,.32,0,0-.06-.1-.16-.3-.1-.23-.24-.52-.41-.9-.18-.41-.4-.9-.65-1.47-.26-.58-.57-1.24-.79-2.04-.25-.79-.53-1.66-.83-2.62-.3-.96-.45-2.05-.71-3.19-.29-1.14-.37-2.4-.51-3.72-.19-1.32-.16-2.73-.16-4.21-.07-1.48,.2-3.02,.33-4.63,.04-.81,.28-1.61,.42-2.43,.18-.82,.29-1.67,.55-2.5,.53-1.66,.96-3.41,1.74-5.1,.18-.43,.36-.86,.54-1.29l.27-.65,.34-.63c.45-.84,.91-1.69,1.37-2.56,2.03-3.34,4.56-6.62,7.7-9.52,3.18-2.84,6.88-5.31,10.97-7.23,4.12-1.88,8.43-2.99,12.65-3.54,1.06-.1,2.11-.19,3.15-.29,1.05,0,2.08,0,3.11,0,1.03-.04,2.03,.11,3.03,.2,.99,.12,1.99,.15,2.94,.38,.96,.19,1.91,.38,2.84,.56,.93,.22,1.82,.52,2.71,.78,.44,.13,.88,.26,1.32,.39,.43,.15,.85,.33,1.26,.5,.83,.34,1.65,.67,2.46,.99,3.13,1.52,5.94,3.15,8.25,5.01,.58,.46,1.14,.91,1.7,1.34,.56,.43,1.01,.95,1.5,1.4,.96,.93,1.88,1.77,2.6,2.71,.74,.91,1.5,1.7,2.07,2.53,.56,.83,1.08,1.59,1.55,2.27,.49,.67,.82,1.32,1.12,1.88,.29,.55,.55,1.02,.75,1.42,.19,.36,.34,.65,.45,.88,.1,.2,.15,.3,.14,.31Z"/><path class="cls-4" d="M139.22,228.4s-.48,.13-1.35,.25-2.11,.27-3.63,.44l.19-.24c.16,1.46,.34,3.13,.53,4.92l.03,.26-.26,.03-1.35,.13c-2.34,.21-4.51,.4-6.38,.56l.19-.23c.12,1.48,.21,2.71,.26,3.56,.05,.86,.05,1.34,.01,1.35-.04,0-.13-.47-.26-1.32-.12-.85-.27-2.07-.44-3.54l-.02-.21,.22-.02c1.87-.19,4.04-.41,6.37-.65l1.35-.13-.23,.28c-.16-1.79-.31-3.46-.45-4.92l-.02-.22,.21-.02c1.52-.12,2.77-.21,3.64-.25,.87-.05,1.37-.05,1.38,0Z"/><path class="cls-4" d="M148.12,227.64c.01,.14-1.33,.39-3,.55-1.67,.16-3.03,.17-3.05,.03-.01-.14,1.33-.39,3-.55,1.67-.16,3.03-.17,3.05-.03Z"/><path class="cls-4" d="M132.72,262.57c-.14,.01-.78-5.19-1.42-11.63-.64-6.44-1.04-11.67-.9-11.68s.78,5.19,1.42,11.63c.64,6.44,1.04,11.66,.9,11.68Z"/><path class="cls-4" d="M147.21,246.92c.01,.14-2.13,.46-4.8,.72-2.66,.25-4.83,.34-4.85,.2s2.13-.46,4.8-.72c2.66-.25,4.83-.34,4.85-.2Z"/><path class="cls-4" d="M148.83,261.42c.01,.14-2.13,.46-4.8,.72-2.66,.25-4.83,.34-4.85,.2-.01-.14,2.13-.46,4.8-.72,2.66-.25,4.83-.34,4.85-.2Z"/><path class="cls-11" d="M137.78,293.54c-.12,.07-.78-.83-1.48-2.01-.69-1.18-1.15-2.2-1.03-2.28,.12-.07,.78,.83,1.48,2.01,.69,1.18,1.15,2.2,1.03,2.28Z"/><path class="cls-11" d="M130.89,291.38c-.12,.07-.76-.79-1.42-1.92-.66-1.14-1.1-2.11-.97-2.19,.12-.07,.76,.79,1.42,1.92,.66,1.14,1.1,2.11,.97,2.19Z"/><path class="cls-11" d="M124.57,288.43c-.12,.07-.76-.79-1.42-1.92-.66-1.14-1.1-2.11-.97-2.19s.76,.79,1.42,1.92c.66,1.14,1.1,2.11,.97,2.19Z"/><path class="cls-11" d="M145.07,294.41c-.12,.07-.78-.83-1.48-2.01-.69-1.18-1.15-2.2-1.03-2.28,.12-.07,.78,.83,1.48,2.01,.69,1.18,1.15,2.2,1.03,2.28Z"/><path class="cls-11" d="M151.82,294.04c-.12,.07-.78-.83-1.48-2.01-.69-1.18-1.15-2.2-1.03-2.28,.12-.07,.78,.83,1.48,2.01,.69,1.18,1.15,2.2,1.03,2.28Z"/><path class="cls-11" d="M158.46,292.63c-.12,.07-.78-.83-1.48-2.01-.69-1.18-1.15-2.2-1.03-2.28,.12-.07,.78,.83,1.48,2.01,.69,1.18,1.15,2.2,1.03,2.28Z"/><path class="cls-11" d="M164.54,290.45c-.12,.07-.78-.83-1.48-2.01-.69-1.18-1.15-2.2-1.03-2.28,.12-.07,.78,.83,1.48,2.01,.69,1.18,1.15,2.2,1.03,2.28Z"/><path class="cls-11" d="M170.34,287.12c-.12,.07-.78-.83-1.48-2.01-.69-1.18-1.15-2.2-1.03-2.28s.78,.83,1.48,2.01c.69,1.18,1.15,2.2,1.03,2.28Z"/><path class="cls-11" d="M175.38,283.04c-.12,.07-.78-.83-1.48-2.01-.69-1.18-1.15-2.2-1.03-2.28,.12-.07,.78,.83,1.48,2.01,.69,1.18,1.15,2.2,1.03,2.28Z"/><path class="cls-11" d="M179.19,278.48c-.12,.07-.75-.76-1.39-1.87-.64-1.1-1.06-2.06-.94-2.13,.12-.07,.75,.76,1.39,1.87,.64,1.1,1.06,2.06,.94,2.13Z"/><path class="cls-11" d="M182.83,273.53c-.12,.07-.75-.77-1.39-1.87-.65-1.11-1.07-2.06-.94-2.13,.12-.07,.75,.77,1.39,1.87,.64,1.11,1.07,2.06,.94,2.13Z"/><path class="cls-11" d="M185.62,267.64c-.12,.07-.71-.71-1.32-1.74-.6-1.03-.99-1.93-.87-2,.12-.07,.71,.71,1.32,1.74,.6,1.03,.99,1.93,.87,2Z"/><path class="cls-11" d="M187.45,261.24c-.12,.07-.7-.69-1.29-1.69-.59-1.01-.96-1.88-.84-1.95,.12-.07,.7,.69,1.29,1.69,.59,1.01,.96,1.88,.84,1.95Z"/><path class="cls-11" d="M188.22,254.36c-.12,.07-.8-.85-1.5-2.06-.71-1.21-1.18-2.25-1.05-2.32,.12-.07,.8,.85,1.5,2.06,.71,1.21,1.18,2.25,1.05,2.32Z"/><path class="cls-11" d="M187.45,245.24c-.12,.07-.84-.92-1.59-2.22-.76-1.3-1.27-2.41-1.14-2.48,.12-.07,.84,.92,1.59,2.22,.76,1.3,1.27,2.41,1.14,2.48Z"/></g><g><path class="cls-6" d="M93.12,271.43c4.55,1.08,21.95,2.78,24.78,3.06,5.89,.59,5.95,.06,5.9-.64-.13-1.87-10.32-1.42-8.19-2.79,2.13-1.37,12.53,.9,12.31-1.05-.28-2.54-10.94-1.88-11.85-1.89-.88-.01-.92-1.32-.11-1.27,1.18,.08,13.54,.57,13.29-1.93-.14-1.39-2.61-.9-2.61-.9,0,0-11.6,.39-11.68-.8-.08-1.2,6.72-1.66,9.03-1.65,2.28,0,3.21-1.07,2.37-2.08-.57-.69-7.63-.88-9.91-.84-2.28,.05-8.53,.28-5.54-2.34,2.99-2.62,4.29-5.77,4.06-6.86-.24-1.1-1.85-1.16-2.35-.04-.41,.91-1.55,2.22-2.45,3.17-.74,.78-1.61,1.44-2.57,1.93-.45,.23-.88,.44-1.28,.63-1.89,.89-9.67,1.83-11.75,1.59l-1.44,14.71Z"/><path class="cls-7" d="M24.49,203.25v41.1c0,11.85,23.65,22.24,36.83,24.47l35.66,4.53,1.17-20.74s-44.22-11.61-46.57-14.52c-2.36-2.92-1.29-40.89-1.29-40.89l-25.8,6.05Z"/><path class="cls-11" d="M47.05,236.6s.19,.05,.55,.19c.39,.15,.92,.35,1.59,.61,1.42,.56,3.45,1.37,6.01,2.39h.01c2.15,.89,4.84,1.67,7.85,2.59,3.03,.88,6.41,1.87,10.07,2.94,7.35,2.11,15.88,4.5,25.09,7.04l.2,.06v.21c-.17,2.81-.34,5.77-.51,8.77-.23,4.1-.46,8.11-.68,11.97v.25h-.26c-14.4-.35-26.9-2.54-35.65-4.71-4.38-1.07-7.85-2.08-10.22-2.81-1.19-.36-2.1-.67-2.71-.87l-.7-.24c-.16-.06-.23-.09-.23-.1,0,0,.09,0,.25,.05,.19,.05,.42,.11,.71,.19,.66,.19,1.57,.45,2.74,.79,2.39,.68,5.86,1.63,10.24,2.66,8.75,2.07,21.22,4.19,35.58,4.51l-.26,.24c.22-3.86,.44-7.87,.67-11.97,.17-3,.34-5.96,.5-8.77l.19,.26c-9.21-2.56-17.73-4.98-25.07-7.13-3.67-1.07-7.04-2.09-10.05-3.01-3.01-.95-5.67-1.75-7.86-2.69h0c-2.55-1.06-4.56-1.91-5.96-2.5-.66-.29-1.18-.51-1.56-.68-.35-.16-.53-.24-.53-.25Z"/><path class="cls-11" d="M52.48,239.17c-.12,.08-1.25-1.35-2.53-3.2-1.28-1.85-2.22-3.41-2.1-3.49,.12-.08,1.25,1.35,2.53,3.2,1.28,1.85,2.22,3.41,2.1,3.49Z"/></g><g class="cls-13"><path d="M59.36,169.99s8.06,8.31,9.19,7.08c1.12-1.23,1.62-9.22,4.9-7.64,0,0-.78-1.32-2.03-1.45-1.25-.13-3.26-.32-4.26,4.25,0,0-.04,1.42-1.08,1-1.04-.42-6.72-3.24-6.72-3.24Z"/></g><g class="cls-13"><path d="M75.54,168.87s1.71,0,2.12,1.76,.54,6.57,.54,6.57l7.16-7.07-4.7,3.26s-.64-5.56-4.11-6.26l-1.02,1.74Z"/></g><g><path class="cls-4" d="M97.4,266.05s-.12,0-.34-.04c-.25-.04-.58-.09-1-.16-.91-.16-2.19-.38-3.82-.66-3.35-.61-8.13-1.48-14.03-2.56-5.92-1.1-12.97-2.42-20.78-3.95-1.95-.39-3.95-.79-6-1.2-1.02-.21-2.05-.43-3.09-.65-.52-.1-1.05-.24-1.57-.37-.52-.17-1.05-.32-1.56-.52-2.05-.81-3.97-2.04-5.57-3.65-1.58-1.62-2.91-3.57-3.75-5.74-.85-2.17-1.28-4.48-1.23-6.75,0-2.24,0-4.44,0-6.61,0-4.33,.01-8.51,.02-12.49,.02-7.95,.04-15.12,.06-21.15,.03-6,.06-10.86,.08-14.26,.02-1.66,.04-2.96,.05-3.88,.01-.42,.02-.75,.03-1.01,0-.23,.02-.34,.03-.34s.02,.12,.03,.34c0,.25,.02,.59,.03,1.01,.01,.92,.03,2.22,.05,3.88,.02,3.4,.05,8.26,.08,14.26,.02,6.03,.03,13.2,.06,21.15,0,3.98,0,8.16,.02,12.49,0,2.17,0,4.37,0,6.61-.04,2.22,.38,4.45,1.2,6.55,.82,2.11,2.1,4,3.63,5.57,1.55,1.56,3.41,2.76,5.39,3.54,.5,.19,1.01,.34,1.51,.51,.51,.13,1.02,.26,1.54,.37,1.04,.22,2.07,.44,3.09,.65,2.04,.41,4.04,.82,5.99,1.21,7.8,1.52,14.84,2.9,20.75,4.05,5.89,1.14,10.66,2.07,14,2.72,1.63,.32,2.9,.58,3.8,.76,.41,.09,.74,.16,.99,.21,.22,.05,.33,.08,.33,.09Z"/><path class="cls-4" d="M67.1,243.1s-.06-.27-.12-.77c-.06-.56-.15-1.3-.25-2.23-.2-1.99-.48-4.79-.83-8.22-.66-6.99-1.55-16.56-2.54-27.13-.5-5.29-.88-10.36-1.39-14.93-.53-4.55-1.71-8.62-3.77-11.41-2.03-2.81-4.55-4.31-6.38-4.88-1.85-.6-2.96-.45-2.95-.53,0-.02,.27-.03,.79-.03,.51,.03,1.28,.08,2.23,.37,1.88,.52,4.5,2.01,6.62,4.86,2.15,2.84,3.39,6.99,3.95,11.56,.54,4.6,.93,9.64,1.43,14.94,.93,10.57,1.78,20.15,2.39,27.14,.28,3.43,.5,6.23,.67,8.23,.06,.93,.12,1.68,.15,2.24,.03,.51,.04,.78,.02,.78Z"/><path class="cls-4" d="M99.69,257.03s-.05-.3-.09-.86c-.04-.61-.1-1.44-.17-2.48-.14-2.2-.33-5.3-.57-9.11-.5-7.69-1.3-18.31-2.47-30.02-1.17-11.71-2.49-22.28-3.52-29.92-.52-3.78-.94-6.86-1.24-9.05-.14-1.03-.25-1.85-.33-2.46-.07-.56-.1-.86-.08-.86,.02,0,.08,.29,.18,.85,.11,.6,.25,1.42,.43,2.45,.36,2.13,.85,5.21,1.41,9.02,1.13,7.63,2.5,18.2,3.68,29.92,1.17,11.71,1.91,22.34,2.32,30.05,.21,3.85,.34,6.97,.41,9.13,.03,1.04,.05,1.87,.07,2.48,0,.57,0,.87-.01,.87Z"/><path class="cls-4" d="M115.23,218.2s-.14-.56-.3-1.59c-.17-1.12-.39-2.59-.66-4.36-.56-3.68-1.36-8.76-2.36-14.35-1-5.59-2.01-10.63-2.77-14.28-.36-1.76-.66-3.21-.89-4.32-.21-1.02-.3-1.59-.27-1.6s.2,.54,.47,1.55c.27,1.01,.63,2.47,1.05,4.28,.85,3.63,1.92,8.67,2.92,14.26,1,5.6,1.75,10.69,2.21,14.39,.23,1.85,.4,3.35,.5,4.38,.1,1.04,.14,1.61,.1,1.62Z"/><path class="cls-4" d="M119.88,193.79s-.08,.01-.24,.02c-.19,0-.43,0-.72,0l-2.75-.05c-2.43-.05-5.88-.13-10.12-.23-8.54-.18-20.34-.32-33.38-.23-13.04,.1-24.84,.42-33.38,.73-4.24,.16-7.68,.29-10.11,.38-1.16,.04-2.08,.07-2.75,.09h-.72c-.16,.01-.24,0-.24,0,0,0,.08-.02,.24-.04,.19-.02,.43-.04,.71-.06,.67-.05,1.59-.11,2.75-.19,2.38-.16,5.84-.35,10.11-.54,8.54-.4,20.34-.78,33.39-.88,13.04-.1,24.85,.11,33.39,.38,4.27,.13,7.73,.27,10.11,.39,1.16,.06,2.08,.11,2.75,.15,.29,.02,.52,.04,.71,.05,.16,.01,.24,.03,.24,.04Z"/><path class="cls-4" d="M67.58,170.57c-.08,.12-1.95-.95-4.18-2.4-2.23-1.45-3.98-2.72-3.9-2.84,.08-.12,1.95,.95,4.18,2.4,2.23,1.45,3.98,2.72,3.9,2.84Z"/><path class="cls-4" d="M85.92,165.33c.09,.11-1.17,1.31-2.85,2.66-.84,.67-1.62,1.26-2.21,1.65-.3,.2-.54,.34-.73,.43-.09,.04-.17,.07-.23,.08-.12,.04-.09-.1-.06-.07-.09,.04,1.25-1.17,2.91-2.5,1.67-1.35,3.08-2.37,3.17-2.26Z"/><path class="cls-4" d="M49.69,229.18c0,.14-5.4,.54-12.08,.89-6.68,.35-12.11,.52-12.11,.37,0-.14,5.4-.54,12.09-.89,6.68-.35,12.1-.52,12.11-.37Z"/><path class="cls-4" d="M105.32,232.13c0,.14-12.06,.65-26.95,1.14-14.89,.49-26.96,.76-26.96,.62,0-.14,12.06-.65,26.95-1.14,14.88-.49,26.96-.76,26.96-.62Z"/><path class="cls-4" d="M49.54,264.56c-.07-.03,.49-1.27,1.37-3.27,.88-2,2.04-4.79,3.19-7.91,1.14-3.13,2.05-6.01,2.68-8.1,.63-2.09,.99-3.4,1.07-3.38,.03,0-.01,.34-.13,.95-.12,.6-.31,1.47-.58,2.53-.54,2.13-1.39,5.04-2.54,8.18-1.15,3.14-2.38,5.92-3.34,7.89-.48,.99-.89,1.77-1.19,2.31-.3,.54-.48,.82-.51,.81Z"/><path class="cls-4" d="M79.6,271.83c-.07,0-.06-1.28,.08-3.34,.14-2.06,.44-4.9,.94-8.01,.5-3.11,1.11-5.9,1.63-7.9,.51-2,.91-3.21,.97-3.2,.07,.02-.19,1.27-.61,3.28-.42,2.01-.97,4.8-1.47,7.9-.5,3.1-.85,5.92-1.09,7.96-.24,2.04-.37,3.31-.45,3.31Z"/></g><path class="cls-11" d="M50.12,207.15s-.13-.51-.24-1.44c-.11-.93-.2-2.29-.26-3.97-.07-1.68-.09-3.67-.24-5.87-.15-2.2-.46-4.61-1.21-7.03-.76-2.41-1.93-4.57-3.45-6.13-1.51-1.56-3.29-2.54-4.85-3.02-1.58-.48-2.95-.49-3.86-.37-.92,.12-1.41,.31-1.43,.25,0-.02,.11-.07,.35-.16,.23-.1,.58-.19,1.05-.29,.93-.19,2.34-.23,3.99,.22,1.64,.45,3.5,1.43,5.09,3.04,1.6,1.61,2.83,3.84,3.6,6.31,.77,2.48,1.07,4.94,1.19,7.16,.12,2.22,.11,4.22,.13,5.9,.01,1.67,.05,3.03,.1,3.96,.04,.94,.08,1.45,.04,1.46Z"/></g></g></g></g></svg>