<?xml version="1.0" encoding="UTF-8"?><svg id="Layer_2" xmlns="http://www.w3.org/2000/svg" viewBox="0 0 500 372.61"><defs><style>.cls-1,.cls-2{opacity:.1;}.cls-1,.cls-3,.cls-4{fill:#263238;}.cls-5{fill:#ed847e;}.cls-6{fill:#ebebeb;}.cls-7{fill:#f0f0f0;}.cls-8{fill:#e6e6e6;}.cls-9{fill:#f5f5f5;}.cls-10,.cls-11{fill:#fff;}.cls-12{fill:#fafafa;}.cls-13{fill:#ffc3bd;}.cls-14{fill:#326260;}.cls-15{fill:#e0e0e0;}.cls-4,.cls-16{opacity:.2;}.cls-11{opacity:.7;}</style></defs><g id="Envelope"><g><g><g><rect class="cls-6" y="327.45" width="500" height=".25"/><rect class="cls-6" x="416.78" y="343.54" width="18.89" height=".25"/><rect class="cls-6" x="293.05" y="341.8" width="29.47" height=".25"/><rect class="cls-6" x="368.67" y="334.26" width="47.11" height=".25"/><rect class="cls-6" x="52.46" y="335.94" width="10.97" height=".25"/><rect class="cls-6" x="72.33" y="335.94" width="38.56" height=".25"/><rect class="cls-6" x="171" y="340.16" width="54.15" height=".25"/><path class="cls-6" d="M237.01,282.85H43.91c-3.15,0-5.71-2.56-5.71-5.71V5.71c0-3.15,2.56-5.71,5.71-5.71H237.01c3.15,0,5.71,2.56,5.71,5.71V277.14c0,3.15-2.56,5.71-5.71,5.71ZM43.91,.25c-3.01,0-5.46,2.45-5.46,5.46V277.14c0,3.01,2.45,5.46,5.46,5.46H237.01c3.01,0,5.46-2.45,5.46-5.46V5.71c0-3.01-2.45-5.46-5.46-5.46H43.91Z"/><path class="cls-6" d="M453.31,282.85h-193.1c-3.15,0-5.71-2.56-5.71-5.71V5.71c0-3.15,2.56-5.71,5.71-5.71h193.1c3.15,0,5.71,2.56,5.71,5.71V277.14c0,3.15-2.56,5.71-5.71,5.71ZM260.21,.25c-3.01,0-5.46,2.45-5.46,5.46V277.14c0,3.01,2.45,5.46,5.46,5.46h193.1c3.01,0,5.46-2.45,5.46-5.46V5.71c0-3.01-2.45-5.46-5.46-5.46h-193.1Z"/></g><g><rect class="cls-6" x="416.78" y="343.54" width="18.89" height=".25"/><rect class="cls-6" x="293.05" y="341.8" width="29.47" height=".25"/><rect class="cls-6" x="368.67" y="334.26" width="47.11" height=".25"/><rect class="cls-6" x="52.46" y="335.94" width="10.97" height=".25"/><rect class="cls-6" x="72.33" y="335.94" width="38.56" height=".25"/><rect class="cls-6" x="171" y="340.16" width="54.15" height=".25"/></g></g><g><g><g><rect class="cls-8" x="381.87" y="107.26" width="23.03" height="4.78" transform="translate(786.76 219.31) rotate(180)"/><rect class="cls-7" x="132.14" y="107.26" width="249.72" height="4.78" transform="translate(514.01 219.31) rotate(180)"/></g><g><polygon class="cls-9" points="273.79 27.75 334.83 27.75 325.22 107.26 264.17 107.26 273.79 27.75"/><polygon class="cls-12" points="284.9 38.18 321.2 38.18 314.11 96.84 277.8 96.84 284.9 38.18"/></g><g><polygon class="cls-9" points="185.31 31.39 259.36 31.39 250.18 107.26 176.14 107.26 185.31 31.39"/><polygon class="cls-12" points="195.91 41.33 246.35 41.33 239.58 97.32 189.14 97.32 195.91 41.33"/></g><g><polygon class="cls-7" points="313.63 54.97 364.65 54.97 358.33 107.26 307.3 107.26 313.63 54.97"/><polygon class="cls-12" points="320.93 61.83 355.69 61.83 351.02 100.41 316.26 100.41 320.93 61.83"/></g></g><path class="cls-8" d="M435.35,175.77h-31.54c-11.23,0-21.36,8.08-24.01,19.14l-8.33,34.79-17.12-.06h-.05c-8.16,0-15.17,5.8-16.7,13.82l-2.28,11.91c-3.45,.5-6.4,3.13-7.23,6.61h12.1l-14.22,65.46h3.61l14.22-65.46h9.95l-14.22,65.46h3.61l14.22-65.46h39.65l14.22,65.46h3.61l-14.22-65.46h9.95l14.22,65.46h3.61l-14.22-65.46h-1.49c11.22,0,21.33-8.07,23.98-19.12l11.96-49.96c2.14-8.95-4.21-17.13-13.29-17.13Zm-66.97,66.86c-1.75,7.32-8.45,12.66-15.88,12.66h-12.65l2.12-10.98c1.13-5.91,6.32-10.2,12.33-10.2h.04l16.06,.05-2.03,8.48Z"/><g><rect class="cls-7" x="193.79" y="167.16" width="34.43" height="152.17" transform="translate(422 486.49) rotate(180)"/><rect class="cls-7" x="70.04" y="319.33" width="151.56" height="8.12" transform="translate(291.65 646.78) rotate(180)"/><rect class="cls-9" x="63.43" y="167.16" width="130.36" height="152.17"/><rect class="cls-7" x="76.97" y="182.93" width="103.29" height="66.09"/><rect class="cls-7" x="76.97" y="261.55" width="103.29" height="42.01"/><rect class="cls-9" x="99.22" y="179.79" width="58.78" height="5.76" rx="2.58" ry="2.58" transform="translate(257.22 365.35) rotate(180)"/><rect class="cls-9" x="99.22" y="258.67" width="58.78" height="5.76" rx="2.58" ry="2.58" transform="translate(257.22 523.1) rotate(180)"/></g><path class="cls-8" d="M329.26,175.77h-31.54c-11.23,0-21.36,8.08-24.01,19.14l-8.33,34.79-17.12-.06h-.05c-8.16,0-15.17,5.8-16.7,13.82l-2.28,11.91c-3.45,.5-6.4,3.13-7.23,6.61h12.1l-14.22,65.46h3.61l14.22-65.46h9.95l-14.22,65.46h3.61l14.22-65.46h39.65l14.22,65.46h3.61l-14.22-65.46h9.95l14.22,65.46h3.61l-14.22-65.46h-1.49c11.22,0,21.34-8.07,23.98-19.12l11.96-49.96c2.14-8.95-4.21-17.13-13.29-17.13Zm-66.97,66.86c-1.75,7.32-8.45,12.66-15.88,12.66h-12.65l2.12-10.98c1.13-5.91,6.32-10.2,12.33-10.2h.04l16.06,.05-2.03,8.48Z"/></g><ellipse id="_Path_" class="cls-9" cx="250" cy="361.29" rx="193.89" ry="11.32"/><g><path class="cls-3" d="M150.93,53.06c.69-12.09,26.26-10.89,31.28,.39,5.02,11.28,.89,21.64,14.83,28.46,24.62,12.05,27.31,27.94,17.99,43.63-9.32,15.69-45.67,26.67-65.45,.97-19.51-25.35,10.15-30.98-5.2-42.93-13.41-10.44-12.23-29.08,6.55-30.52Z"/><path class="cls-13" d="M140,111.26c-.33,.4-.51,.6-.74,.86-.23,.26-.44,.48-.67,.72-.45,.45-.9,.89-1.35,1.31-.91,.85-1.84,1.63-2.78,2.39-1.9,1.5-3.88,2.85-5.92,4.07-2.03,1.25-4.15,2.3-6.28,3.32-1.08,.48-2.15,.96-3.24,1.39l-1.64,.63-.82,.31c-.39,.15-.93,.32-1.47,.43-1.09,.24-2.53,.22-3.83-.26-1.32-.47-2.29-1.32-2.96-2.1-1.32-1.61-1.78-3.05-2.19-4.38-.73-2.66-.89-5.06-.96-7.44-.1-4.74,.37-9.25,1.17-13.81l4.48,.38c.18,4.31,.49,8.73,1.1,12.85,.32,2.04,.75,4.09,1.38,5.67,.29,.77,.72,1.43,.88,1.49,.07,.03,0-.09-.26-.22-.25-.12-.53-.1-.54-.12,0-.02,0-.02,.12-.08l.71-.34,1.43-.68,2.8-1.44c1.83-1.02,3.64-2.06,5.36-3.2,1.72-1.14,3.4-2.34,4.98-3.61,.79-.63,1.56-1.28,2.28-1.95,.37-.33,.71-.67,1.05-1l.49-.49,.36-.38,7.06,5.7Z"/><g><path class="cls-14" d="M140.2,97.26c-3.67-.9-13.01,11.18-13.01,11.18l5.67,10.79s15.68-8.85,15.09-13.73c-.62-5.08-2.4-6.93-7.75-8.25Z"/><path class="cls-16" d="M140.2,97.26c-3.67-.9-13.01,11.18-13.01,11.18l5.67,10.79s15.68-8.85,15.09-13.73c-.62-5.08-2.4-6.93-7.75-8.25Z"/></g><path class="cls-16" d="M137.77,101.43l.9,14.13c-3.12,2.13-5.81,3.66-5.81,3.66l-1.19-2.26,6.1-15.54Z"/><path class="cls-13" d="M110.08,102.05l4.13-9.2-8.78,2.09s-1.52,5.49,1.16,8.04l3.49-.94Z"/><polygon class="cls-13" points="113.7 86.27 106.16 86.9 105.43 94.95 114.21 92.86 113.7 86.27"/><polygon class="cls-13" points="148.33 347.63 139.48 347.98 137.91 327.42 146.76 327.07 148.33 347.63"/><polygon class="cls-13" points="227.14 272.03 221.37 278.78 203.89 267.6 209.66 260.85 227.14 272.03"/><path class="cls-3" d="M219.43,278.4l5.29-8.46c.19-.31,.56-.42,.89-.28l7.29,3.22c.76,.33,1.04,1.34,.58,2.04-1.89,2.92-2.95,4.23-5.28,7.95-1.43,2.29-3.75,6.97-5.72,10.13-1.93,3.09-5.2,1.38-4.66-.12,2.42-6.69,1.72-9.9,1.29-12.93-.08-.55,.04-1.1,.32-1.55Z"/><path class="cls-3" d="M139.19,347.45l9.6-2.69c.35-.1,.7,.07,.85,.39l3.22,7.29c.33,.76-.13,1.69-.94,1.9-3.36,.88-5.03,1.14-9.26,2.32-2.6,.73-10.19,4.15-13.91,4.44-3.63,.29-4.2-3.36-2.68-3.82,6.82-2.04,10.11-6.39,11.83-8.92,.31-.46,.77-.78,1.28-.93Z"/><g class="cls-16"><polygon points="137.91 327.43 138.72 338.02 147.57 337.68 146.76 327.08 137.91 327.43"/><polygon points="209.66 260.85 203.89 267.6 212.91 273.36 218.68 266.61 209.66 260.85"/></g><g><path class="cls-14" d="M135.57,100.95c-.86,5.02-1.68,17.7,2.01,47.21l35.98,2.22c.28-13.8,.97-24.92,8.47-51.59,.79-2.81-1.21-5.65-4.12-5.82-2.74-.16-6.2-.27-9.71-.12-6.12,.27-11.13,.53-16.55,1.5-4.67,.84-9.78,2.13-12.76,2.93-1.73,.46-3.03,1.89-3.33,3.66Z"/><path class="cls-16" d="M135.57,100.95c-.86,5.02-1.68,17.7,2.01,47.21l35.98,2.22c.28-13.8,.97-24.92,8.47-51.59,.79-2.81-1.21-5.65-4.12-5.82-2.74-.16-6.2-.27-9.71-.12-6.12,.27-11.13,.53-16.55,1.5-4.67,.84-9.78,2.13-12.76,2.93-1.73,.46-3.03,1.89-3.33,3.66Z"/></g><path class="cls-3" d="M137.57,148.16s-11.2,67.82-12.29,94.87c-1.13,28.14,11.52,92.14,11.52,92.14h12s-4.38-61.1-1.61-88.64c3.01-30.02,16.73-96.75,16.73-96.75l-26.35-1.63Z"/><polygon class="cls-14" points="149.85 335.61 135.77 335.61 134.73 331.12 150.5 330.57 149.85 335.61"/><path class="cls-16" d="M152.05,166.1c-9.94,17.23-4.88,50.1-2.5,62.36,2.72-18.02,6.79-40.01,9.9-56.15-.77-9.29-2.83-14.16-7.41-6.22Z"/><path class="cls-3" d="M147.08,148.75s4.98,81.24,11.2,92.48c9.87,17.81,51.68,32.43,51.68,32.43l7.86-9.2s-26.18-21.77-40.03-34.14c-3.29-22.47,8.34-57.93-4.23-79.93l-26.48-1.64Z"/><path class="cls-14" d="M174.23,148.31l.72,3.28c.11,.26-.2,.49-.62,.47l-37.03-2.29c-.32-.02-.58-.2-.59-.4l-.13-3.24c0-.22,.28-.4,.64-.37l36.44,2.25c.27,.02,.5,.14,.57,.31Z"/><g><path class="cls-3" d="M169.08,152.08l.98,.06c.19,.01,.35-.08,.34-.2l-.2-4.21c0-.12-.17-.23-.36-.25l-.98-.06c-.19-.01-.35,.08-.34,.2l.2,4.21c0,.12,.17,.23,.36,.25Z"/><path class="cls-3" d="M140.02,150.29l.98,.06c.19,.01,.35-.08,.34-.2l-.2-4.21c0-.12-.17-.23-.36-.25l-.98-.06c-.19-.01-.35,.08-.34,.2l.2,4.21c0,.12,.17,.23,.36,.25Z"/><path class="cls-3" d="M154.55,151.18l.98,.06c.19,.01,.35-.08,.34-.2l-.2-4.21c0-.12-.17-.23-.36-.25l-.98-.06c-.19-.01-.35,.08-.34,.2l.2,4.21c0,.12,.17,.23,.36,.25Z"/></g><polygon class="cls-14" points="218.81 263.42 209.05 274.84 204.43 272.99 215.3 259.04 218.81 263.42"/><g><g><path class="cls-14" d="M140.05,128.1c-2.34,.51-3.94,2.55-4,4.84-.11-.23-.24-.45-.39-.66-.19-.27-.4-.53-.64-.76-.25-.24-.51-.44-.79-.62-.28-.18-.57-.34-.89-.45-.31-.12-.63-.22-.96-.27-.33-.06-.67-.1-.99-.09-.34,.01-.68,.04-1,.11-.33,.07-.65,.18-.96,.31-.31,.13-.59,.3-.87,.49-.27,.19-.53,.4-.76,.64-.23,.25-.44,.51-.62,.79-.18,.28-.34,.57-.45,.89-.12,.31-.21,.63-.27,.96-.05,.33-.09,.67-.08,1,0,.67,.15,1.34,.42,1.95,.13,.31,.3,.59,.48,.88,.19,.27,.41,.53,.65,.76,.24,.23,.5,.44,.78,.62,.28,.18,.58,.33,.89,.45,.31,.12,.63,.21,.96,.27,.25,.04,.5,.05,.75,.06-2.05,1.02-3.23,3.31-2.72,5.65,.5,2.31,2.51,3.92,4.76,4.01-2.01,1.03-3.16,3.32-2.66,5.63,.51,2.32,2.51,3.92,4.76,4.02-2,1.03-3.15,3.32-2.65,5.63,.51,2.34,2.55,3.93,4.84,4-.83,.41-1.55,1.02-2.05,1.8-.18,.28-.33,.58-.45,.89-.12,.31-.21,.63-.27,.97-.05,.33-.09,.66-.08,.99,0,.68,.15,1.34,.42,1.95,.13,.31,.3,.6,.48,.88,.2,.27,.41,.53,.65,.76,.24,.24,.5,.44,.79,.63,1.13,.73,2.53,.97,3.85,.69,.32-.07,.64-.17,.95-.31,.31-.13,.6-.3,.88-.48,.27-.2,.53-.41,.76-.65,.24-.25,.44-.51,.62-.79,.18-.28,.34-.57,.45-.89,.12-.31,.22-.63,.27-.96,.05-.25,.07-.5,.08-.76,1.01,2.06,3.32,3.25,5.66,2.74,2.33-.51,3.93-2.53,4.02-4.81,1.02,2.04,3.32,3.21,5.65,2.7,2.33-.51,3.93-2.53,4.01-4.81,1.03,2.03,3.33,3.2,5.66,2.7,2.32-.5,3.92-2.53,4.01-4.81,1.02,2.04,3.32,3.21,5.65,2.7,2.33-.51,3.93-2.53,4.02-4.81,1.02,2.04,3.32,3.21,5.65,2.7,2.34-.51,3.94-2.56,4-4.85,.11,.23,.24,.45,.39,.66,.18,.27,.41,.53,.65,.76,.24,.24,.5,.44,.79,.63,.28,.18,.58,.33,.89,.45,.31,.12,.63,.21,.96,.27,.33,.05,.67,.08,1,.07,.34,0,.67-.04,.99-.11,.33-.07,.65-.17,.96-.31,.31-.13,.59-.3,.88-.48,.27-.2,.53-.41,.76-.65,.23-.25,.44-.51,.62-.79,.18-.28,.34-.57,.45-.89,.12-.31,.22-.63,.27-.96,.06-.33,.08-.67,.09-1,0-.33-.05-.67-.12-.99-.07-.33-.17-.65-.3-.96-.14-.3-.3-.59-.49-.86-.19-.28-.41-.54-.65-.77-.24-.23-.5-.43-.78-.62-.28-.18-.59-.33-.89-.45-.31-.12-.63-.21-.96-.27-.25-.04-.49-.06-.74-.07,2.05-1.02,3.22-3.3,2.71-5.64-.5-2.31-2.49-3.91-4.75-4.01,2.01-1.03,3.15-3.32,2.65-5.64-.5-2.3-2.49-3.91-4.75-4.01,2.01-1.03,3.16-3.31,2.65-5.63-.51-2.33-2.54-3.93-4.83-4,.22-.11,.44-.23,.65-.37,.27-.2,.53-.41,.76-.65,.23-.24,.44-.5,.62-.78,.18-.28,.33-.59,.45-.89,.12-.31,.22-.63,.27-.96,.06-.34,.08-.67,.08-1,0-.33-.04-.67-.11-1-.29-1.31-1.1-2.48-2.24-3.2-1.13-.73-2.53-.98-3.85-.7-.32,.07-.64,.18-.95,.31-.31,.13-.6,.3-.88,.49-.27,.19-.53,.4-.76,.64-.23,.25-.44,.51-.62,.79-.18,.28-.34,.57-.45,.89-.12,.31-.22,.63-.27,.96-.05,.25-.07,.5-.08,.76-1.01-2.06-3.32-3.25-5.66-2.74-2.33,.51-3.93,2.53-4.02,4.8-1.02-2.03-3.32-3.2-5.65-2.69-2.33,.51-3.93,2.53-4.01,4.8-1.02-2.03-3.32-3.2-5.65-2.69-2.33,.51-3.93,2.53-4.02,4.8-1.02-2.03-3.32-3.2-5.65-2.69-2.32,.51-3.93,2.53-4.01,4.8-1.03-2.02-3.33-3.19-5.66-2.69Z"/><path class="cls-11" d="M140.05,128.1c-2.34,.51-3.94,2.55-4,4.84-.11-.23-.24-.45-.39-.66-.19-.27-.4-.53-.64-.76-.25-.24-.51-.44-.79-.62-.28-.18-.57-.34-.89-.45-.31-.12-.63-.22-.96-.27-.33-.06-.67-.1-.99-.09-.34,.01-.68,.04-1,.11-.33,.07-.65,.18-.96,.31-.31,.13-.59,.3-.87,.49-.27,.19-.53,.4-.76,.64-.23,.25-.44,.51-.62,.79-.18,.28-.34,.57-.45,.89-.12,.31-.21,.63-.27,.96-.05,.33-.09,.67-.08,1,0,.67,.15,1.34,.42,1.95,.13,.31,.3,.59,.48,.88,.19,.27,.41,.53,.65,.76,.24,.23,.5,.44,.78,.62,.28,.18,.58,.33,.89,.45,.31,.12,.63,.21,.96,.27,.25,.04,.5,.05,.75,.06-2.05,1.02-3.23,3.31-2.72,5.65,.5,2.31,2.51,3.92,4.76,4.01-2.01,1.03-3.16,3.32-2.66,5.63,.51,2.32,2.51,3.92,4.76,4.02-2,1.03-3.15,3.32-2.65,5.63,.51,2.34,2.55,3.93,4.84,4-.83,.41-1.55,1.02-2.05,1.8-.18,.28-.33,.58-.45,.89-.12,.31-.21,.63-.27,.97-.05,.33-.09,.66-.08,.99,0,.68,.15,1.34,.42,1.95,.13,.31,.3,.6,.48,.88,.2,.27,.41,.53,.65,.76,.24,.24,.5,.44,.79,.63,1.13,.73,2.53,.97,3.85,.69,.32-.07,.64-.17,.95-.31,.31-.13,.6-.3,.88-.48,.27-.2,.53-.41,.76-.65,.24-.25,.44-.51,.62-.79,.18-.28,.34-.57,.45-.89,.12-.31,.22-.63,.27-.96,.05-.25,.07-.5,.08-.76,1.01,2.06,3.32,3.25,5.66,2.74,2.33-.51,3.93-2.53,4.02-4.81,1.02,2.04,3.32,3.21,5.65,2.7,2.33-.51,3.93-2.53,4.01-4.81,1.03,2.03,3.33,3.2,5.66,2.7,2.32-.5,3.92-2.53,4.01-4.81,1.02,2.04,3.32,3.21,5.65,2.7,2.33-.51,3.93-2.53,4.02-4.81,1.02,2.04,3.32,3.21,5.65,2.7,2.34-.51,3.94-2.56,4-4.85,.11,.23,.24,.45,.39,.66,.18,.27,.41,.53,.65,.76,.24,.24,.5,.44,.79,.63,.28,.18,.58,.33,.89,.45,.31,.12,.63,.21,.96,.27,.33,.05,.67,.08,1,.07,.34,0,.67-.04,.99-.11,.33-.07,.65-.17,.96-.31,.31-.13,.59-.3,.88-.48,.27-.2,.53-.41,.76-.65,.23-.25,.44-.51,.62-.79,.18-.28,.34-.57,.45-.89,.12-.31,.22-.63,.27-.96,.06-.33,.08-.67,.09-1,0-.33-.05-.67-.12-.99-.07-.33-.17-.65-.3-.96-.14-.3-.3-.59-.49-.86-.19-.28-.41-.54-.65-.77-.24-.23-.5-.43-.78-.62-.28-.18-.59-.33-.89-.45-.31-.12-.63-.21-.96-.27-.25-.04-.49-.06-.74-.07,2.05-1.02,3.22-3.3,2.71-5.64-.5-2.31-2.49-3.91-4.75-4.01,2.01-1.03,3.15-3.32,2.65-5.64-.5-2.3-2.49-3.91-4.75-4.01,2.01-1.03,3.16-3.31,2.65-5.63-.51-2.33-2.54-3.93-4.83-4,.22-.11,.44-.23,.65-.37,.27-.2,.53-.41,.76-.65,.23-.24,.44-.5,.62-.78,.18-.28,.33-.59,.45-.89,.12-.31,.22-.63,.27-.96,.06-.34,.08-.67,.08-1,0-.33-.04-.67-.11-1-.29-1.31-1.1-2.48-2.24-3.2-1.13-.73-2.53-.98-3.85-.7-.32,.07-.64,.18-.95,.31-.31,.13-.6,.3-.88,.49-.27,.19-.53,.4-.76,.64-.23,.25-.44,.51-.62,.79-.18,.28-.34,.57-.45,.89-.12,.31-.22,.63-.27,.96-.05,.25-.07,.5-.08,.76-1.01-2.06-3.32-3.25-5.66-2.74-2.33,.51-3.93,2.53-4.02,4.8-1.02-2.03-3.32-3.2-5.65-2.69-2.33,.51-3.93,2.53-4.01,4.8-1.02-2.03-3.32-3.2-5.65-2.69-2.33,.51-3.93,2.53-4.02,4.8-1.02-2.03-3.32-3.2-5.65-2.69-2.32,.51-3.93,2.53-4.01,4.8-1.03-2.02-3.33-3.19-5.66-2.69Z"/></g><rect class="cls-10" x="137.04" y="130.46" width="55.27" height="35.41" rx="1.86" ry="1.86" transform="translate(-27.79 38.5) rotate(-12.3)"/></g><path class="cls-13" d="M181.98,101.62c1.75,4.41,3.27,8.77,4.66,13.25,1.41,4.46,2.66,8.99,3.68,13.62,.13,.58,.24,1.16,.36,1.75l.18,.88,.09,.44,.07,.42c.03,.18,.05,.33,.06,.55,.07,.75-.02,1.83-.51,2.87-.48,1.05-1.33,1.87-2.06,2.32-.74,.46-1.4,.68-1.94,.81-.56,.13-1.04,.19-1.48,.22-1.75,.1-3.06-.12-4.36-.34-1.28-.25-2.48-.57-3.66-.91-4.68-1.4-8.96-3.24-13.21-5.4l1.6-4.2c4.39,1.03,8.87,2.06,13.16,2.74,1.07,.17,2.13,.29,3.12,.36,.98,.08,1.97,.07,2.52-.05,.25-.03,.38-.21-.14,.06-.25,.14-.68,.52-.93,1.05-.25,.51-.26,1.01-.26,1.18,.01,.08,0,.08,0,.12,0,.03,.02,.1,0,0l-.11-.4-.22-.8c-.15-.54-.29-1.07-.45-1.61-1.24-4.29-2.64-8.58-4.09-12.86-1.48-4.26-3.03-8.58-4.56-12.77l8.46-3.29Z"/><g><path class="cls-14" d="M180.77,93.4c3.54,1.32,7.1,14,7.1,14l-14.6,9.14s-4.65-12.24-2.84-16.81c1.88-4.76,6.31-7.84,10.35-6.33Z"/><path class="cls-16" d="M180.77,93.4c3.54,1.32,7.1,14,7.1,14l-14.6,9.14s-4.65-12.24-2.84-16.81c1.88-4.76,6.31-7.84,10.35-6.33Z"/></g><path class="cls-14" d="M217.95,282.95s-.07,.02-.1,.03c-.39,.11-.77,0-1.13-.3-.27-.23-.3-.49-.28-.67,.15-1.12,3.06-2.49,3.39-2.64,.08-.04,.17-.02,.23,.03s.09,.14,.06,.22c-.37,1.08-1.13,2.92-2.16,3.31Zm1.59-2.97c-1.15,.58-2.61,1.5-2.69,2.09,0,.07,0,.17,.13,.29,.25,.21,.5,.28,.75,.21,.58-.16,1.25-1.12,1.8-2.6Z"/><path class="cls-14" d="M219.71,279.89c-1.03,.39-3.11,.61-3.78-.02-.14-.13-.35-.43-.12-.91,.14-.3,.38-.51,.71-.61,1.24-.37,3.41,.98,3.5,1.04,.06,.04,.1,.11,.1,.18s-.04,.14-.11,.18c-.09,.05-.19,.09-.3,.13Zm-3.13-1.11c-.18,.07-.31,.19-.39,.36-.11,.25-.04,.36,.03,.43,.45,.43,2.21,.34,3.22-.02-.75-.41-2.07-1-2.81-.78-.02,0-.04,.01-.06,.02Z"/><path class="cls-14" d="M136.4,349.85c-.85,.24-1.67,.33-2.22,.05-.35-.17-.56-.47-.64-.88-.05-.25,.02-.47,.19-.63,.89-.87,4.78-.08,5.22,.01,.09,.02,.15,.09,.17,.18,.01,.09-.03,.17-.11,.22-.69,.35-1.66,.8-2.6,1.06Zm-2.02-1.34c-.16,.04-.28,.1-.36,.18-.07,.07-.09,.15-.07,.26,.05,.28,.19,.47,.41,.58,.65,.32,2.08,0,3.89-.84-1.33-.23-3.06-.41-3.87-.18Z"/><path class="cls-14" d="M138.96,348.8s-.06,0-.09,0c-1.15-.17-3.68-1.45-3.79-2.47-.03-.24,.06-.57,.6-.78,.4-.16,.81-.15,1.22,.04,1.33,.59,2.17,2.84,2.2,2.94,.03,.07,.01,.15-.03,.21-.03,.03-.07,.06-.11,.07Zm-3.01-2.89s-.08,.02-.12,.04c-.36,.14-.34,.3-.34,.35,.07,.61,1.84,1.67,3.06,2.01-.29-.64-.96-1.94-1.83-2.33-.26-.12-.52-.14-.77-.07Z"/><path class="cls-14" d="M168.21,92.5c-6.12,.27-11.13,.53-16.55,1.5-1.99,.35-4.07,.8-6.03,1.24h0c-1.49,1.6-4.08,9.65-1.17,15.09,1.92-3.23,5.15-6.04,7.3-6.32,2.37,.64,4.7,4.21,5.27,7.36,3.86-.7,12.21-9.72,16.95-16.99l1.23-1.88c-2.15-.08-4.55-.09-6.99,.01Z"/><path class="cls-13" d="M167.7,74.67c-1.37,5.33-3,15.03,.51,18.18,0,0-3.3,5.36-11.68,6.34-9.23,1.08-4.87-4.84-4.87-4.84,6.03-1.93,6.14-6.25,5.36-10.23l10.69-9.45Z"/><path class="cls-13" d="M151.65,94.36s-3.69,3.89-.18,10.98c7.43-3.45,14.53-7.54,16.74-12.48l-16.55,1.5Z"/><path class="cls-16" d="M163.34,78.53l-6.33,5.59c.19,.94,.32,1.9,.33,2.84,2.29-.53,6.07-2.81,6.45-5.16,.19-1.18-.3-2.75-.46-3.27Z"/><path class="cls-13" d="M174.72,68.24c-3.14,8.23-4.3,11.78-9.88,14.76-8.4,4.48-17.83-1.18-17.21-10.18,.56-8.1,5.6-20.2,14.86-20.97,9.12-.76,15.37,8.16,12.23,16.39Z"/><path class="cls-3" d="M156.03,51.81c3.75-.87,5,3.42-1.58,4.93-6.58,1.52-1.52-4.21,1.58-4.93Z"/><path class="cls-3" d="M159.93,49.54c-5.37,2.03-2.98,8.17,3.09,9.93s4.06,12.09,9.52,14.36,8.35-15.09,3.64-19.97c-4.71-4.88-12.65-5.67-16.25-4.31Z"/><path class="cls-5" d="M154.91,65.84s-2.08,2.58-3.8,3.6c.64,1.12,2.29,1.22,2.29,1.22l1.51-4.82Z"/><path class="cls-3" d="M156.29,74.5c-.33-.05-.67-.13-1.03-.24-.11-.03-.17-.15-.14-.26,.03-.11,.16-.17,.26-.14,3.01,.94,5.06-.72,5.08-.73,.09-.07,.22-.06,.3,.03,.07,.09,.06,.22-.03,.3-.08,.07-1.8,1.45-4.44,1.05Z"/><path class="cls-13" d="M174.92,75.74c-1.11,1.45-2.79,2.25-4.28,2.43-2.24,.26-3.01-1.83-2.1-3.76,.82-1.74,2.98-3.97,5.09-3.34,2.08,.62,2.55,3.02,1.28,4.67Z"/><path class="cls-3" d="M165.36,66c-.17-.04-.3-.19-.31-.38-.12-1.94-2.24-3.27-2.26-3.28-.2-.12-.26-.38-.14-.58,.12-.2,.38-.26,.58-.14,.1,.06,2.52,1.58,2.66,3.95,.01,.23-.16,.43-.39,.45-.05,0-.09,0-.13-.01Z"/><path class="cls-3" d="M160.76,67.03c-.23,.63-.75,1.01-1.16,.86-.41-.15-.55-.78-.32-1.41s.75-1.01,1.16-.86c.41,.15,.55,.78,.32,1.41Z"/><path class="cls-3" d="M153.01,64.3c-.23,.63-.75,1.01-1.16,.86-.41-.15-.55-.78-.32-1.41s.75-1.01,1.16-.86,.55,.78,.32,1.41Z"/><path class="cls-3" d="M152.85,63l-1.35-.99s.34,1.46,1.35,.99Z"/><path class="cls-3" d="M160.6,65.73l-1.35-.99s.34,1.46,1.35,.99Z"/><path class="cls-3" d="M151.23,59.02c-.14,0-.28-.08-.36-.21-.12-.2-.05-.46,.16-.57,2.02-1.16,3.76-.29,3.83-.26,.21,.11,.29,.36,.18,.57-.1,.21-.36,.29-.56,.18h0c-.06-.03-1.42-.69-3.03,.24-.07,.04-.14,.06-.22,.06Z"/><path class="cls-13" d="M166.65,128.26l-6.04-7.45-1.69,8.87s4.39,3.64,7.81,2.24l-.07-3.66Z"/><polygon class="cls-13" points="155.23 119.59 152.31 126.65 158.91 129.68 160.6 120.82 155.23 119.59"/></g><g><g><rect class="cls-14" x="409.62" y="184.41" width=".95" height="12.86" transform="translate(-16.38 40.12) rotate(-5.49)"/><rect class="cls-14" x="410.92" y="201.7" width=".95" height="5.19" transform="translate(-17.65 40.29) rotate(-5.49)"/><rect class="cls-14" x="176.14" y="162.03" width="234.5" height="139.6" transform="translate(607.61 434.53) rotate(174.51)"/><rect class="cls-2" x="176.14" y="162.03" width="234.5" height="139.6" transform="translate(607.61 434.53) rotate(174.51)"/></g><polygon class="cls-1" points="294 238.14 170 173.57 403.42 151.13 294 238.14"/><path class="cls-14" d="M265.75,97.43l-95.75,76.14,233.42-22.44-108.5-56.51c-9.42-4.91-20.85-3.81-29.17,2.8Z"/><path class="cls-4" d="M394.75,151.96l-103.09-53.69c-7.11-3.7-15.74-2.87-22.01,2.12l-90.98,72.34,216.08-20.77Z"/><polygon class="cls-10" points="351.64 150.26 383.23 158.69 383.99 166.58 294 238.14 192.02 185.03 190.5 169.27 351.64 150.26"/><polyline class="cls-15" points="351.64 150.26 357.61 166.8 383.23 158.69"/><polyline class="cls-7" points="351.64 150.26 354.71 163.9 383.23 158.69"/><path class="cls-14" d="M312.65,223.28l104.12,66.81-233.42,22.44,89.49-85.42c10.8-10.31,27.24-11.89,39.81-3.83Z"/></g></g></g></svg>