<?xml version="1.0" encoding="UTF-8"?><svg id="Layer_2" xmlns="http://www.w3.org/2000/svg" viewBox="0 0 32 32"><defs><style>.cls-1{fill:none;}</style></defs><g id="icons"><g id="Actions"><g id="Operations"><g><path d="M6,30h12c1.1,0,2-.9,2-2v-3h-2v3H6V4h12v3h2v-3c0-1.1-.9-2-2-2H6c-1.1,0-2,.9-2,2V28c0,1.1,.9,2,2,2Z"/><rect class="cls-1" x="0" y="0" width="32" height="32" transform="translate(32 32) rotate(-180)"/><polygon points="20.59 20.59 24.17 17 10 17 10 15 24.17 15 20.59 11.41 22 10 28 16 22 22 20.59 20.59"/></g></g></g></g></svg>