<?xml version="1.0" encoding="UTF-8"?><svg id="Layer_2" xmlns="http://www.w3.org/2000/svg" viewBox="0 0 32 32"><defs><style>.cls-1{fill:none;}</style></defs><g id="icons"><g id="Person"><g id="User"><g><polygon points="32 14 28 14 28 10 26 10 26 14 22 14 22 16 26 16 26 20 28 20 28 16 32 16 32 14"/><path d="M12,4c2.76,0,5,2.24,5,5s-2.24,5-5,5-5-2.24-5-5c0-2.76,2.24-5,5-5m0-2c-3.87,0-7,3.13-7,7s3.13,7,7,7,7-3.13,7-7-3.13-7-7-7Z"/><path d="M22,30h-2v-5c0-2.76-2.24-5-5-5h-6c-2.76,0-5,2.24-5,5v5H2v-5c0-3.86,3.14-7,7-7h6c3.86,0,7,3.14,7,7v5Z"/><rect id="_Transparent_Rectangle_" class="cls-1" width="32" height="32"/></g></g></g></g></svg>